<svg width="2977.2" height="4208.4" xmlns="http://www.w3.org/2000/svg" version="1.2" baseProfile="tiny"><path fill="#fff" fill-rule="evenodd" d="M0 0h2977.2v4208.4H0V0"/><path class="StaffLines" fill="none" stroke="#000" stroke-width="2" stroke-linejoin="bevel" d="M194.232 316.732H2835.47M194.232 341.732H2835.47M194.232 366.732H2835.47M194.232 391.732H2835.47M194.232 416.732H2835.47M194.232 579.233H2835.47M194.232 604.233H2835.47M194.232 629.233H2835.47M194.232 654.233H2835.47M194.232 679.233H2835.47"/><path class="MeasureNumber" d="M169.545 243.014c-.479 0-1.438.291-2.875.875v-.547l7.172-3.641.312.078v24c0 .959.24 1.584.719 1.875.479.292 1.505.453 3.078.485v.593h-11v-.593c1.49-.063 2.495-.287 3.016-.672.52-.386.781-1.203.781-2.453v-18.125c0-1.25-.401-1.875-1.203-1.875m31.547 14.64v2.406h-4.078v6.672h-3.079v-6.672h-11.234v-2.406l12.547-17.797h1.766v17.797h4.078m-7.203 0v-13.719l-9.594 13.719h9.594m24.664 5.797c-1.599 2.563-3.763 3.844-6.493 3.844-2.729 0-4.895-1.307-6.5-3.922-1.604-2.615-2.406-5.974-2.406-10.078 0-3.865.815-7.096 2.445-9.695 1.631-2.599 3.836-3.899 6.618-3.899 2.573 0 4.672 1.279 6.297 3.836s2.437 5.888 2.437 9.992c0 4.052-.799 7.36-2.398 9.922m-6.461-22.719c-3.5 0-5.25 4.308-5.25 12.922 0 8.396 1.739 12.594 5.218 12.594 3.48 0 5.219-4.214 5.219-12.641 0-4.177-.443-7.367-1.328-9.57-.885-2.203-2.172-3.305-3.859-3.305"/><path class="TieSegment" stroke="#000" stroke-width="1.75" stroke-linecap="round" stroke-linejoin="round" fill-rule="evenodd" d="M678.979 297.982c14.869-13.3 59.478-13.3 74.347 0-14.869-9.3-59.478-9.3-74.347 0M1436.97 310.482c32.68-26.833 130.71-26.833 163.38 0-32.67-22.833-130.7-22.833-163.38 0"/><path class="TieSegment" stroke="#000" stroke-width="1.75" stroke-linecap="round" stroke-linejoin="round" fill-rule="evenodd" d="M678.979 297.982c14.869-13.3 59.478-13.3 74.347 0-14.869-9.3-59.478-9.3-74.347 0M1436.97 310.482c32.68-26.833 130.71-26.833 163.38 0-32.67-22.833-130.7-22.833-163.38 0"/><path class="BarLine" stroke="#000" stroke-width="4" stroke-linejoin="bevel" d="M196.232 578.233v102M1552.33 578.233v102M2810.97 578.233v102"/><path class="BarLine" stroke="#000" stroke-width="12.5" stroke-linejoin="bevel" d="M2829.22 578.233v102"/><path class="BarLine" stroke="#000" stroke-width="4" stroke-linejoin="bevel" d="M196.232 315.732v263.501M1552.33 315.732v263.501M2810.97 315.732v263.501"/><path class="BarLine" stroke="#000" stroke-width="12.5" stroke-linejoin="bevel" d="M2829.22 315.732v263.501"/><path class="Accidental" d="M999.855 385.389c0 1.239-.617 1.859-1.852 1.859-1.234 0-1.851-.62-1.851-1.859v-14.453l-8.297 3.125v15.812c0 1.24-.62 1.859-1.86 1.859-1.239 0-1.859-.619-1.859-1.859v-14.547l-3.125 1.172c-.062.063-.323.094-.781.094-.521 0-.977-.196-1.367-.586-.391-.391-.586-.846-.586-1.367v-6.047c0-.979.422-1.599 1.265-1.86l4.594-1.562v-16.016l-3.125 1.078c-.062.063-.323.094-.781.094-.521 0-.977-.195-1.367-.586-.391-.39-.586-.846-.586-1.367v-6.062c0-.907.422-1.49 1.265-1.75l4.594-1.766v-15.719c0-1.239.62-1.859 1.859-1.859 1.24 0 1.86.62 1.86 1.859v14.453l8.297-3.125v-15.812c0-1.24.617-1.86 1.851-1.86 1.235 0 1.852.62 1.852 1.86v14.547l3.235-1.172c.06-.063.29-.094.67-.094.46 0 .95.193 1.47.578.4.396.59.854.59 1.375v6.047c0 .917-.45 1.537-1.37 1.859l-4.595 1.563v16.016l3.235-1.079c.06-.062.29-.093.67-.093.46 0 .95.198 1.47.593.4.386.59.839.59 1.36v6.062c0 .844-.45 1.427-1.37 1.75l-4.595 1.766v15.719m-3.703-40.625l-8.297 2.922v16.015l8.297-2.922v-16.015"/><path class="LedgerLine" stroke="#000" stroke-width="4" stroke-linecap="square" stroke-linejoin="bevel" d="M397.42 729.233h47.914M397.42 704.233h47.914M734.306 729.233h47.915M734.306 704.233h47.915M1003.82 754.233h47.91M1003.82 729.233h47.91M1003.82 704.233h47.91M1273.32 754.233h47.92M1273.32 729.233h47.92M1273.32 704.233h47.92M1581.33 704.233h47.92M1900.76 704.233h47.92M2255.69 704.233h47.91M2428.8 704.233h47.91M2659.5 704.233h47.91M397.42 291.732h47.914M1138.57 291.732h47.91M1273.32 291.732h47.92M2078.23 291.732h47.91M2166.96 291.732h47.91M2166.96 266.732h47.91M2255.69 291.732h47.91M2255.69 266.732h47.91M2428.8 291.732h47.91M2428.8 266.732h47.91M2659.5 291.732h47.91M2659.5 266.732h47.91M2659.5 241.732h47.91"/><path class="Stem" stroke="#000" stroke-width="3.25" stroke-linecap="round" stroke-linejoin="bevel" d="M436.209 737.037V560.483M604.652 649.537v-89.054M773.096 737.037V560.483M907.85 649.537v-89.054M1042.6 749.537V579.233M1177.36 662.037v-82.804M1312.11 749.537V579.233M1446.87 662.037v-82.804M1620.12 712.037V560.483M1762.09 662.037V560.483M1939.55 712.037V560.483M2117.02 662.037V560.483M2294.48 712.037V554.233M2467.59 712.037V554.233M2698.29 712.037V551.108M406.545 296.428v89.054M490.767 308.928v84.888M659.21 321.428v89.054M743.431 321.428v70.304M878.186 346.428v70.304M1012.94 358.928v64.054M1147.7 283.928v134.888M1282.45 296.428v118.221M1417.2 333.928v76.554M1590.46 333.928v101.554M1732.43 358.928v76.554M1821.16 346.428v89.054M1909.89 321.428v70.304M1998.62 308.928v72.388M2087.35 296.428v74.471M2176.08 258.928v101.554M2264.81 271.428v120.304M2437.92 258.928v157.804M2668.62 233.928v170.304"/><path class="Note" d="M426.889 727.967c3.125 0 5.765.813 7.922 2.438 2.01 1.76 3.015 3.973 3.015 6.64 0 4.49-2.307 8.688-6.922 12.594-4.687 3.906-9.703 5.859-15.047 5.859-3.125 0-5.76-.812-7.906-2.437-2.021-1.761-3.031-3.974-3.031-6.641 0-4.489 2.344-8.687 7.031-12.594 4.563-3.906 9.542-5.859 14.938-5.859M595.332 640.467c3.125 0 5.766.812 7.922 2.437 2.01 1.761 3.015 3.974 3.015 6.641 0 4.49-2.307 8.688-6.921 12.594-4.688 3.906-9.704 5.859-15.047 5.859-3.125 0-5.761-.812-7.907-2.437-2.02-1.761-3.031-3.974-3.031-6.641 0-4.489 2.344-8.687 7.031-12.594 4.563-3.906 9.542-5.859 14.938-5.859"/><path class="Note" d="M595.332 615.467c3.125 0 5.766.812 7.922 2.437 2.01 1.761 3.015 3.974 3.015 6.641 0 4.49-2.307 8.688-6.921 12.594-4.688 3.906-9.704 5.859-15.047 5.859-3.125 0-5.761-.812-7.907-2.437-2.02-1.761-3.031-3.974-3.031-6.641 0-4.489 2.344-8.687 7.031-12.594 4.563-3.906 9.542-5.859 14.938-5.859M763.775 727.967c3.125 0 5.766.813 7.922 2.438 2.011 1.76 3.016 3.973 3.016 6.64 0 4.49-2.308 8.688-6.922 12.594-4.688 3.906-9.703 5.859-15.047 5.859-3.125 0-5.76-.812-7.906-2.437-2.021-1.761-3.032-3.974-3.032-6.641 0-4.489 2.344-8.687 7.032-12.594 4.562-3.906 9.541-5.859 14.937-5.859M898.53 640.467c3.125 0 5.765.812 7.922 2.437 2.01 1.761 3.015 3.974 3.015 6.641 0 4.49-2.307 8.688-6.922 12.594-4.687 3.906-9.703 5.859-15.046 5.859-3.125 0-5.761-.812-7.907-2.437-2.02-1.761-3.031-3.974-3.031-6.641 0-4.489 2.344-8.687 7.031-12.594 4.563-3.906 9.542-5.859 14.938-5.859"/><path class="Note" d="M898.53 615.467c3.125 0 5.765.812 7.922 2.437 2.01 1.761 3.015 3.974 3.015 6.641 0 4.49-2.307 8.688-6.922 12.594-4.687 3.906-9.703 5.859-15.046 5.859-3.125 0-5.761-.812-7.907-2.437-2.02-1.761-3.031-3.974-3.031-6.641 0-4.489 2.344-8.687 7.031-12.594 4.563-3.906 9.542-5.859 14.938-5.859M1033.28 740.467c3.13 0 5.77.813 7.93 2.438 2.01 1.76 3.01 3.974 3.01 6.64 0 4.49-2.31 8.688-6.92 12.594-4.69 3.906-9.7 5.859-15.05 5.859-3.12 0-5.76-.812-7.9-2.437-2.02-1.761-3.03-3.974-3.03-6.641 0-4.489 2.34-8.687 7.03-12.594 4.56-3.906 9.54-5.859 14.93-5.859M1168.04 652.967c3.12 0 5.76.812 7.92 2.437 2.01 1.761 3.02 3.974 3.02 6.641 0 4.49-2.31 8.688-6.93 12.594-4.68 3.906-9.7 5.859-15.04 5.859-3.13 0-5.76-.812-7.91-2.437-2.02-1.761-3.03-3.974-3.03-6.641 0-4.489 2.34-8.687 7.03-12.594 4.56-3.906 9.54-5.859 14.94-5.859"/><path class="Note" d="M1168.04 627.967c3.12 0 5.76.812 7.92 2.437 2.01 1.761 3.02 3.974 3.02 6.641 0 4.49-2.31 8.688-6.93 12.594-4.68 3.906-9.7 5.859-15.04 5.859-3.13 0-5.76-.812-7.91-2.437-2.02-1.761-3.03-3.974-3.03-6.641 0-4.489 2.34-8.687 7.03-12.594 4.56-3.906 9.54-5.859 14.94-5.859M1302.79 740.467c3.13 0 5.77.813 7.93 2.438 2.01 1.76 3.01 3.974 3.01 6.64 0 4.49-2.31 8.688-6.92 12.594-4.69 3.906-9.7 5.859-15.05 5.859-3.12 0-5.76-.812-7.9-2.437-2.02-1.761-3.04-3.974-3.04-6.641 0-4.489 2.35-8.687 7.04-12.594 4.56-3.906 9.54-5.859 14.93-5.859M1437.55 652.967c3.12 0 5.76.812 7.92 2.437 2.01 1.761 3.02 3.974 3.02 6.641 0 4.49-2.31 8.688-6.93 12.594-4.68 3.906-9.7 5.859-15.04 5.859-3.13 0-5.76-.812-7.91-2.437-2.02-1.761-3.03-3.974-3.03-6.641 0-4.489 2.34-8.687 7.03-12.594 4.56-3.906 9.54-5.859 14.94-5.859"/><path class="Note" d="M1437.55 627.967c3.12 0 5.76.812 7.92 2.437 2.01 1.761 3.02 3.974 3.02 6.641 0 4.49-2.31 8.688-6.93 12.594-4.68 3.906-9.7 5.859-15.04 5.859-3.13 0-5.76-.812-7.91-2.437-2.02-1.761-3.03-3.974-3.03-6.641 0-4.489 2.34-8.687 7.03-12.594 4.56-3.906 9.54-5.859 14.94-5.859M1610.8 702.967c3.13 0 5.77.813 7.92 2.438 2.02 1.76 3.02 3.973 3.02 6.64 0 4.49-2.31 8.688-6.92 12.594-4.69 3.906-9.7 5.859-15.05 5.859-3.12 0-5.76-.812-7.9-2.437-2.03-1.761-3.04-3.974-3.04-6.641 0-4.489 2.35-8.687 7.04-12.594 4.56-3.906 9.54-5.859 14.93-5.859M1752.77 652.967c3.13 0 5.77.812 7.92 2.437 2.01 1.761 3.02 3.974 3.02 6.641 0 4.49-2.31 8.688-6.92 12.594-4.69 3.906-9.71 5.859-15.05 5.859-3.12 0-5.76-.812-7.91-2.437-2.02-1.761-3.03-3.974-3.03-6.641 0-4.489 2.35-8.687 7.03-12.594 4.57-3.906 9.55-5.859 14.94-5.859M1752.77 615.467c3.13 0 5.77.812 7.92 2.437 2.01 1.761 3.02 3.974 3.02 6.641 0 4.49-2.31 8.688-6.92 12.594-4.69 3.906-9.71 5.859-15.05 5.859-3.12 0-5.76-.812-7.91-2.437-2.02-1.761-3.03-3.974-3.03-6.641 0-4.489 2.35-8.687 7.03-12.594 4.57-3.906 9.55-5.859 14.94-5.859M1930.23 702.967c3.13 0 5.77.813 7.93 2.438 2.01 1.76 3.01 3.973 3.01 6.64 0 4.49-2.31 8.688-6.92 12.594-4.69 3.906-9.7 5.859-15.05 5.859-3.12 0-5.76-.812-7.9-2.437-2.02-1.761-3.04-3.974-3.04-6.641 0-4.489 2.35-8.687 7.04-12.594 4.56-3.906 9.54-5.859 14.93-5.859M2107.69 652.967c3.13 0 5.77.812 7.93 2.437 2.01 1.761 3.01 3.974 3.01 6.641 0 4.49-2.3 8.688-6.92 12.594-4.69 3.906-9.7 5.859-15.05 5.859-3.12 0-5.76-.812-7.9-2.437-2.02-1.761-3.03-3.974-3.03-6.641 0-4.489 2.34-8.687 7.03-12.594 4.56-3.906 9.54-5.859 14.93-5.859M2107.69 615.467c3.13 0 5.77.812 7.93 2.437 2.01 1.761 3.01 3.974 3.01 6.641 0 4.49-2.3 8.688-6.92 12.594-4.69 3.906-9.7 5.859-15.05 5.859-3.12 0-5.76-.812-7.9-2.437-2.02-1.761-3.03-3.974-3.03-6.641 0-4.489 2.34-8.687 7.03-12.594 4.56-3.906 9.54-5.859 14.93-5.859M2285.16 702.967c3.12 0 5.76.813 7.92 2.438 2.01 1.76 3.01 3.973 3.01 6.64 0 4.49-2.3 8.688-6.92 12.594-4.69 3.906-9.7 5.859-15.04 5.859-3.13 0-5.77-.812-7.91-2.437-2.02-1.761-3.03-3.974-3.03-6.641 0-4.489 2.34-8.687 7.03-12.594 4.56-3.906 9.54-5.859 14.94-5.859M2285.16 615.467c3.12 0 5.76.812 7.92 2.437 2.01 1.761 3.01 3.974 3.01 6.641 0 4.49-2.3 8.688-6.92 12.594-4.69 3.906-9.7 5.859-15.04 5.859-3.13 0-5.77-.812-7.91-2.437-2.02-1.761-3.03-3.974-3.03-6.641 0-4.489 2.34-8.687 7.03-12.594 4.56-3.906 9.54-5.859 14.94-5.859M2458.27 702.967c3.12 0 5.76.813 7.92 2.438 2.01 1.76 3.02 3.973 3.02 6.64 0 4.49-2.31 8.688-6.93 12.594-4.68 3.906-9.7 5.859-15.04 5.859-3.13 0-5.76-.812-7.91-2.437-2.02-1.761-3.03-3.974-3.03-6.641 0-4.489 2.34-8.687 7.03-12.594 4.56-3.906 9.54-5.859 14.94-5.859M2458.27 615.467c3.12 0 5.76.812 7.92 2.437 2.01 1.761 3.02 3.974 3.02 6.641 0 4.49-2.31 8.688-6.93 12.594-4.68 3.906-9.7 5.859-15.04 5.859-3.13 0-5.76-.812-7.91-2.437-2.02-1.761-3.03-3.974-3.03-6.641 0-4.489 2.34-8.687 7.03-12.594 4.56-3.906 9.54-5.859 14.94-5.859M2688.97 702.967c3.12 0 5.76.813 7.92 2.438 2.01 1.76 3.02 3.973 3.02 6.64 0 4.49-2.31 8.688-6.93 12.594-4.68 3.906-9.7 5.859-15.04 5.859-3.13 0-5.76-.812-7.91-2.437-2.02-1.761-3.03-3.974-3.03-6.641 0-4.489 2.34-8.687 7.03-12.594 4.56-3.906 9.54-5.859 14.94-5.859M2688.97 615.467c3.12 0 5.76.812 7.92 2.437 2.01 1.761 3.02 3.974 3.02 6.641 0 4.49-2.31 8.688-6.93 12.594-4.68 3.906-9.7 5.859-15.04 5.859-3.13 0-5.76-.812-7.91-2.437-2.02-1.761-3.03-3.974-3.03-6.641 0-4.489 2.34-8.687 7.03-12.594 4.56-3.906 9.54-5.859 14.94-5.859M426.889 277.967c3.125 0 5.765.812 7.922 2.437 2.01 1.761 3.015 3.974 3.015 6.641 0 4.489-2.307 8.687-6.922 12.594-4.687 3.906-9.703 5.859-15.047 5.859-3.125 0-5.76-.812-7.906-2.437-2.021-1.761-3.031-3.974-3.031-6.641 0-4.49 2.344-8.688 7.031-12.594 4.563-3.906 9.542-5.859 14.938-5.859M511.11 290.467c3.125 0 5.766.812 7.922 2.437 2.011 1.761 3.016 3.974 3.016 6.641 0 4.489-2.307 8.687-6.922 12.594-4.688 3.906-9.703 5.859-15.047 5.859-3.125 0-5.76-.812-7.906-2.437-2.021-1.761-3.031-3.974-3.031-6.641 0-4.49 2.343-8.688 7.031-12.594 4.562-3.906 9.541-5.859 14.937-5.859M679.554 302.967c3.125 0 5.765.812 7.921 2.437 2.011 1.761 3.016 3.974 3.016 6.641 0 4.489-2.307 8.687-6.922 12.594-4.687 3.906-9.703 5.859-15.047 5.859-3.125 0-5.76-.812-7.906-2.437-2.021-1.761-3.031-3.974-3.031-6.641 0-4.49 2.344-8.688 7.031-12.594 4.563-3.906 9.542-5.859 14.938-5.859M763.775 302.967c3.125 0 5.766.812 7.922 2.437 2.011 1.761 3.016 3.974 3.016 6.641 0 4.489-2.308 8.687-6.922 12.594-4.688 3.906-9.703 5.859-15.047 5.859-3.125 0-5.76-.812-7.906-2.437-2.021-1.761-3.032-3.974-3.032-6.641 0-4.49 2.344-8.688 7.032-12.594 4.562-3.906 9.541-5.859 14.937-5.859M898.53 327.967c3.125 0 5.765.812 7.922 2.437 2.01 1.761 3.015 3.974 3.015 6.641 0 4.489-2.307 8.687-6.922 12.594-4.687 3.906-9.703 5.859-15.046 5.859-3.125 0-5.761-.812-7.907-2.437-2.02-1.761-3.031-3.974-3.031-6.641 0-4.49 2.344-8.688 7.031-12.594 4.563-3.906 9.542-5.859 14.938-5.859M1033.28 340.467c3.13 0 5.77.812 7.93 2.437 2.01 1.761 3.01 3.974 3.01 6.641 0 4.49-2.31 8.687-6.92 12.594-4.69 3.906-9.7 5.859-15.05 5.859-3.12 0-5.76-.812-7.9-2.437-2.02-1.761-3.03-3.974-3.03-6.641 0-4.49 2.34-8.688 7.03-12.594 4.56-3.906 9.54-5.859 14.93-5.859M1168.04 265.467c3.12 0 5.76.812 7.92 2.437 2.01 1.761 3.02 3.974 3.02 6.641 0 4.489-2.31 8.687-6.93 12.594-4.68 3.906-9.7 5.859-15.04 5.859-3.13 0-5.76-.813-7.91-2.438-2.02-1.76-3.03-3.973-3.03-6.64 0-4.49 2.34-8.688 7.03-12.594 4.56-3.906 9.54-5.859 14.94-5.859M1302.79 277.967c3.13 0 5.77.812 7.93 2.437 2.01 1.761 3.01 3.974 3.01 6.641 0 4.489-2.31 8.687-6.92 12.594-4.69 3.906-9.7 5.859-15.05 5.859-3.12 0-5.76-.812-7.9-2.437-2.02-1.761-3.04-3.974-3.04-6.641 0-4.49 2.35-8.688 7.04-12.594 4.56-3.906 9.54-5.859 14.93-5.859M1437.55 315.467c3.12 0 5.76.812 7.92 2.437 2.01 1.761 3.02 3.974 3.02 6.641 0 4.489-2.31 8.687-6.93 12.594-4.68 3.906-9.7 5.859-15.04 5.859-3.13 0-5.76-.812-7.91-2.437-2.02-1.761-3.03-3.974-3.03-6.641 0-4.49 2.34-8.688 7.03-12.594 4.56-3.906 9.54-5.859 14.94-5.859M1610.8 315.467c3.13 0 5.77.812 7.92 2.437 2.02 1.761 3.02 3.974 3.02 6.641 0 4.489-2.31 8.687-6.92 12.594-4.69 3.906-9.7 5.859-15.05 5.859-3.12 0-5.76-.812-7.9-2.437-2.03-1.761-3.04-3.974-3.04-6.641 0-4.49 2.35-8.688 7.04-12.594 4.56-3.906 9.54-5.859 14.93-5.859M1752.77 340.467c3.13 0 5.77.812 7.92 2.437 2.01 1.761 3.02 3.974 3.02 6.641 0 4.49-2.31 8.687-6.92 12.594-4.69 3.906-9.71 5.859-15.05 5.859-3.12 0-5.76-.812-7.91-2.437-2.02-1.761-3.03-3.974-3.03-6.641 0-4.49 2.35-8.688 7.03-12.594 4.57-3.906 9.55-5.859 14.94-5.859M1841.5 327.967c3.13 0 5.77.812 7.92 2.437 2.02 1.761 3.02 3.974 3.02 6.641 0 4.489-2.31 8.687-6.92 12.594-4.69 3.906-9.7 5.859-15.05 5.859-3.12 0-5.76-.812-7.9-2.437-2.03-1.761-3.04-3.974-3.04-6.641 0-4.49 2.35-8.688 7.04-12.594 4.56-3.906 9.54-5.859 14.93-5.859M1930.23 302.967c3.13 0 5.77.812 7.93 2.437 2.01 1.761 3.01 3.974 3.01 6.641 0 4.489-2.31 8.687-6.92 12.594-4.69 3.906-9.7 5.859-15.05 5.859-3.12 0-5.76-.812-7.9-2.437-2.02-1.761-3.04-3.974-3.04-6.641 0-4.49 2.35-8.688 7.04-12.594 4.56-3.906 9.54-5.859 14.93-5.859M2018.96 290.467c3.13 0 5.77.812 7.93 2.437 2.01 1.761 3.01 3.974 3.01 6.641 0 4.489-2.31 8.687-6.92 12.594-4.69 3.906-9.7 5.859-15.05 5.859-3.12 0-5.76-.812-7.9-2.437-2.02-1.761-3.03-3.974-3.03-6.641 0-4.49 2.34-8.688 7.03-12.594 4.56-3.906 9.54-5.859 14.93-5.859M2107.69 277.967c3.13 0 5.77.812 7.93 2.437 2.01 1.761 3.01 3.974 3.01 6.641 0 4.489-2.3 8.687-6.92 12.594-4.69 3.906-9.7 5.859-15.05 5.859-3.12 0-5.76-.812-7.9-2.437-2.02-1.761-3.03-3.974-3.03-6.641 0-4.49 2.34-8.688 7.03-12.594 4.56-3.906 9.54-5.859 14.93-5.859M2196.43 240.467c3.12 0 5.76.812 7.92 2.437 2.01 1.761 3.01 3.974 3.01 6.641 0 4.489-2.3 8.687-6.92 12.594-4.69 3.906-9.7 5.859-15.05 5.859-3.12 0-5.76-.813-7.9-2.438-2.02-1.76-3.03-3.973-3.03-6.64 0-4.49 2.34-8.688 7.03-12.594 4.56-3.906 9.54-5.859 14.94-5.859M2285.16 252.967c3.12 0 5.76.812 7.92 2.437 2.01 1.761 3.01 3.974 3.01 6.641 0 4.489-2.3 8.687-6.92 12.594-4.69 3.906-9.7 5.859-15.04 5.859-3.13 0-5.77-.813-7.91-2.438-2.02-1.76-3.03-3.973-3.03-6.64 0-4.49 2.34-8.688 7.03-12.594 4.56-3.906 9.54-5.859 14.94-5.859M2458.27 327.967c3.12 0 5.76.812 7.92 2.437 2.01 1.761 3.02 3.974 3.02 6.641 0 4.489-2.31 8.687-6.93 12.594-4.68 3.906-9.7 5.859-15.04 5.859-3.13 0-5.76-.812-7.91-2.437-2.02-1.761-3.03-3.974-3.03-6.641 0-4.49 2.34-8.688 7.03-12.594 4.56-3.906 9.54-5.859 14.94-5.859M2458.27 240.467c3.12 0 5.76.812 7.92 2.437 2.01 1.761 3.02 3.974 3.02 6.641 0 4.489-2.31 8.687-6.93 12.594-4.68 3.906-9.7 5.859-15.04 5.859-3.13 0-5.76-.813-7.91-2.438-2.02-1.76-3.03-3.973-3.03-6.64 0-4.49 2.34-8.688 7.03-12.594 4.56-3.906 9.54-5.859 14.94-5.859M2688.97 302.967c3.12 0 5.76.812 7.92 2.437 2.01 1.761 3.02 3.974 3.02 6.641 0 4.489-2.31 8.687-6.93 12.594-4.68 3.906-9.7 5.859-15.04 5.859-3.13 0-5.76-.812-7.91-2.437-2.02-1.761-3.03-3.974-3.03-6.641 0-4.49 2.34-8.688 7.03-12.594 4.56-3.906 9.54-5.859 14.94-5.859M2688.97 215.467c3.12 0 5.76.812 7.92 2.437 2.01 1.761 3.02 3.974 3.02 6.641 0 4.489-2.31 8.687-6.93 12.594-4.68 3.906-9.7 5.859-15.04 5.859-3.13 0-5.76-.813-7.91-2.438-2.02-1.76-3.03-3.973-3.03-6.64 0-4.49 2.34-8.688 7.03-12.594 4.56-3.906 9.54-5.859 14.94-5.859"/><path class="Clef" d="M276.639 595.342c-.974-.979-1.461-2.185-1.461-3.617 0-1.433.487-2.636 1.461-3.61.974-.974 2.177-1.461 3.609-1.461s2.638.487 3.617 1.461c.979.974 1.469 2.177 1.469 3.61 0 1.432-.49 2.638-1.469 3.617-.979.979-2.185 1.469-3.617 1.469s-2.635-.49-3.609-1.469m0 25.008c-.974-.974-1.461-2.177-1.461-3.61 0-1.432.487-2.638 1.461-3.617.974-.979 2.177-1.469 3.609-1.469s2.638.49 3.617 1.469c.979.979 1.469 2.185 1.469 3.617 0 1.433-.49 2.636-1.469 3.61-.979.974-2.185 1.461-3.617 1.461s-2.635-.487-3.609-1.461m-33.883-42.383c8.656 0 15.75 2.177 21.281 6.531 5.344 4.563 8.016 10.75 8.016 18.563 0 5.271-1.042 10.088-3.125 14.453-1.959 4.562-4.532 8.599-7.719 12.109-3.261 3.584-7.198 6.969-11.813 10.156a128.753 128.753 0 01-13.875 8.407c-9.698 4.875-15.036 7.312-16.015 7.312-.844 0-1.266-.422-1.266-1.265 0-.323.13-.615.391-.875 3.323-1.959 7.39-4.464 12.203-7.516 3.125-2.021 6.771-4.823 10.937-8.406 4.042-3.386 7.167-6.573 9.375-9.563 2.282-2.937 4.365-6.583 6.25-10.937 1.625-4.365 2.438-8.667 2.438-12.907 0-6.312-1.563-11.812-4.688-16.5-3.125-4.687-7.255-7.031-12.39-7.031-3.646 0-6.771 1.172-9.375 3.516-2.802 2.406-4.823 5.432-6.063 9.078 1.24-.521 2.38-.781 3.422-.781 2.729 0 5.073.979 7.031 2.937 1.948 2.084 2.922 4.459 2.922 7.125 0 2.802-.942 5.313-2.828 7.531-2.021 2.011-4.396 3.016-7.125 3.016-2.927 0-5.562-1.005-7.906-3.016-2.219-2.218-3.328-4.729-3.328-7.531 0-6.708 2.281-12.437 6.843-17.187 4.49-4.813 9.959-7.219 16.407-7.219M256.224 366.139h.594a2.93 2.93 0 01.672-.094c7.292 0 13.281 2.573 17.969 7.719 4.687 5.073 7.031 10.994 7.031 17.765 0 8.407-3.479 15.245-10.437 20.516-1.823 1.437-4.204 2.609-7.141 3.516.333 4.229.5 7.645.5 10.25 0 .52-.068 2.411-.203 5.671-.261 6.053-2.344 11.292-6.25 15.719-3.771 4.365-8.458 6.547-14.063 6.547-5.27 0-9.76-1.854-13.468-5.562-3.719-3.782-5.579-8.339-5.579-13.672 0-2.802 1.079-5.183 3.235-7.141 2.208-1.948 4.776-2.922 7.703-2.922 2.604 0 4.786 1.011 6.547 3.031 1.823 1.886 2.734 4.23 2.734 7.032 0 2.531-.911 4.708-2.734 6.531-1.823 1.823-4.005 2.734-6.547 2.734a8.075 8.075 0 01-3.016-.578c2.865 4.229 6.672 6.344 11.422 6.344 4.49 0 8.167-1.823 11.031-5.469 3-3.771 4.631-8.166 4.891-13.187.125-3.125.188-4.912.188-5.36 0-3.646-.131-6.64-.391-8.984-3.25.521-6.146.781-8.688.781-9.052 0-16.765-3.583-23.14-10.75-6.25-7.229-9.375-15.823-9.375-25.781 0-2.083.193-4.198.578-6.344.396-1.76.885-3.682 1.469-5.765.323-1.178 1.203-3.068 2.64-5.672a43.319 43.319 0 001.758-2.93c.651-1.172 1.107-1.951 1.367-2.336.646-1.302 1.912-3.062 3.797-5.281a38.885 38.885 0 001.617-1.945c.558-.714 1.032-1.3 1.422-1.758.391-.459.683-.818.875-1.078.193-.261 1.659-1.985 4.399-5.172a34.167 34.167 0 001.898-2.102 51.62 51.62 0 011.516-1.758c.39-.427.685-.734.883-.922-2.344-7.75-3.813-13.937-4.407-18.562-.448-3.708-.672-8.787-.672-15.234 0-5.667 1.303-10.974 3.907-15.922 2.531-5.136 6.078-9.334 10.64-12.594.261-.198.584-.297.969-.297.458 0 .787.099.984.297 3.511 4.229 6.537 9.729 9.079 16.5 2.604 6.771 3.906 12.927 3.906 18.469 0 6.25-1.495 12.109-4.485 17.578-3.385 5.791-7.75 11.781-13.093 17.969 1.364 4.291 3.187 11.026 5.468 20.203m8.297 45.422c3.386-1.24 6.026-3.355 7.922-6.344 2.084-2.865 3.125-6.089 3.125-9.672 0-4.625-1.562-8.729-4.687-12.313-3.198-3.708-7.271-5.791-12.219-6.25 2.802 13.74 4.755 25.266 5.859 34.579m-37.781-22.563c0 6.448 2.604 12.115 7.813 17 5.333 4.75 11.323 7.125 17.968 7.125 2.73 0 5.396-.198 8-.594-1.041-9.896-3.093-21.744-6.156-35.547-3.708.396-6.667 1.698-8.875 3.907-2.156 2.281-3.234 4.854-3.234 7.718 0 4.948 2.64 8.954 7.922 12.016.448.458.671.948.671 1.469 0 .521-.223 1.005-.671 1.453-.396.458-.886.687-1.469.687-.063 0-.354-.062-.875-.187-3.719-2.021-6.583-4.625-8.594-7.813-1.896-3.395-2.844-6.817-2.844-10.265 0-4.49 1.401-8.557 4.203-12.203 2.928-3.646 6.735-5.99 11.422-7.032-1.823-7.291-3.317-12.989-4.484-17.093a5844.243 5844.243 0 00-3.758 4.25c-1.463 1.656-2.325 2.651-2.586 2.984-2.344 3.052-4.135 5.427-5.375 7.125-2.219 3.063-3.849 5.698-4.89 7.906-1.105 2.479-2.079 5.183-2.922 8.11-.844 2.802-1.266 5.797-1.266 8.984m32.609-99.312c-4.885 2.406-8.723 5.854-11.515 10.343-2.865 4.625-4.297 9.604-4.297 14.938 0 4.687 1.172 11.005 3.516 18.953 4.687-5.667 8.203-10.906 10.546-15.719 2.469-5.083 3.704-10.39 3.704-15.922 0-4.166-.651-8.364-1.954-12.593"/><path class="KeySig" d="M315.342 650.123v7.719c0 2.74.13 4.922.39 6.547 2.146-1.823 3.677-3.188 4.594-4.094 1.042-1.042 2.083-2.476 3.125-4.305 1.042-1.828 1.563-3.653 1.563-5.476s-.391-3.386-1.172-4.688c-.782-1.302-1.823-1.953-3.125-1.953-1.563 0-2.865.589-3.907 1.766-.979 1.302-1.468 2.797-1.468 4.484m-4.11 17.875l-1.265-59.469c.916-.52 1.83-.781 2.742-.781.911 0 1.82.261 2.726.781l-.781 34.469c2.667-2.281 5.729-3.422 9.188-3.422 2.531 0 4.643 1.042 6.336 3.125 1.692 2.084 2.539 4.464 2.539 7.141 0 1.687-.552 3.479-1.657 5.375-1.041 1.75-2.145 3.115-3.312 4.094-.656.521-2.318 1.823-4.984 3.906-.782.583-1.709 1.266-2.782 2.047a172.54 172.54 0 00-2 1.469c-.458.26-.885.781-1.281 1.562a7.004 7.004 0 01-1.562 1.656c-.448.396-.998.594-1.649.594s-1.174-.229-1.57-.687c-.458-.459-.688-1.079-.688-1.86M315.342 362.623v7.719c0 2.739.13 4.922.39 6.547 2.146-1.823 3.677-3.188 4.594-4.094 1.042-1.042 2.083-2.477 3.125-4.305 1.042-1.828 1.563-3.653 1.563-5.476s-.391-3.386-1.172-4.688c-.782-1.302-1.823-1.953-3.125-1.953-1.563 0-2.865.589-3.907 1.766-.979 1.302-1.468 2.797-1.468 4.484m-4.11 17.875l-1.265-59.469c.916-.521 1.83-.781 2.742-.781.911 0 1.82.26 2.726.781l-.781 34.469c2.667-2.281 5.729-3.422 9.188-3.422 2.531 0 4.643 1.042 6.336 3.125 1.692 2.084 2.539 4.464 2.539 7.141 0 1.687-.552 3.479-1.657 5.375-1.041 1.75-2.145 3.114-3.312 4.094-.656.52-2.318 1.822-4.984 3.906-.782.583-1.709 1.265-2.782 2.047a192.572 192.572 0 00-2 1.468c-.458.261-.885.782-1.281 1.563a7.004 7.004 0 01-1.562 1.656c-.448.396-.998.594-1.649.594s-1.174-.229-1.57-.688c-.458-.458-.688-1.078-.688-1.859"/><path class="Rest" d="M2532.06 608.717c1.89 0 3.32.521 4.3 1.562.98 1.178 1.5 2.287 1.56 3.329.14.979.46 2.083.98 3.312.59 1.042 1.33 1.563 2.24 1.563.72 0 1.8-.813 3.23-2.438 1.31-1.427 2.25-2.698 2.83-3.812.32-.646.78-.969 1.36-.969h.11c.65.062 1.1.385 1.36.969l-12.3 42c-.65.656-1.57.984-2.74.984-1.17 0-2.08-.328-2.73-.984l11.72-32.625c-4.16 1.5-7.68 2.25-10.54 2.25-2.35 0-4.37-.75-6.07-2.25-1.76-1.427-2.64-3.313-2.64-5.657 0-2.02.72-3.713 2.16-5.078 1.43-1.437 3.15-2.156 5.17-2.156M2532.06 346.217c1.89 0 3.32.521 4.3 1.562.98 1.177 1.5 2.287 1.56 3.328.14.98.46 2.084.98 3.313.59 1.042 1.33 1.562 2.24 1.562.72 0 1.8-.812 3.23-2.437 1.31-1.427 2.25-2.698 2.83-3.813.32-.645.78-.968 1.36-.968h.11c.65.062 1.1.385 1.36.968l-12.3 42c-.65.657-1.57.985-2.74.985-1.17 0-2.08-.328-2.73-.985l11.72-32.625c-4.16 1.5-7.68 2.25-10.54 2.25-2.35 0-4.37-.75-6.07-2.25-1.76-1.427-2.64-3.312-2.64-5.656 0-2.021.72-3.713 2.16-5.078 1.43-1.437 3.15-2.156 5.17-2.156"/><path class="Articulation" d="M2276.14 745.252c-.97-.979-1.46-2.151-1.46-3.515 0-1.365.49-2.537 1.46-3.516.98-.979 2.16-1.469 3.52-1.469 1.36 0 2.54.49 3.52 1.469.98.979 1.46 2.151 1.46 3.516 0 1.364-.48 2.536-1.46 3.515-.98.979-2.16 1.469-3.52 1.469-1.36 0-2.54-.49-3.52-1.469M2679.96 745.252c-.98-.979-1.47-2.151-1.47-3.515 0-1.365.49-2.537 1.47-3.516.98-.979 2.15-1.469 3.51-1.469 1.37 0 2.54.49 3.52 1.469.98.979 1.47 2.151 1.47 3.516 0 1.364-.49 2.536-1.47 3.515-.98.979-2.15 1.469-3.52 1.469-1.36 0-2.53-.49-3.51-1.469M2276.14 245.244c-.97-.979-1.46-2.151-1.46-3.516 0-1.364.49-2.536 1.46-3.515.98-.979 2.16-1.469 3.52-1.469 1.36 0 2.54.49 3.52 1.469.98.979 1.46 2.151 1.46 3.515 0 1.365-.48 2.537-1.46 3.516-.98.979-2.16 1.469-3.52 1.469-1.36 0-2.54-.49-3.52-1.469M2679.96 207.744c-.98-.979-1.47-2.151-1.47-3.516 0-1.364.49-2.536 1.47-3.515.98-.979 2.15-1.469 3.51-1.469 1.37 0 2.54.49 3.52 1.469.98.979 1.47 2.151 1.47 3.515 0 1.365-.49 2.537-1.47 3.516-.98.979-2.15 1.469-3.52 1.469-1.36 0-2.53-.49-3.51-1.469"/><path class="Beam" fill-rule="evenodd" d="M434.584 554.233h474.891v12.5H434.584v-12.5M1040.98 572.983h407.51v12.5h-407.51v-12.5M1618.5 554.233h500.14v12.5H1618.5v-12.5M2292.85 547.983h176.36v12.5h-176.36v-12.5M2469.21 566.733h-33v12.5h33v-12.5M404.92 379.202l255.915 25.322v12.561L404.92 391.763v-12.561M404.92 360.452l33 3.265v12.561l-33-3.265v-12.561M660.835 385.773l-33-3.265v12.561l33 3.266v-12.562M741.806 385.376l138.005 25.603v12.713l-138.005-25.603v-12.713M1011.32 416.729l407.51-12.6v12.506l-407.51 12.6v-12.506M1588.83 429.232h233.95v12.5h-233.95v-12.5M1730.8 410.482h91.98v12.5h-91.98v-12.5M1908.26 385.44l269.45-31.632v12.586l-269.45 31.631V385.44M1908.26 366.69l269.45-31.632v12.586l-269.45 31.631V366.69M2263.19 385.418l176.36 25.469v12.63l-176.36-25.47v-12.629M2439.55 392.137l-33-4.766v12.63l33 4.766v-12.63"/><path class="Hook" d="M2696.66 576.108v-25h3.13c0 3.708.72 7.421 2.15 11.14 1.57 4.031 3.29 7.547 5.18 10.547 1.36 2.146 3.41 5.432 6.15 9.859a64.98 64.98 0 015.28 10.641c1.43 3.708 2.14 7.422 2.14 11.141 0 6.77-1.4 13.672-4.2 20.703-.52.781-1.14 1.172-1.86 1.172-.64 0-1.23-.261-1.75-.782a2.012 2.012 0 01-.59-1.468v-.485c2.8-6.448 4.2-12.828 4.2-19.14 0-3.261-.98-6.776-2.94-10.547-1.94-3.844-3.93-6.906-5.95-9.188a208.946 208.946 0 00-7.81-8.593h-3.13M2689.75 331.873c1.5 0 3.1 2.438 4.8 7.313 1.62 4.822 2.43 9.416 2.43 13.781 0 3.708-.91 7.385-2.73 11.031-1.89 3.906-4.13 7.292-6.74 10.156l-8.01 8.985c-2.47 2.864-4.68 6.182-6.64 9.953-1.82 3.646-2.74 7.359-2.74 11.14H2667v-25h3.12c1.76-1.104 4.37-2.864 7.82-5.281 1.56-1.166 3.9-3.12 7.03-5.859 2.54-2.344 4.46-4.75 5.76-7.219 1.37-2.604 2.05-5.24 2.05-7.906 0-6.188-1.79-12.344-5.37-18.469v-.391c0-.583.19-1.067.59-1.453.52-.521 1.1-.781 1.75-.781"/><path class="NoteDot" d="M2306.52 720.74c-1.11-1.109-1.67-2.445-1.67-4.007 0-1.563.56-2.899 1.67-4.008 1.11-1.11 2.44-1.664 4-1.664 1.57 0 2.9.554 4 1.664 1.11 1.109 1.66 2.445 1.66 4.008 0 1.562-.55 2.898-1.66 4.007-1.1 1.11-2.43 1.665-4 1.665-1.56 0-2.89-.555-4-1.665M2306.52 620.74c-1.11-1.109-1.67-2.445-1.67-4.007 0-1.563.56-2.899 1.67-4.008 1.11-1.11 2.44-1.664 4-1.664 1.57 0 2.9.554 4 1.664 1.11 1.109 1.66 2.445 1.66 4.008 0 1.562-.55 2.898-1.66 4.007-1.1 1.11-2.43 1.664-4 1.664-1.56 0-2.89-.554-4-1.664M2306.52 258.24c-1.11-1.109-1.67-2.445-1.67-4.008 0-1.562.56-2.898 1.67-4.007 1.11-1.11 2.44-1.665 4-1.665 1.57 0 2.9.555 4 1.665 1.11 1.109 1.66 2.445 1.66 4.007 0 1.563-.55 2.899-1.66 4.008-1.1 1.11-2.43 1.664-4 1.664-1.56 0-2.89-.554-4-1.664"/><path class="Page" d="M151.375 3979.93c2.417 1.78 4.065 3.27 4.945 4.48.881 1.21 1.321 2.58 1.321 4.13 0 2.07-.719 3.73-2.157 4.96-1.437 1.24-3.364 1.86-5.781 1.86-2.292 0-4.156-.62-5.594-1.86-1.437-1.23-2.156-2.83-2.156-4.79 0-1.37.331-2.51.992-3.42.662-.92 2.091-2.19 4.289-3.8-2.135-1.83-3.507-3.2-4.117-4.11-.609-.91-.914-2.01-.914-3.31 0-1.84.724-3.36 2.172-4.57 1.448-1.2 3.276-1.81 5.484-1.81 1.99 0 3.631.54 4.922 1.62 1.292 1.08 1.938 2.45 1.938 4.12 0 1.35-.399 2.51-1.196 3.47-.796.95-2.179 1.96-4.148 3.03m-3.109 2.36c-1.167.92-1.99 1.85-2.469 2.79-.479.93-.719 2.03-.719 3.3 0 1.73.464 3.12 1.391 4.19.927 1.06 2.151 1.59 3.672 1.59 1.302 0 2.356-.41 3.164-1.22.807-.81 1.211-1.87 1.211-3.17 0-.42-.047-.81-.141-1.19-.094-.37-.187-.7-.281-.97-.094-.28-.279-.59-.555-.94s-.5-.62-.672-.82c-.172-.2-.484-.49-.937-.86-.453-.38-.792-.64-1.016-.8-.224-.15-.648-.46-1.273-.91-.625-.45-1.084-.79-1.375-.99m1.953-3.08c.021-.02.198-.15.531-.38s.573-.41.719-.54c.146-.13.372-.33.679-.61.308-.28.54-.55.696-.8.156-.25.333-.55.531-.91s.344-.76.438-1.2c.093-.44.14-.9.14-1.37 0-1.39-.398-2.49-1.195-3.3-.797-.81-1.873-1.22-3.227-1.22-1.239 0-2.265.37-3.078 1.12-.812.74-1.219 1.69-1.219 2.83 0 1.12.386 2.17 1.157 3.15.77.99 2.047 2.06 3.828 3.23"/><path class="Bracket" fill-rule="evenodd" d="M183.775 445.701c0-29.204-20.114-57.592-20.114-85.571 0-14.091 5.486-27.774 22.4-40.028.228-.153.343-.408.343-.562 0-.459-1.257-.867-2.172-.867-.457 0-1.257.051-1.828.408-21.943 15.725-29.257 33.901-29.257 52.282 0 29.612 21.485 58.204 21.485 86.591 0 14.092-5.485 27.367-22.4 39.62v.817c16.915 12.253 22.4 25.528 22.4 39.62 0 28.387-21.485 56.979-21.485 86.591 0 18.381 7.314 36.557 29.257 52.282.571.357 1.371.408 1.828.408.915 0 2.172-.408 2.172-.867 0-.154-.115-.409-.343-.562-16.914-12.254-22.4-25.937-22.4-40.028 0-27.979 20.114-56.367 20.114-85.571 0-18.584-7.314-36.352-28.8-52.281 21.486-15.93 28.8-33.698 28.8-52.282"/></svg>
