<svg width="2977.23" height="4208.47" xmlns="http://www.w3.org/2000/svg" version="1.2" baseProfile="tiny"><path fill="#fff" fill-rule="evenodd" d="M0 0h2977.23v4208.47H0V0"/><path class="StaffLines" fill="none" stroke="#000" stroke-width="2" stroke-linejoin="bevel" d="M194.233 316.743H2835.5M194.233 341.745H2835.5M194.233 366.747H2835.5M194.233 391.748H2835.5M194.233 416.75H2835.5M194.233 579.26H2835.5M194.233 604.261H2835.5M194.233 629.263H2835.5M194.233 654.265H2835.5M194.233 679.266H2835.5"/><path class="MeasureNumber" d="M166.967 247.693a22.87 22.87 0 01.406-1.601c.136-.453.422-1.112.86-1.977.437-.864.929-1.583 1.476-2.156.547-.573 1.307-1.086 2.281-1.539.974-.453 2.076-.68 3.305-.68 2.063 0 3.805.68 5.227 2.039 1.421 1.36 2.132 3.034 2.132 5.024 0 3.031-1.703 6.343-5.109 9.937l-6.687 7.078h9.515c.906 0 1.578-.153 2.016-.461.437-.307 1.031-1.039 1.781-2.195l.516.203-2.188 5.375h-15.562v-.469l7.109-7.546c3.469-3.677 5.203-7.141 5.203-10.391 0-1.688-.521-3.055-1.562-4.102-1.042-1.046-2.401-1.57-4.078-1.57-1.386 0-2.498.383-3.336 1.149-.839.765-1.659 2.127-2.461 4.085l-.844-.203m21.984 15.844c.615 0 1.529.375 2.742 1.125 1.214.75 2.274 1.125 3.18 1.125 1.469 0 2.708-.57 3.719-1.711 1.01-1.14 1.516-2.544 1.516-4.211 0-1.041-.149-1.958-.446-2.75-.297-.791-.708-1.406-1.234-1.844-.526-.437-1.177-.794-1.953-1.07a10.283 10.283 0 00-2.18-.539 17.875 17.875 0 00-2.172-.125v-.516a25.781 25.781 0 002.336-.945 13.355 13.355 0 002.055-1.234 5.294 5.294 0 001.656-1.899c.385-.75.578-1.604.578-2.562 0-1.25-.406-2.276-1.219-3.078-.812-.802-1.869-1.203-3.171-1.203-1.25 0-2.349.341-3.297 1.023-.948.682-1.839 1.758-2.672 3.227l-.594-.172c.698-1.886 1.638-3.435 2.82-4.649 1.183-1.213 2.868-1.82 5.055-1.82 1.844 0 3.339.505 4.484 1.516 1.146 1.01 1.719 2.328 1.719 3.953 0 1.093-.279 2.054-.836 2.883-.557.828-1.534 1.71-2.929 2.648 1.604.687 2.859 1.568 3.765 2.641.906 1.073 1.36 2.609 1.36 4.609 0 2.833-1.086 5.099-3.258 6.797-2.172 1.698-4.847 2.547-8.024 2.547-1.385 0-2.484-.211-3.297-.633-.812-.422-1.218-.987-1.218-1.695 0-.438.14-.787.422-1.047.281-.261.645-.391 1.093-.391m24.063-20.516c-.479 0-1.438.292-2.875.875v-.546l7.172-3.641.312.078v24c0 .958.24 1.583.719 1.875.479.292 1.505.453 3.078.484v.594h-11v-.594c1.49-.062 2.495-.286 3.016-.671.52-.386.781-1.204.781-2.454v-18.125c0-1.25-.401-1.875-1.203-1.875"/><path class="TieSegment" stroke="#000" stroke-width="1.75" stroke-linecap="round" stroke-linejoin="round" fill-rule="evenodd" d="M1356.75 798.024c30.28 21.017 121.14 21.017 151.43 0-30.29 25.018-121.15 25.018-151.43 0M1356.75 673.016c30.28-25.018 121.14-25.018 151.43 0-30.29-21.018-121.15-21.018-151.43 0"/><path class="BarLine" stroke="#000" stroke-width="4" stroke-linejoin="bevel" d="M196.233 578.26v102.006M920.07 578.26v102.006M1241.79 578.26v102.006M1454.34 578.26v102.006M2406.03 578.26v102.006M2610.35 578.26v102.006M2811 578.26v102.006"/><path class="BarLine" stroke="#000" stroke-width="12.5" stroke-linejoin="bevel" d="M2829.25 578.26v102.006"/><path class="BarLine" stroke="#000" stroke-width="4" stroke-linejoin="bevel" d="M196.233 315.743V579.26M920.07 315.743V579.26M1241.79 315.743V579.26M1454.34 315.743V579.26M2406.03 315.743V579.26M2610.35 315.743V579.26M2811 315.743V579.26"/><path class="BarLine" stroke="#000" stroke-width="12.5" stroke-linejoin="bevel" d="M2829.25 315.743V579.26"/><path class="LedgerLine" stroke="#000" stroke-width="4" stroke-linejoin="bevel" d="M522.284 754.271h68.52M522.284 729.269h68.52M522.284 704.268h68.52M947.071 729.269h68.519M947.071 704.268h68.519M1315.06 779.273h68.52M1315.06 754.271h68.52M1315.06 729.269h68.52M1315.06 704.268h68.52M1481.35 779.273h68.52M1481.35 754.271h68.52M1481.35 729.269h68.52M1481.35 704.268h68.52M2433.03 779.273h68.52M2433.03 754.271h68.52M2433.03 729.269h68.52M2433.03 704.268h68.52M2637.36 779.273h68.52M2637.36 754.271h68.52M2637.36 729.269h68.52M2637.36 704.268h68.52M529.683 291.742h53.722M955.373 441.751h51.917M1315.06 441.751h68.52M1268.79 441.751h68.52M1489.65 441.751h51.91M1550.49 441.751h51.91M1854.68 291.742h51.92M1915.52 291.742h51.92M1915.52 266.74h51.92M1976.36 291.742h51.92M1976.36 266.74h51.92M1976.36 241.739h51.92M2037.2 291.742h51.92M2098.04 291.742h51.92M2098.04 266.74h51.92M2158.88 291.742h51.92M2158.88 266.74h51.92M2158.88 241.739h51.92"/><path class="Stem" stroke="#000" stroke-width="3.25" stroke-linejoin="bevel" d="M540.809 283.161v142.964M730.269 424.555v-76.56M791.127 412.054v-70.309M851.986 399.553v-82.81M996.164 437.056V307.368M1064.89 399.553v-82.81M1133.62 412.054v-82.81M1202.35 399.553v-82.81M1530.44 449.556V322.994M1591.28 437.056v-124.48M1652.12 399.553v-97.394M1712.96 362.051v-70.309M1744.13 358.941v76.56M1804.97 321.439v99.478M1865.81 283.937v122.395M1926.65 271.436v120.312M1987.49 233.934v126.562M2048.33 283.937v76.559M2109.17 271.436v89.06M2170.01 233.934v126.562M2271.81 308.938v82.81"/><path class="Note" d="M1341.65 784.741c2.87 3.844 6.54 5.766 11.03 5.766 4.49 0 6.74-3.026 6.74-9.078 0-2.875-.81-5.417-2.44-7.625-2.8-3.844-6.58-5.766-11.33-5.766-2.08 0-3.68.862-4.78 2.586-1.1 1.724-1.66 3.956-1.66 6.695 0 2.74.82 5.214 2.44 7.422m-9.67-15.234c4.89-2.667 10.76-4 17.63-4 6.87 0 12.67 1.367 17.39 4.101 4.71 2.735 7.07 5.99 7.07 9.766s-2.44 6.997-7.32 9.664c-4.89 2.667-10.73 4-17.54 4-6.8 0-12.61-1.367-17.43-4.101-4.81-2.735-7.22-6.021-7.22-9.86 0-3.838 2.47-7.028 7.42-9.57M1507.94 784.741c2.86 3.844 6.54 5.766 11.03 5.766 4.49 0 6.74-3.026 6.74-9.078 0-2.875-.82-5.417-2.44-7.625-2.8-3.844-6.58-5.766-11.33-5.766-2.08 0-3.68.862-4.78 2.586-1.11 1.724-1.66 3.956-1.66 6.695 0 2.74.82 5.214 2.44 7.422m-9.67-15.234c4.88-2.667 10.76-4 17.63-4 6.87 0 12.67 1.367 17.38 4.101 4.72 2.735 7.08 5.99 7.08 9.766s-2.44 6.997-7.33 9.664c-4.88 2.667-10.73 4-17.53 4-6.8 0-12.61-1.367-17.43-4.101-4.81-2.735-7.22-6.021-7.22-9.86 0-3.838 2.47-7.028 7.42-9.57M1341.65 697.236c2.87 3.844 6.54 5.765 11.03 5.765 4.49 0 6.74-3.026 6.74-9.078 0-2.875-.81-5.416-2.44-7.625-2.8-3.843-6.58-5.765-11.33-5.765-2.08 0-3.68.862-4.78 2.586-1.1 1.724-1.66 3.955-1.66 6.695 0 2.739.82 5.213 2.44 7.422m-9.67-15.235c4.89-2.666 10.76-4 17.63-4 6.87 0 12.67 1.368 17.39 4.102 4.71 2.734 7.07 5.99 7.07 9.766s-2.44 6.997-7.32 9.664c-4.89 2.666-10.73 4-17.54 4-6.8 0-12.61-1.368-17.43-4.102-4.81-2.734-7.22-6.021-7.22-9.859 0-3.839 2.47-7.029 7.42-9.571M1507.94 697.236c2.86 3.844 6.54 5.765 11.03 5.765 4.49 0 6.74-3.026 6.74-9.078 0-2.875-.82-5.416-2.44-7.625-2.8-3.843-6.58-5.765-11.33-5.765-2.08 0-3.68.862-4.78 2.586-1.11 1.724-1.66 3.955-1.66 6.695 0 2.739.82 5.213 2.44 7.422m-9.67-15.235c4.88-2.666 10.76-4 17.63-4 6.87 0 12.67 1.368 17.38 4.102 4.72 2.734 7.08 5.99 7.08 9.766s-2.44 6.997-7.33 9.664c-4.88 2.666-10.73 4-17.53 4-6.8 0-12.61-1.368-17.43-4.102-4.81-2.734-7.22-6.021-7.22-9.859 0-3.839 2.47-7.029 7.42-9.571M548.879 772.24c2.864 3.844 6.541 5.766 11.031 5.766s6.734-3.026 6.734-9.078c0-2.875-.812-5.417-2.437-7.625-2.802-3.844-6.578-5.766-11.328-5.766-2.084 0-3.677.862-4.781 2.586-1.105 1.724-1.657 3.956-1.657 6.696 0 2.739.813 5.213 2.438 7.421m-9.672-15.234c4.885-2.667 10.763-4 17.633-4 6.87 0 12.664 1.367 17.383 4.102 4.718 2.734 7.078 5.989 7.078 9.765 0 3.776-2.443 6.998-7.328 9.664-4.886 2.667-10.73 4-17.532 4s-12.612-1.367-17.429-4.101c-4.818-2.735-7.227-6.021-7.227-9.86 0-3.838 2.474-7.028 7.422-9.57M973.666 734.738c2.864 3.844 6.541 5.766 11.031 5.766s6.734-3.026 6.734-9.078c0-2.875-.812-5.417-2.437-7.625-2.802-3.844-6.578-5.766-11.328-5.766-2.084 0-3.677.862-4.781 2.586-1.105 1.724-1.657 3.956-1.657 6.695 0 2.74.813 5.214 2.438 7.422m-9.672-15.234c4.885-2.667 10.763-4 17.633-4 6.869 0 12.664 1.367 17.383 4.101 4.72 2.735 7.08 5.99 7.08 9.766s-2.45 6.997-7.33 9.664c-4.886 2.667-10.73 4-17.532 4s-12.612-1.367-17.429-4.102c-4.818-2.734-7.227-6.02-7.227-9.859 0-3.838 2.474-7.029 7.422-9.57M1295.38 459.721c2.87 3.844 6.55 5.765 11.03 5.765 4.49 0 6.74-3.026 6.74-9.078 0-2.875-.81-5.416-2.44-7.625-2.8-3.843-6.58-5.765-11.33-5.765-2.08 0-3.67.862-4.78 2.586-1.1 1.724-1.65 3.955-1.65 6.695s.81 5.213 2.43 7.422m-9.67-15.235c4.89-2.666 10.76-4 17.63-4 6.87 0 12.67 1.368 17.39 4.102 4.72 2.734 7.08 5.99 7.08 9.766s-2.45 6.997-7.33 9.664c-4.89 2.666-10.73 4-17.53 4-6.81 0-12.62-1.368-17.43-4.102-4.82-2.734-7.23-6.021-7.23-9.859 0-3.839 2.47-7.029 7.42-9.571M2459.63 784.741c2.86 3.844 6.54 5.766 11.03 5.766 4.49 0 6.73-3.026 6.73-9.078 0-2.875-.81-5.417-2.44-7.625-2.8-3.844-6.57-5.766-11.32-5.766-2.09 0-3.68.862-4.79 2.586-1.1 1.724-1.65 3.956-1.65 6.695 0 2.74.81 5.214 2.44 7.422m-9.68-15.234c4.89-2.667 10.77-4 17.64-4 6.87 0 12.66 1.367 17.38 4.101 4.72 2.735 7.08 5.99 7.08 9.766s-2.45 6.997-7.33 9.664c-4.89 2.667-10.73 4-17.53 4-6.8 0-12.61-1.367-17.43-4.101-4.82-2.735-7.23-6.021-7.23-9.86 0-3.838 2.48-7.028 7.42-9.57M548.879 684.735c2.864 3.844 6.541 5.766 11.031 5.766s6.734-3.026 6.734-9.079c0-2.875-.812-5.416-2.437-7.625-2.802-3.843-6.578-5.765-11.328-5.765-2.084 0-3.677.862-4.781 2.586-1.105 1.724-1.657 3.956-1.657 6.695 0 2.74.813 5.214 2.438 7.422m-9.672-15.234c4.885-2.667 10.763-4 17.633-4 6.87 0 12.664 1.367 17.383 4.101 4.718 2.735 7.078 5.99 7.078 9.766s-2.443 6.997-7.328 9.664c-4.886 2.667-10.73 4-17.532 4s-12.612-1.367-17.429-4.102c-4.818-2.734-7.227-6.021-7.227-9.859 0-3.839 2.474-7.029 7.422-9.57M973.666 647.233c2.864 3.843 6.541 5.765 11.031 5.765s6.734-3.026 6.734-9.078c0-2.875-.812-5.417-2.437-7.625-2.802-3.844-6.578-5.766-11.328-5.766-2.084 0-3.677.862-4.781 2.586-1.105 1.724-1.657 3.956-1.657 6.696 0 2.739.813 5.213 2.438 7.422m-9.672-15.235c4.885-2.666 10.763-4 17.633-4 6.869 0 12.664 1.367 17.383 4.102 4.72 2.734 7.08 5.989 7.08 9.765 0 3.776-2.45 6.998-7.33 9.664-4.886 2.667-10.73 4-17.532 4s-12.612-1.367-17.429-4.101c-4.818-2.734-7.227-6.021-7.227-9.859 0-3.839 2.474-7.029 7.422-9.571M1341.65 447.22c2.87 3.844 6.54 5.766 11.03 5.766 4.49 0 6.74-3.026 6.74-9.078 0-2.875-.81-5.417-2.44-7.625-2.8-3.844-6.58-5.766-11.33-5.766-2.08 0-3.68.862-4.78 2.586-1.1 1.724-1.66 3.956-1.66 6.695 0 2.74.82 5.214 2.44 7.422m-9.67-15.234c4.89-2.667 10.76-4 17.63-4 6.87 0 12.67 1.367 17.39 4.101 4.71 2.735 7.07 5.99 7.07 9.766s-2.44 6.997-7.32 9.664c-4.89 2.667-10.73 4-17.54 4-6.8 0-12.61-1.367-17.43-4.102-4.81-2.734-7.22-6.021-7.22-9.859 0-3.839 2.47-7.029 7.42-9.57M2459.63 697.236c2.86 3.844 6.54 5.765 11.03 5.765 4.49 0 6.73-3.026 6.73-9.078 0-2.875-.81-5.416-2.44-7.625-2.8-3.843-6.57-5.765-11.32-5.765-2.09 0-3.68.862-4.79 2.586-1.1 1.724-1.65 3.955-1.65 6.695 0 2.739.81 5.213 2.44 7.422m-9.68-15.235c4.89-2.666 10.77-4 17.64-4 6.87 0 12.66 1.368 17.38 4.102 4.72 2.734 7.08 5.99 7.08 9.766s-2.45 6.997-7.33 9.664c-4.89 2.666-10.73 4-17.53 4-6.8 0-12.61-1.368-17.43-4.102s-7.23-6.021-7.23-9.859c0-3.839 2.48-7.029 7.42-9.571M2663.95 784.741c2.86 3.844 6.54 5.766 11.03 5.766 4.49 0 6.74-3.026 6.74-9.078 0-2.875-.82-5.417-2.44-7.625-2.8-3.844-6.58-5.766-11.33-5.766-2.08 0-3.68.862-4.78 2.586-1.11 1.724-1.66 3.956-1.66 6.695 0 2.74.82 5.214 2.44 7.422m-9.67-15.234c4.88-2.667 10.76-4 17.63-4 6.87 0 12.67 1.367 17.38 4.101 4.72 2.735 7.08 5.99 7.08 9.766s-2.44 6.997-7.33 9.664c-4.88 2.667-10.73 4-17.53 4-6.8 0-12.61-1.367-17.43-4.101-4.81-2.735-7.22-6.021-7.22-9.86 0-3.838 2.47-7.028 7.42-9.57M2663.95 697.236c2.86 3.844 6.54 5.765 11.03 5.765 4.49 0 6.74-3.026 6.74-9.078 0-2.875-.82-5.416-2.44-7.625-2.8-3.843-6.58-5.765-11.33-5.765-2.08 0-3.68.862-4.78 2.586-1.11 1.724-1.66 3.955-1.66 6.695 0 2.739.82 5.213 2.44 7.422m-9.67-15.235c4.88-2.666 10.76-4 17.63-4 6.87 0 12.67 1.368 17.38 4.102 4.72 2.734 7.08 5.99 7.08 9.766s-2.44 6.997-7.33 9.664c-4.88 2.666-10.73 4-17.53 4-6.8 0-12.61-1.368-17.43-4.102-4.81-2.734-7.22-6.021-7.22-9.859 0-3.839 2.47-7.029 7.42-9.571M546.606 352.386c1.885 0 5.841-1.954 11.867-5.86 6.026-3.906 9.576-6.526 10.648-7.859 1.073-1.333 1.61-2.521 1.61-3.563 0-1.041-.425-1.968-1.274-2.781-.849-.812-1.825-1.219-2.929-1.219-1.948 0-5.935 1.969-11.961 5.907-6.026 3.937-9.56 6.557-10.602 7.859-1.041 1.302-1.562 2.474-1.562 3.516 0 1.041.409 1.968 1.226 2.781.818.812 1.81 1.219 2.977 1.219m18.953-24.407c5.594 0 8.391 2.407 8.391 7.219 0 2.344-.683 5.063-2.047 8.156-1.365 3.094-3.188 5.453-5.469 7.078-5.01 3.386-11.292 5.079-18.844 5.079-5.604 0-8.406-2.407-8.406-7.219 0-2.146.667-4.815 2-8.008 1.333-3.193 3.172-5.602 5.516-7.227 5.02-3.385 11.307-5.078 18.859-5.078M546.606 314.883c1.885 0 5.841-1.953 11.867-5.859 6.026-3.906 9.576-6.526 10.648-7.86 1.073-1.333 1.61-2.52 1.61-3.562 0-1.042-.425-1.969-1.274-2.781-.849-.813-1.825-1.219-2.929-1.219-1.948 0-5.935 1.969-11.961 5.906-6.026 3.938-9.56 6.558-10.602 7.86-1.041 1.302-1.562 2.474-1.562 3.515 0 1.042.409 1.969 1.226 2.781.818.813 1.81 1.219 2.977 1.219m18.953-24.406c5.594 0 8.391 2.406 8.391 7.219 0 2.343-.683 5.062-2.047 8.156-1.365 3.094-3.188 5.453-5.469 7.078-5.01 3.386-11.292 5.078-18.844 5.078-5.604 0-8.406-2.406-8.406-7.219 0-2.145.667-4.815 2-8.007 1.333-3.193 3.172-5.602 5.516-7.227 5.02-3.385 11.307-5.078 18.859-5.078"/><path class="Note" d="M546.606 289.882c1.885 0 5.841-1.953 11.867-5.86 6.026-3.906 9.576-6.526 10.648-7.859 1.073-1.333 1.61-2.521 1.61-3.563 0-1.041-.425-1.968-1.274-2.781-.849-.812-1.825-1.219-2.929-1.219-1.948 0-5.935 1.969-11.961 5.907-6.026 3.937-9.56 6.557-10.602 7.859-1.041 1.302-1.562 2.474-1.562 3.516 0 1.041.409 1.968 1.226 2.781.818.812 1.81 1.219 2.977 1.219m18.953-24.407c5.594 0 8.391 2.407 8.391 7.219 0 2.344-.683 5.063-2.047 8.156-1.365 3.094-3.188 5.454-5.469 7.079-5.01 3.385-11.292 5.078-18.844 5.078-5.604 0-8.406-2.407-8.406-7.219 0-2.146.667-4.815 2-8.008 1.333-3.193 3.172-5.601 5.516-7.226 5.02-3.386 11.307-5.079 18.859-5.079M720.946 415.485c3.125 0 5.729.781 7.813 2.344 2.083 1.562 3.125 3.807 3.125 6.734 0 4.49-2.326 8.687-6.977 12.594-4.651 3.906-9.648 5.859-14.992 5.859-3.125 0-5.76-.812-7.906-2.437-2.021-1.761-3.031-3.974-3.031-6.641 0-4.365 2.312-8.531 6.937-12.5 4.625-3.969 9.635-5.953 15.031-5.953M781.805 402.984c3.125 0 5.729.781 7.813 2.344 2.083 1.562 3.125 3.807 3.125 6.734 0 4.49-2.326 8.688-6.977 12.594-4.651 3.906-9.648 5.859-14.992 5.859-3.125 0-5.76-.812-7.906-2.437-2.021-1.761-3.032-3.974-3.032-6.641 0-4.364 2.313-8.531 6.938-12.5 4.625-3.969 9.635-5.953 15.031-5.953M842.664 390.483c3.125 0 5.729.782 7.813 2.344 2.083 1.563 3.125 3.807 3.125 6.734 0 4.49-2.326 8.688-6.977 12.594-4.651 3.906-9.648 5.86-14.992 5.86-3.125 0-5.761-.813-7.906-2.438-2.021-1.76-3.032-3.974-3.032-6.641 0-4.364 2.313-8.531 6.938-12.5 4.625-3.968 9.635-5.953 15.031-5.953M986.842 427.986c3.125 0 5.729.781 7.813 2.343 2.083 1.563 3.125 3.808 3.125 6.735 0 4.489-2.326 8.687-6.977 12.594-4.651 3.906-9.648 5.859-14.992 5.859-3.125 0-5.761-.813-7.906-2.438-2.021-1.76-3.032-3.974-3.032-6.64 0-4.365 2.313-8.531 6.938-12.5 4.625-3.969 9.635-5.953 15.031-5.953"/><path class="Note" d="M986.842 402.984c3.125 0 5.729.781 7.813 2.344 2.083 1.562 3.125 3.807 3.125 6.734 0 4.49-2.326 8.688-6.977 12.594-4.651 3.906-9.648 5.859-14.992 5.859-3.125 0-5.761-.812-7.906-2.437-2.021-1.761-3.032-3.974-3.032-6.641 0-4.364 2.313-8.531 6.938-12.5 4.625-3.969 9.635-5.953 15.031-5.953"/><path class="Note" d="M986.842 377.982c3.125 0 5.729.782 7.813 2.344 2.083 1.563 3.125 3.808 3.125 6.735 0 4.489-2.326 8.687-6.977 12.593-4.651 3.907-9.648 5.86-14.992 5.86-3.125 0-5.761-.813-7.906-2.438-2.021-1.76-3.032-3.974-3.032-6.64 0-4.365 2.313-8.532 6.938-12.5 4.625-3.969 9.635-5.954 15.031-5.954M1055.57 390.483c3.13 0 5.73.782 7.81 2.344 2.09 1.563 3.13 3.807 3.13 6.734 0 4.49-2.33 8.688-6.98 12.594-4.65 3.906-9.65 5.86-14.99 5.86-3.13 0-5.76-.813-7.91-2.438-2.02-1.76-3.03-3.974-3.03-6.641 0-4.364 2.31-8.531 6.94-12.5 4.62-3.968 9.63-5.953 15.03-5.953M1124.3 402.984c3.12 0 5.73.781 7.81 2.344 2.08 1.562 3.13 3.807 3.13 6.734 0 4.49-2.33 8.688-6.98 12.594-4.65 3.906-9.65 5.859-14.99 5.859-3.13 0-5.76-.812-7.91-2.437-2.02-1.761-3.03-3.974-3.03-6.641 0-4.364 2.31-8.531 6.94-12.5 4.62-3.969 9.63-5.953 15.03-5.953M1193.03 390.483c3.12 0 5.73.782 7.81 2.344 2.08 1.563 3.13 3.807 3.13 6.734 0 4.49-2.33 8.688-6.98 12.594-4.65 3.906-9.65 5.86-14.99 5.86-3.13 0-5.76-.813-7.91-2.438-2.02-1.76-3.03-3.974-3.03-6.641 0-4.364 2.31-8.531 6.94-12.5 4.62-3.968 9.63-5.953 15.03-5.953M1341.65 409.718c2.87 3.843 6.54 5.765 11.03 5.765 4.49 0 6.74-3.026 6.74-9.078 0-2.875-.81-5.417-2.44-7.625-2.8-3.844-6.58-5.765-11.33-5.765-2.08 0-3.68.861-4.78 2.585s-1.66 3.956-1.66 6.696c0 2.739.82 5.213 2.44 7.422m-9.67-15.235c4.89-2.666 10.76-4 17.63-4 6.87 0 12.67 1.367 17.39 4.102 4.71 2.734 7.07 5.989 7.07 9.765 0 3.776-2.44 6.998-7.32 9.665-4.89 2.666-10.73 4-17.54 4-6.8 0-12.61-1.368-17.43-4.102-4.81-2.734-7.22-6.021-7.22-9.859 0-3.839 2.47-7.029 7.42-9.571M1521.12 440.486c3.12 0 5.73.782 7.81 2.344 2.08 1.563 3.12 3.807 3.12 6.735 0 4.489-2.32 8.687-6.97 12.593-4.65 3.907-9.65 5.86-14.99 5.86-3.13 0-5.77-.813-7.91-2.438-2.02-1.76-3.03-3.974-3.03-6.64 0-4.365 2.31-8.532 6.94-12.5 4.62-3.969 9.63-5.954 15.03-5.954M1581.96 427.986c3.12 0 5.73.781 7.81 2.343 2.08 1.563 3.12 3.808 3.12 6.735 0 4.489-2.32 8.687-6.97 12.594-4.65 3.906-9.65 5.859-15 5.859-3.12 0-5.76-.813-7.9-2.438-2.02-1.76-3.03-3.974-3.03-6.64 0-4.365 2.31-8.531 6.93-12.5 4.63-3.969 9.64-5.953 15.04-5.953M1642.8 390.483c3.12 0 5.72.782 7.81 2.344 2.08 1.563 3.12 3.807 3.12 6.734 0 4.49-2.32 8.688-6.97 12.594-4.65 3.906-9.65 5.86-15 5.86-3.12 0-5.76-.813-7.9-2.438-2.02-1.76-3.03-3.974-3.03-6.641 0-4.364 2.31-8.531 6.93-12.5 4.63-3.968 9.64-5.953 15.04-5.953M1703.64 352.981c3.12 0 5.72.781 7.81 2.344 2.08 1.562 3.12 3.807 3.12 6.734 0 4.49-2.32 8.688-6.97 12.594-4.66 3.906-9.65 5.859-15 5.859-3.12 0-5.76-.812-7.9-2.437-2.02-1.761-3.03-3.974-3.03-6.641 0-4.365 2.31-8.531 6.93-12.5 4.63-3.969 9.64-5.953 15.04-5.953M1764.47 340.48c3.13 0 5.73.781 7.82 2.344 2.08 1.562 3.12 3.807 3.12 6.734 0 4.49-2.32 8.688-6.97 12.594-4.66 3.906-9.65 5.859-15 5.859-3.12 0-5.76-.812-7.9-2.437-2.02-1.761-3.03-3.974-3.03-6.641 0-4.364 2.31-8.531 6.93-12.5 4.63-3.969 9.64-5.953 15.03-5.953M1825.31 302.978c3.13 0 5.73.781 7.82 2.344 2.08 1.562 3.12 3.807 3.12 6.734 0 4.489-2.32 8.687-6.98 12.594-4.65 3.906-9.64 5.859-14.99 5.859-3.12 0-5.76-.812-7.9-2.437-2.02-1.761-3.03-3.974-3.03-6.641 0-4.365 2.31-8.531 6.93-12.5 4.63-3.969 9.64-5.953 15.03-5.953M1886.15 265.475c3.13 0 5.73.782 7.82 2.344 2.08 1.563 3.12 3.807 3.12 6.735 0 4.489-2.32 8.687-6.98 12.593-4.65 3.907-9.64 5.86-14.99 5.86-3.12 0-5.76-.813-7.9-2.438-2.02-1.76-3.04-3.974-3.04-6.64 0-4.365 2.32-8.532 6.94-12.5 4.63-3.969 9.64-5.954 15.03-5.954M1946.99 252.975c3.13 0 5.73.781 7.82 2.343 2.08 1.563 3.12 3.808 3.12 6.735 0 4.489-2.33 8.687-6.98 12.593-4.65 3.907-9.64 5.86-14.99 5.86-3.12 0-5.76-.813-7.9-2.438-2.03-1.76-3.04-3.974-3.04-6.64 0-4.365 2.32-8.532 6.94-12.5 4.63-3.969 9.64-5.953 15.03-5.953M2007.83 215.472c3.13 0 5.73.781 7.81 2.344 2.09 1.562 3.13 3.807 3.13 6.734 0 4.49-2.33 8.688-6.98 12.594-4.65 3.906-9.65 5.859-14.99 5.859-3.12 0-5.76-.812-7.91-2.437-2.02-1.76-3.03-3.974-3.03-6.641 0-4.364 2.32-8.531 6.94-12.5 4.63-3.968 9.64-5.953 15.03-5.953M2068.67 265.475c3.13 0 5.73.782 7.81 2.344 2.09 1.563 3.13 3.807 3.13 6.735 0 4.489-2.33 8.687-6.98 12.593-4.65 3.907-9.65 5.86-14.99 5.86-3.12 0-5.76-.813-7.91-2.438-2.02-1.76-3.03-3.974-3.03-6.64 0-4.365 2.32-8.532 6.94-12.5 4.63-3.969 9.64-5.954 15.03-5.954M2129.51 252.975c3.13 0 5.73.781 7.81 2.343 2.09 1.563 3.13 3.808 3.13 6.735 0 4.489-2.33 8.687-6.98 12.593-4.65 3.907-9.65 5.86-14.99 5.86-3.12 0-5.76-.813-7.91-2.438-2.02-1.76-3.03-3.974-3.03-6.64 0-4.365 2.32-8.532 6.94-12.5 4.63-3.969 9.64-5.953 15.03-5.953M2190.35 215.472c3.13 0 5.73.781 7.81 2.344 2.09 1.562 3.13 3.807 3.13 6.734 0 4.49-2.33 8.688-6.98 12.594-4.65 3.906-9.65 5.859-14.99 5.859-3.13 0-5.76-.812-7.91-2.437-2.02-1.76-3.03-3.974-3.03-6.641 0-4.364 2.31-8.531 6.94-12.5 4.62-3.968 9.63-5.953 15.03-5.953M2292.15 290.477c3.13 0 5.73.781 7.81 2.344 2.09 1.562 3.13 3.807 3.13 6.734 0 4.49-2.33 8.688-6.98 12.594-4.65 3.906-9.65 5.859-14.99 5.859-3.13 0-5.76-.812-7.91-2.437-2.02-1.761-3.03-3.974-3.03-6.641 0-4.364 2.31-8.531 6.94-12.5 4.62-3.969 9.64-5.953 15.03-5.953M2459.63 347.214c2.86 3.843 6.54 5.765 11.03 5.765 4.49 0 6.73-3.026 6.73-9.078 0-2.875-.81-5.416-2.44-7.625-2.8-3.844-6.57-5.765-11.32-5.765-2.09 0-3.68.862-4.79 2.586-1.1 1.723-1.65 3.955-1.65 6.695 0 2.739.81 5.213 2.44 7.422m-9.68-15.235c4.89-2.666 10.77-4 17.64-4 6.87 0 12.66 1.368 17.38 4.102 4.72 2.734 7.08 5.989 7.08 9.766 0 3.776-2.45 6.997-7.33 9.664-4.89 2.666-10.73 4-17.53 4-6.8 0-12.61-1.368-17.43-4.102s-7.23-6.021-7.23-9.859c0-3.839 2.48-7.029 7.42-9.571"/><path class="Note" d="M2459.63 322.212c2.86 3.844 6.54 5.766 11.03 5.766 4.49 0 6.73-3.026 6.73-9.078 0-2.875-.81-5.417-2.44-7.625-2.8-3.844-6.57-5.766-11.32-5.766-2.09 0-3.68.862-4.79 2.586-1.1 1.724-1.65 3.956-1.65 6.695 0 2.74.81 5.214 2.44 7.422m-9.68-15.234c4.89-2.667 10.77-4 17.64-4 6.87 0 12.66 1.367 17.38 4.101 4.72 2.735 7.08 5.99 7.08 9.766s-2.45 6.997-7.33 9.664c-4.89 2.667-10.73 4-17.53 4-6.8 0-12.61-1.367-17.43-4.102-4.82-2.734-7.23-6.02-7.23-9.859 0-3.838 2.48-7.029 7.42-9.57M2663.95 347.214c2.86 3.843 6.54 5.765 11.03 5.765 4.49 0 6.74-3.026 6.74-9.078 0-2.875-.82-5.416-2.44-7.625-2.8-3.844-6.58-5.765-11.33-5.765-2.08 0-3.68.862-4.78 2.586-1.11 1.723-1.66 3.955-1.66 6.695 0 2.739.82 5.213 2.44 7.422m-9.67-15.235c4.88-2.666 10.76-4 17.63-4 6.87 0 12.67 1.368 17.38 4.102 4.72 2.734 7.08 5.989 7.08 9.766 0 3.776-2.44 6.997-7.33 9.664-4.88 2.666-10.73 4-17.53 4-6.8 0-12.61-1.368-17.43-4.102-4.81-2.734-7.22-6.021-7.22-9.859 0-3.839 2.47-7.029 7.42-9.571"/><path class="Note" d="M2663.95 322.212c2.86 3.844 6.54 5.766 11.03 5.766 4.49 0 6.74-3.026 6.74-9.078 0-2.875-.82-5.417-2.44-7.625-2.8-3.844-6.58-5.766-11.33-5.766-2.08 0-3.68.862-4.78 2.586-1.11 1.724-1.66 3.956-1.66 6.695 0 2.74.82 5.214 2.44 7.422m-9.67-15.234c4.88-2.667 10.76-4 17.63-4 6.87 0 12.67 1.367 17.38 4.101 4.72 2.735 7.08 5.99 7.08 9.766s-2.44 6.997-7.33 9.664c-4.88 2.667-10.73 4-17.53 4-6.8 0-12.61-1.367-17.43-4.102-4.81-2.734-7.22-6.02-7.22-9.859 0-3.838 2.47-7.029 7.42-9.57"/><path class="Clef" d="M276.64 595.371c-.974-.979-1.461-2.185-1.461-3.617 0-1.433.487-2.636 1.461-3.61.974-.974 2.177-1.461 3.61-1.461 1.432 0 2.638.487 3.617 1.461.979.974 1.469 2.177 1.469 3.61 0 1.432-.49 2.638-1.469 3.617-.979.979-2.185 1.469-3.617 1.469-1.433 0-2.636-.49-3.61-1.469m0 25.008c-.974-.974-1.461-2.177-1.461-3.61 0-1.432.487-2.638 1.461-3.617.974-.979 2.177-1.469 3.61-1.469 1.432 0 2.638.49 3.617 1.469.979.979 1.469 2.185 1.469 3.617 0 1.433-.49 2.636-1.469 3.61-.979.974-2.185 1.461-3.617 1.461-1.433 0-2.636-.487-3.61-1.461m-33.882-42.383c8.656 0 15.75 2.177 21.281 6.531 5.344 4.563 8.015 10.75 8.015 18.563 0 4.75-1.01 9.487-3.031 14.211s-4.656 8.841-7.906 12.351c-5.927 6.573-14.018 12.529-24.274 17.867-10.255 5.339-15.919 8.008-16.992 8.008-1.073 0-1.609-.422-1.609-1.266 0-.322.13-.614.391-.875a357.914 357.914 0 0010.937-6.742c3.969-2.536 8.005-5.547 12.109-9.031 4.105-3.484 7.279-6.708 9.524-9.672 2.245-2.963 4.31-6.622 6.195-10.976 1.625-4.365 2.438-8.667 2.438-12.907 0-6.312-1.563-11.812-4.688-16.5-3.125-4.687-7.255-7.031-12.39-7.031-3.646 0-6.836 1.221-9.571 3.664-2.734 2.443-4.69 5.419-5.867 8.93 1.24-.521 2.38-.781 3.422-.781 2.729 0 5.07 1.01 7.023 3.031 1.953 2.021 2.93 4.398 2.93 7.133 0 2.734-.943 5.211-2.828 7.429-2.021 2.011-4.445 3.016-7.274 3.016-2.828 0-5.414-1.005-7.757-3.016-2.219-2.218-3.328-4.729-3.328-7.531 0-6.708 2.263-12.453 6.789-17.234 4.526-4.782 10.013-7.172 16.461-7.172M1423.77 597.148c-.78-.783-1.17-1.748-1.17-2.894 0-1.146.39-2.108 1.17-2.888.778-.779 1.74-1.168 2.887-1.168 1.146 0 2.11.39 2.894 1.168.783.78 1.175 1.742 1.175 2.888s-.392 2.11-1.175 2.894c-.784.783-1.748 1.175-2.894 1.175-1.146 0-2.109-.392-2.888-1.175m0 20.008c-.78-.78-1.169-1.742-1.169-2.888s.39-2.11 1.17-2.894c.778-.783 1.74-1.175 2.887-1.175 1.146 0 2.11.392 2.894 1.175.783.783 1.175 1.748 1.175 2.894 0 1.146-.392 2.108-1.175 2.888-.784.779-1.748 1.168-2.894 1.168-1.146 0-2.109-.39-2.888-1.168m-27.108-33.909c6.926 0 12.6 1.742 17.026 5.225 4.275 3.65 6.413 8.601 6.413 14.851 0 3.8-.808 7.59-2.425 11.37-1.617 3.78-3.725 7.073-6.325 9.882-4.742 5.258-11.216 10.023-19.42 14.294-8.205 4.272-12.737 6.407-13.595 6.407-.858 0-1.288-.337-1.288-1.013 0-.258.105-.491.313-.7a286.489 286.489 0 008.75-5.394c3.176-2.029 6.405-4.437 9.689-7.225 3.283-2.788 5.823-5.367 7.619-7.738 1.796-2.371 3.448-5.298 4.956-8.782 1.3-3.492 1.95-6.934 1.95-10.326 0-5.05-1.25-9.45-3.75-13.2s-5.804-5.626-9.913-5.626c-2.917 0-5.469.977-7.657 2.932-2.187 1.954-3.752 4.335-4.694 7.144.992-.417 1.905-.625 2.738-.625 2.183 0 4.057.808 5.62 2.425 1.562 1.617 2.343 3.519 2.343 5.707 0 2.187-.754 4.169-2.263 5.944-1.616 1.608-3.556 2.412-5.819 2.412-2.262 0-4.331-.804-6.206-2.412-1.775-1.775-2.663-3.784-2.663-6.026 0-5.367 1.81-9.963 5.432-13.788 3.62-3.825 8.01-5.738 13.17-5.738M276.64 332.854c-.974-.979-1.461-2.185-1.461-3.617s.487-2.635 1.461-3.609c.974-.974 2.177-1.461 3.61-1.461 1.432 0 2.638.487 3.617 1.461.979.974 1.469 2.177 1.469 3.609s-.49 2.638-1.469 3.617c-.979.98-2.185 1.469-3.617 1.469-1.433 0-2.636-.489-3.61-1.469m0 25.008c-.974-.974-1.461-2.177-1.461-3.609 0-1.433.487-2.638 1.461-3.617.974-.98 2.177-1.469 3.61-1.469 1.432 0 2.638.489 3.617 1.469.979.979 1.469 2.184 1.469 3.617 0 1.432-.49 2.635-1.469 3.609-.979.974-2.185 1.461-3.617 1.461-1.433 0-2.636-.487-3.61-1.461m-33.882-42.383c8.656 0 15.75 2.177 21.281 6.532 5.344 4.562 8.015 10.75 8.015 18.562 0 4.75-1.01 9.487-3.031 14.211s-4.656 8.841-7.906 12.352c-5.927 6.573-14.018 12.528-24.274 17.867-10.255 5.338-15.919 8.008-16.992 8.008-1.073 0-1.609-.422-1.609-1.266 0-.323.13-.615.391-.875a359.912 359.912 0 0010.937-6.742c3.969-2.537 8.005-5.547 12.109-9.031 4.105-3.485 7.279-6.709 9.524-9.672 2.245-2.964 4.31-6.623 6.195-10.977 1.625-4.364 2.438-8.667 2.438-12.906 0-6.313-1.563-11.813-4.688-16.5-3.125-4.688-7.255-7.031-12.39-7.031-3.646 0-6.836 1.221-9.571 3.664-2.734 2.442-4.69 5.419-5.867 8.929 1.24-.52 2.38-.781 3.422-.781 2.729 0 5.07 1.011 7.023 3.031 1.953 2.021 2.93 4.399 2.93 7.133 0 2.735-.943 5.211-2.828 7.43-2.021 2.01-4.445 3.015-7.274 3.015-2.828 0-5.414-1.005-7.757-3.015-2.219-2.219-3.328-4.729-3.328-7.531 0-6.709 2.263-12.454 6.789-17.235 4.526-4.781 10.013-7.172 16.461-7.172M657.088 417.45v-1.713c-.05-.883-.18-2.263-.388-4.138-2.6.417-4.917.625-6.95.625-7.292 0-13.478-2.88-18.558-8.638s-7.619-12.621-7.619-20.589c0-2.133.417-4.698 1.25-7.694.833-2.996 1.602-5.002 2.306-6.019.705-1.017 1.761-2.8 3.17-5.35.416-.784 1.77-2.505 4.062-5.163.417-.567.781-1.033 1.094-1.4.313-.367.819-1.019 1.519-1.957.7-.937 1.454-1.81 2.262-2.618a34.2 34.2 0 002.15-2.344c.626-.755 1.2-1.39 1.726-1.907-1.875-6.2-3.021-10.967-3.438-14.3-.417-3.334-.625-7.424-.625-12.27 0-4.846 1.042-9.249 3.125-13.207 2.025-4.109 4.863-7.467 8.513-10.076.209-.158.481-.237.819-.237.337 0 .585.08.744.237 2.808 3.384 5.242 7.784 7.3 13.201 2.059 5.417 3.088 10.484 3.088 15.201 0 4.717-1.196 9.263-3.588 13.638-2.708 4.634-6.2 9.426-10.475 14.376 1.091 3.434 2.55 8.822 4.375 16.164h.475c.208-.05.387-.075.537-.075 5.892 0 10.699 2.07 14.42 6.213 3.721 4.142 5.582 8.921 5.582 14.338 0 6.717-2.784 12.134-8.35 16.251-1.618 1.2-3.522 2.138-5.714 2.813.267 3.383.4 5.635.4 6.756 0 1.121-.054 3.115-.162 5.982-.05 4.892-1.717 9.084-5 12.576-3.284 3.492-7.034 5.238-11.251 5.238s-7.811-1.498-10.782-4.494c-2.971-2.996-4.457-6.628-4.457-10.895 0-2.242.863-4.146 2.588-5.713 1.767-1.558 3.756-2.337 5.97-2.337 2.212 0 4.022.808 5.43 2.425 1.46 1.508 2.188 3.33 2.188 5.463s-.729 3.93-2.187 5.387c-1.459 1.459-3.205 2.188-5.238 2.188a6.47 6.47 0 01-2.413-.462c2.292 3.383 5.234 5.075 8.826 5.075 3.592 0 6.665-1.484 9.22-4.45 2.553-2.967 3.83-6.46 3.83-10.476l.226-5.625m2.5-9.839c2.708-.991 4.858-2.75 6.45-5.275 1.592-2.525 2.388-5.038 2.388-7.538 0-3.7-1.277-7.009-3.832-9.925-2.554-2.917-5.785-4.56-9.694-4.926 2.242 10.993 3.804 20.214 4.688 27.664m-30.227-18.05c0 5.158 2.056 9.665 6.169 13.519 4.113 3.854 8.932 5.782 14.457 5.782a42.54 42.54 0 006.4-.475c-.833-7.918-2.475-17.397-4.925-28.44-3.067.317-5.448 1.373-7.144 3.17-1.696 1.795-2.544 3.839-2.544 6.13 0 3.96 2.113 7.164 6.338 9.614.358.208.538.56.538 1.056s-.17.925-.507 1.288c-.337.362-.635.544-.893.544-.259 0-.596-.05-1.013-.15-6.1-3.334-9.15-8.363-9.15-15.089 0-3.175 1.12-6.221 3.362-9.138 2.342-2.917 5.388-4.792 9.138-5.625-1.458-5.834-2.654-10.393-3.588-13.676-7.133 8.025-11.563 13.963-13.288 17.814-2.233 5-3.35 9.558-3.35 13.675m26.089-79.455c-3.909 1.926-6.994 4.711-9.257 8.357-2.262 3.646-3.394 7.474-3.394 11.482 0 4.009.938 9.192 2.813 15.551 3.75-4.534 6.588-8.78 8.513-12.738 1.925-3.959 2.888-7.878 2.888-11.757 0-3.88-.521-7.511-1.563-10.895M2238.36 334.632c-.78-.783-1.17-1.748-1.17-2.894 0-1.146.39-2.108 1.17-2.888.778-.779 1.74-1.168 2.887-1.168 1.146 0 2.11.39 2.894 1.168.783.78 1.175 1.742 1.175 2.888s-.392 2.11-1.175 2.894c-.784.783-1.748 1.175-2.894 1.175-1.146 0-2.109-.392-2.888-1.175m0 20.008c-.78-.78-1.169-1.742-1.169-2.888s.39-2.11 1.17-2.894c.778-.783 1.74-1.175 2.887-1.175 1.146 0 2.11.392 2.894 1.175.783.783 1.175 1.748 1.175 2.894 0 1.146-.392 2.108-1.175 2.888-.784.779-1.748 1.168-2.894 1.168-1.146 0-2.109-.39-2.888-1.168m-27.108-33.909c6.926 0 12.6 1.742 17.026 5.225 4.275 3.65 6.413 8.601 6.413 14.851 0 3.8-.808 7.59-2.425 11.37-1.617 3.78-3.725 7.073-6.325 9.882-4.742 5.258-11.216 10.023-19.42 14.294-8.205 4.272-12.737 6.407-13.595 6.407-.858 0-1.288-.337-1.288-1.012 0-.259.105-.492.313-.7a286.489 286.489 0 008.75-5.395c3.176-2.029 6.405-4.437 9.689-7.225 3.283-2.788 5.823-5.367 7.619-7.738 1.796-2.371 3.448-5.298 4.956-8.782 1.3-3.492 1.95-6.934 1.95-10.326 0-5.05-1.25-9.45-3.75-13.2s-5.804-5.626-9.913-5.626c-2.917 0-5.469.977-7.657 2.932-2.187 1.954-3.752 4.335-4.694 7.144.992-.417 1.905-.625 2.738-.625 2.183 0 4.057.808 5.62 2.425 1.562 1.617 2.343 3.519 2.343 5.707 0 2.187-.754 4.169-2.263 5.944-1.616 1.608-3.556 2.412-5.819 2.412-2.262 0-4.331-.804-6.206-2.412-1.775-1.775-2.663-3.784-2.663-6.026 0-5.367 1.81-9.963 5.432-13.788 3.62-3.825 8.01-5.738 13.17-5.738"/><path class="KeySig" d="M457.857 594.794c1.438-.396 2.156-.042 2.156 1.062v7.813c0 .781-.619 1.401-1.859 1.859l-3.219 1.266v14.171l2.922-1.171c1.438-.396 2.156-.037 2.156 1.078v7.812c0 .781-.619 1.396-1.859 1.844l-3.219 1.281v16.203c0 1.24-.489 1.86-1.469 1.86-.979 0-1.468-.62-1.468-1.86v-15.031l-9.282 3.703v16.11c0 1.239-.487 1.859-1.46 1.859-.974 0-1.461-.62-1.461-1.859v-14.938l-2.547 1.078c-1.365.583-2.047.193-2.047-1.172v-7.718c0-.646.588-1.23 1.765-1.75l2.829-1.172v-14.266l-2.547 1.078c-1.365.583-2.047.193-2.047-1.172v-7.718c0-.657.588-1.245 1.765-1.766l2.829-1.172v-16.109c0-1.24.487-1.86 1.461-1.86.973 0 1.46.62 1.46 1.86v14.937l9.282-3.797v-15.922c0-1.239.489-1.859 1.468-1.859.98 0 1.469.62 1.469 1.859v14.75l2.922-1.171m-15.141 16.89v14.266l9.282-3.813v-14.172l-9.282 3.719M432.855 644.797c1.438-.396 2.157-.042 2.157 1.062v7.813c0 .781-.62 1.401-1.86 1.859l-3.218 1.266v14.172l2.921-1.172c1.438-.396 2.157-.037 2.157 1.078v7.812c0 .782-.62 1.396-1.86 1.844l-3.218 1.281v16.203c0 1.24-.49 1.86-1.469 1.86-.979 0-1.469-.62-1.469-1.86v-15.031l-9.281 3.703v16.11c0 1.239-.487 1.859-1.461 1.859-.974 0-1.461-.62-1.461-1.859v-14.938l-2.547 1.078c-1.364.584-2.047.193-2.047-1.172v-7.718c0-.646.589-1.229 1.766-1.75l2.828-1.172v-14.266l-2.547 1.078c-1.364.584-2.047.193-2.047-1.172v-7.718c0-.657.589-1.245 1.766-1.766l2.828-1.172V636c0-1.24.487-1.86 1.461-1.86.974 0 1.461.62 1.461 1.86v14.937l9.281-3.797v-15.921c0-1.24.49-1.86 1.469-1.86.979 0 1.469.62 1.469 1.86v14.75l2.921-1.172m-15.14 16.89v14.266l9.281-3.813v-14.171l-9.281 3.718M407.854 607.294c1.437-.396 2.156-.041 2.156 1.063v7.812c0 .782-.62 1.401-1.859 1.86l-3.219 1.265v14.172l2.922-1.172c1.437-.396 2.156-.036 2.156 1.078v7.813c0 .781-.62 1.396-1.859 1.844l-3.219 1.281v16.203c0 1.24-.49 1.859-1.469 1.859-.979 0-1.468-.619-1.468-1.859v-15.031l-9.282 3.703v16.109c0 1.24-.487 1.86-1.461 1.86-.974 0-1.461-.62-1.461-1.86v-14.937l-2.546 1.078c-1.365.583-2.047.193-2.047-1.172v-7.719c0-.646.588-1.229 1.765-1.75l2.828-1.172v-14.265l-2.546 1.078c-1.365.583-2.047.193-2.047-1.172v-7.719c0-.656.588-1.244 1.765-1.765l2.828-1.172v-16.11c0-1.239.487-1.859 1.461-1.859.974 0 1.461.62 1.461 1.859v14.938l9.282-3.797v-15.922c0-1.239.489-1.859 1.468-1.859s1.469.62 1.469 1.859v14.75l2.922-1.172m-15.141 16.891v14.266l9.282-3.813v-14.172l-9.282 3.719M382.852 569.792c1.438-.396 2.157-.042 2.157 1.062v7.813c0 .781-.62 1.401-1.86 1.859l-3.219 1.266v14.172l2.922-1.172c1.438-.396 2.157-.037 2.157 1.078v7.813c0 .781-.62 1.395-1.86 1.843l-3.219 1.282v16.203c0 1.239-.489 1.859-1.468 1.859s-1.469-.62-1.469-1.859v-15.032l-9.281 3.704v16.109c0 1.24-.487 1.859-1.461 1.859-.974 0-1.461-.619-1.461-1.859v-14.938l-2.547 1.079c-1.365.583-2.047.192-2.047-1.172v-7.719c0-.646.589-1.229 1.766-1.75l2.828-1.172v-14.266l-2.547 1.079c-1.365.583-2.047.192-2.047-1.172v-7.719c0-.656.589-1.245 1.766-1.766l2.828-1.172v-16.109c0-1.24.487-1.859 1.461-1.859.974 0 1.461.619 1.461 1.859v14.938l9.281-3.797v-15.922c0-1.24.49-1.86 1.469-1.86.979 0 1.468.62 1.468 1.86v14.75l2.922-1.172m-15.14 16.891v14.265l9.281-3.812v-14.172l-9.281 3.719M357.851 619.795c1.437-.396 2.156-.042 2.156 1.063v7.812c0 .781-.62 1.401-1.859 1.859l-3.219 1.266v14.172l2.922-1.172c1.437-.396 2.156-.036 2.156 1.078v7.813c0 .781-.62 1.396-1.859 1.843l-3.219 1.282v16.203c0 1.239-.49 1.859-1.469 1.859-.979 0-1.469-.62-1.469-1.859v-15.031l-9.281 3.703v16.109c0 1.24-.487 1.859-1.461 1.859-.974 0-1.461-.619-1.461-1.859v-14.937l-2.547 1.078c-1.364.583-2.046.192-2.046-1.172v-7.719c0-.646.588-1.229 1.765-1.75l2.828-1.172v-14.265l-2.547 1.078c-1.364.583-2.046.192-2.046-1.172v-7.719c0-.656.588-1.245 1.765-1.766l2.828-1.171v-16.11c0-1.239.487-1.859 1.461-1.859.974 0 1.461.62 1.461 1.859v14.938l9.281-3.797v-15.922c0-1.24.49-1.859 1.469-1.859.979 0 1.469.619 1.469 1.859v14.75l2.922-1.172m-15.141 16.891v14.265l9.281-3.812v-14.172l-9.281 3.719M332.849 582.293c1.438-.396 2.156-.042 2.156 1.062v7.813c0 .781-.619 1.401-1.859 1.859l-3.219 1.266v14.172l2.922-1.172c1.438-.396 2.156-.037 2.156 1.078v7.812c0 .782-.619 1.396-1.859 1.844l-3.219 1.281v16.203c0 1.24-.489 1.86-1.468 1.86-.98 0-1.469-.62-1.469-1.86V620.48l-9.281 3.703v16.11c0 1.239-.487 1.859-1.461 1.859-.974 0-1.461-.62-1.461-1.859v-14.938l-2.547 1.078c-1.365.584-2.047.193-2.047-1.172v-7.718c0-.646.588-1.229 1.766-1.75l2.828-1.172v-14.266l-2.547 1.078c-1.365.584-2.047.193-2.047-1.172v-7.718c0-.657.588-1.245 1.766-1.766l2.828-1.172v-16.109c0-1.24.487-1.86 1.461-1.86.974 0 1.461.62 1.461 1.86v14.937l9.281-3.797v-15.921c0-1.24.489-1.86 1.469-1.86.979 0 1.468.62 1.468 1.86v14.75l2.922-1.172m-15.14 16.89v14.266l9.281-3.813v-14.171l-9.281 3.718M457.857 332.277c1.438-.396 2.156-.042 2.156 1.062v7.813c0 .781-.619 1.401-1.859 1.859l-3.219 1.266v14.172l2.922-1.172c1.438-.396 2.156-.036 2.156 1.078v7.813c0 .781-.619 1.395-1.859 1.843l-3.219 1.282v16.203c0 1.239-.489 1.859-1.469 1.859-.979 0-1.468-.62-1.468-1.859v-15.032l-9.282 3.704v16.109c0 1.24-.487 1.859-1.46 1.859-.974 0-1.461-.619-1.461-1.859v-14.938l-2.547 1.079c-1.365.583-2.047.192-2.047-1.172v-7.719c0-.646.588-1.229 1.765-1.75l2.829-1.172v-14.266l-2.547 1.079c-1.365.583-2.047.192-2.047-1.172v-7.719c0-.656.588-1.245 1.765-1.766l2.829-1.172V323.48c0-1.239.487-1.859 1.461-1.859.973 0 1.46.62 1.46 1.859v14.938l9.282-3.797v-15.922c0-1.24.489-1.86 1.468-1.86.98 0 1.469.62 1.469 1.86v14.75l2.922-1.172m-15.141 16.891v14.265l9.282-3.812v-14.172l-9.282 3.719M432.855 382.28c1.438-.396 2.157-.042 2.157 1.063v7.812c0 .781-.62 1.401-1.86 1.86l-3.218 1.265v14.172l2.921-1.172c1.438-.396 2.157-.036 2.157 1.078v7.813c0 .781-.62 1.396-1.86 1.844l-3.218 1.281v16.203c0 1.239-.49 1.859-1.469 1.859-.979 0-1.469-.62-1.469-1.859v-15.031l-9.281 3.703v16.109c0 1.24-.487 1.86-1.461 1.86-.974 0-1.461-.62-1.461-1.86v-14.937l-2.547 1.078c-1.364.583-2.047.192-2.047-1.172v-7.719c0-.646.589-1.229 1.766-1.75l2.828-1.172v-14.265l-2.547 1.078c-1.364.583-2.047.192-2.047-1.172v-7.719c0-.656.589-1.245 1.766-1.765l2.828-1.172v-16.11c0-1.239.487-1.859 1.461-1.859.974 0 1.461.62 1.461 1.859v14.938l9.281-3.797v-15.922c0-1.24.49-1.859 1.469-1.859.979 0 1.469.619 1.469 1.859v14.75l2.921-1.172m-15.14 16.891v14.265l9.281-3.812v-14.172l-9.281 3.719M407.854 344.778c1.437-.396 2.156-.042 2.156 1.062v7.813c0 .781-.62 1.401-1.859 1.859l-3.219 1.266v14.172l2.922-1.172c1.437-.396 2.156-.037 2.156 1.078v7.812c0 .782-.62 1.396-1.859 1.844l-3.219 1.281v16.204c0 1.239-.49 1.859-1.469 1.859-.979 0-1.468-.62-1.468-1.859v-15.032l-9.282 3.703v16.11c0 1.239-.487 1.859-1.461 1.859-.974 0-1.461-.62-1.461-1.859V387.84l-2.546 1.078c-1.365.584-2.047.193-2.047-1.171v-7.719c0-.646.588-1.229 1.765-1.75l2.828-1.172V362.84l-2.546 1.078c-1.365.584-2.047.193-2.047-1.171v-7.719c0-.656.588-1.245 1.765-1.766l2.828-1.172v-16.109c0-1.24.487-1.859 1.461-1.859.974 0 1.461.619 1.461 1.859v14.937l9.282-3.796V331.2c0-1.24.489-1.86 1.468-1.86s1.469.62 1.469 1.86v14.75l2.922-1.172m-15.141 16.89v14.266l9.282-3.812V357.95l-9.282 3.718M382.852 307.275c1.438-.395 2.157-.041 2.157 1.063v7.812c0 .782-.62 1.401-1.86 1.86l-3.219 1.265v14.172l2.922-1.172c1.438-.395 2.157-.036 2.157 1.079v7.812c0 .781-.62 1.396-1.86 1.844l-3.219 1.281v16.203c0 1.24-.489 1.86-1.468 1.86s-1.469-.62-1.469-1.86v-15.031l-9.281 3.703v16.109c0 1.24-.487 1.86-1.461 1.86-.974 0-1.461-.62-1.461-1.86v-14.937l-2.547 1.078c-1.365.583-2.047.193-2.047-1.172v-7.719c0-.645.589-1.229 1.766-1.75l2.828-1.171v-14.266l-2.547 1.078c-1.365.583-2.047.193-2.047-1.172v-7.719c0-.656.589-1.244 1.766-1.765l2.828-1.172v-16.109c0-1.24.487-1.86 1.461-1.86.974 0 1.461.62 1.461 1.86v14.937l9.281-3.797v-15.922c0-1.239.49-1.859 1.469-1.859.979 0 1.468.62 1.468 1.859v14.75l2.922-1.172m-15.14 16.891v14.266l9.281-3.813v-14.172l-9.281 3.719M357.851 357.279c1.437-.396 2.156-.042 2.156 1.062v7.813c0 .781-.62 1.401-1.859 1.859l-3.219 1.266v14.171l2.922-1.171c1.437-.396 2.156-.037 2.156 1.078v7.812c0 .781-.62 1.396-1.859 1.844l-3.219 1.281v16.203c0 1.24-.49 1.86-1.469 1.86-.979 0-1.469-.62-1.469-1.86v-15.031l-9.281 3.703v16.11c0 1.239-.487 1.859-1.461 1.859-.974 0-1.461-.62-1.461-1.859v-14.938l-2.547 1.078c-1.364.584-2.046.193-2.046-1.172v-7.718c0-.646.588-1.23 1.765-1.75l2.828-1.172v-14.266l-2.547 1.078c-1.364.584-2.046.193-2.046-1.172v-7.718c0-.657.588-1.245 1.765-1.766l2.828-1.172v-16.109c0-1.24.487-1.86 1.461-1.86.974 0 1.461.62 1.461 1.86v14.937l9.281-3.797V343.7c0-1.239.49-1.859 1.469-1.859.979 0 1.469.62 1.469 1.859v14.75l2.922-1.171m-15.141 16.89v14.266l9.281-3.813V370.45l-9.281 3.719M332.849 319.776c1.438-.396 2.156-.041 2.156 1.063v7.812c0 .781-.619 1.401-1.859 1.86l-3.219 1.265v14.172l2.922-1.172c1.438-.396 2.156-.036 2.156 1.078v7.813c0 .781-.619 1.396-1.859 1.844l-3.219 1.281v16.203c0 1.24-.489 1.859-1.468 1.859-.98 0-1.469-.619-1.469-1.859v-15.031l-9.281 3.703v16.109c0 1.24-.487 1.86-1.461 1.86-.974 0-1.461-.62-1.461-1.86v-14.937l-2.547 1.078c-1.365.583-2.047.193-2.047-1.172v-7.719c0-.646.588-1.229 1.766-1.75l2.828-1.172v-14.265l-2.547 1.078c-1.365.583-2.047.193-2.047-1.172v-7.719c0-.656.588-1.245 1.766-1.765l2.828-1.172v-16.11c0-1.239.487-1.859 1.461-1.859.974 0 1.461.62 1.461 1.859v14.938l9.281-3.797v-15.922c0-1.239.489-1.859 1.469-1.859.979 0 1.468.62 1.468 1.859v14.75l2.922-1.172m-15.14 16.891v14.265l9.281-3.812v-14.172l-9.281 3.719"/><path class="Beam" fill-rule="evenodd" d="M728.643 342.046l64.11-6.584v12.566l-64.11 6.584v-12.566M1528.81 317.209l185.77-31.809v12.683l-185.77 31.809v-12.683M1528.81 335.96l185.77-31.808v12.682l-185.77 31.809V335.96M1742.51 429.073l185.76-44.531v12.854l-185.76 44.532v-12.855M1742.51 410.322l185.76-44.532v12.855l-185.76 44.532v-12.855M1985.86 354.246h185.77v12.501h-185.77v-12.501M1985.86 335.495h185.77v12.5h-185.77v-12.5"/><path class="OttavaSegment" d="M2686.06 502.458l4.89-17.406c3.97 1.031 7.69 1.563 11.16 1.594 2 0 4.05-.464 6.16-1.391.29-.135.47-.203.54-.203.31 0 .46.219.46.656 0 .698-.5 1.594-1.5 2.688-1.84 2.041-4.69 3.062-8.57 3.062-1.86 0-4.22-.286-7.09-.859l-3.05 10.25c2.5-1.198 4.79-1.797 6.85-1.797 2.97 0 5.39.875 7.28 2.625 1.88 1.75 2.83 3.995 2.83 6.734 0 4.292-1.56 7.972-4.68 11.04-3.12 3.067-6.86 4.601-11.23 4.601-2.86 0-5.24-.773-7.12-2.32-1.89-1.547-2.83-3.524-2.83-5.93 0-1.302.4-2.393 1.2-3.273.8-.881 1.8-1.321 3-1.321.94 0 1.71.292 2.33.875.61.584.92 1.308.92 2.172 0 1.198-.47 2.115-1.41 2.75-.22.167-.81.485-1.75.953a.689.689 0 00-.29.594c0 .906.57 1.682 1.72 2.328 1.16.646 2.51.969 4.07.969 2.81 0 5.2-1.258 7.18-3.773 1.99-2.516 2.98-5.524 2.98-9.024 0-2.229-.55-3.953-1.65-5.172-1.1-1.219-2.65-1.828-4.67-1.828-2.01 0-3.88.651-5.59 1.953-.16 2.031-.96 3.047-2.39 3.047-.53 0-.99-.182-1.37-.547-.39-.364-.58-.797-.58-1.297 0-.5.16-.95.48-1.351.32-.401.89-.867 1.72-1.399m-8.7-17.609l-8.5 31.75c-.33 1.469-.5 2.354-.5 2.656 0 .604.27.998.8 1.18.53.182 1.7.273 3.5.273h2.9l-.31 2.547h-20.09l.29-2.547h2.3c2.5 0 4.02-.25 4.56-.75.34-.333.75-1.453 1.25-3.359l5.85-21.703c.33-1.292.5-2.104.5-2.438 0-.468-.19-.771-.58-.906-.39-.135-1.41-.203-3.08-.203h-3.75l.66-2.391c1.97 0 4.19-.409 6.68-1.226 2.48-.818 4.47-1.779 5.97-2.883h1.55M2066.66 195.892c1.8 1.198 3.06 2.266 3.79 3.203 1.24 1.667 1.86 3.5 1.86 5.5 0 3.5-1.35 6.399-4.05 8.696-2.71 2.296-6.14 3.445-10.31 3.445-3.47 0-6.21-.766-8.22-2.297-2.02-1.531-3.03-3.599-3.03-6.203 0-5.063 3.27-8.844 9.8-11.344-1.43-1.031-2.46-2.13-3.09-3.297-.64-1.166-.96-2.588-.96-4.265 0-3.261 1.2-6.008 3.58-8.243 2.39-2.234 5.33-3.351 8.83-3.351 2.9 0 5.29.799 7.17 2.398 1.89 1.599 2.83 3.617 2.83 6.055 0 2.865-1.2 5.214-3.61 7.047-.9.739-2.43 1.625-4.59 2.656m-2.36-1.25c.33-.167.63-.302.9-.406 1.67-.761 3.01-1.917 4.03-3.469 1.01-1.552 1.52-3.18 1.52-4.883 0-1.703-.59-3.096-1.77-4.179-1.19-1.084-2.71-1.625-4.57-1.625-2.11 0-3.91.651-5.41 1.953s-2.25 2.87-2.25 4.703c0 1.562.58 2.937 1.73 4.125 1.15 1.187 3.09 2.448 5.82 3.781m-5.75 3.703s-.34.146-1 .438c-2 .875-3.58 2.104-4.72 3.687-1.15 1.584-1.72 3.292-1.72 5.125 0 2.094.67 3.75 2 4.969 1.33 1.219 3.15 1.828 5.44 1.828 2.54 0 4.67-.708 6.4-2.125 1.73-1.417 2.6-3.161 2.6-5.234 0-2.5-1.38-4.584-4.14-6.25-.94-.532-2.56-1.344-4.86-2.438"/><path class="OttavaSegment" fill="none" stroke="#000" stroke-dasharray="7.50047,7.50047" stroke-width="2.5" stroke-linecap="square" stroke-linejoin="bevel" d="M2088.2 196.939h138.1M2226.3 196.939v47.503"/><path class="OttavaSegment" d="M2686.06 239.942l4.89-17.406c3.97 1.031 7.69 1.562 11.16 1.593 2 0 4.05-.463 6.16-1.39.29-.136.47-.203.54-.203.31 0 .46.218.46.656 0 .698-.5 1.594-1.5 2.687-1.84 2.042-4.69 3.063-8.57 3.063-1.86 0-4.22-.287-7.09-.86l-3.05 10.25c2.5-1.198 4.79-1.796 6.85-1.796 2.97 0 5.39.875 7.28 2.625 1.88 1.75 2.83 3.994 2.83 6.734 0 4.292-1.56 7.971-4.68 11.039-3.12 3.068-6.86 4.602-11.23 4.602-2.86 0-5.24-.774-7.12-2.321-1.89-1.547-2.83-3.523-2.83-5.929 0-1.303.4-2.394 1.2-3.274.8-.88 1.8-1.32 3-1.32.94 0 1.71.291 2.33.875.61.583.92 1.307.92 2.172 0 1.198-.47 2.114-1.41 2.75-.22.166-.81.484-1.75.953-.19.135-.29.333-.29.594 0 .906.57 1.682 1.72 2.328 1.16.645 2.51.968 4.07.968 2.81 0 5.2-1.257 7.18-3.773 1.99-2.516 2.98-5.523 2.98-9.023 0-2.23-.55-3.954-1.65-5.172-1.1-1.219-2.65-1.828-4.67-1.828-2.01 0-3.88.651-5.59 1.953-.16 2.031-.96 3.047-2.39 3.047-.53 0-.99-.183-1.37-.547-.39-.365-.58-.797-.58-1.297 0-.5.16-.951.48-1.352.32-.401.89-.867 1.72-1.398m-8.7-17.61l-8.5 31.75c-.33 1.469-.5 2.355-.5 2.657 0 .604.27.997.8 1.179.53.183 1.7.274 3.5.274h2.9l-.31 2.547h-20.09l.29-2.547h2.3c2.5 0 4.02-.25 4.56-.75.34-.334.75-1.453 1.25-3.36l5.85-21.703c.33-1.291.5-2.104.5-2.437 0-.469-.19-.771-.58-.906-.39-.136-1.41-.204-3.08-.204h-3.75l.66-2.39c1.97 0 4.19-.409 6.68-1.227 2.48-.817 4.47-1.778 5.97-2.883h1.55"/><path class="Page" d="M151.375 3980c2.417 1.78 4.065 3.27 4.945 4.48.881 1.21 1.321 2.59 1.321 4.13 0 2.07-.719 3.73-2.157 4.97-1.437 1.24-3.364 1.86-5.781 1.86-2.292 0-4.156-.62-5.594-1.86-1.437-1.24-2.156-2.84-2.156-4.8 0-1.36.331-2.51.992-3.42.662-.92 2.091-2.18 4.289-3.8-2.135-1.83-3.507-3.2-4.117-4.11-.609-.9-.914-2.01-.914-3.31 0-1.83.724-3.36 2.172-4.56 1.448-1.21 3.276-1.82 5.484-1.82 1.99 0 3.631.54 4.922 1.62 1.292 1.08 1.938 2.45 1.938 4.12 0 1.35-.399 2.51-1.196 3.47-.796.96-2.179 1.97-4.148 3.03m-3.109 2.36c-1.167.92-1.99 1.85-2.469 2.79-.479.93-.719 2.03-.719 3.3 0 1.73.464 3.13 1.391 4.19.927 1.06 2.151 1.59 3.672 1.59 1.302 0 2.356-.4 3.164-1.22.807-.81 1.211-1.87 1.211-3.17 0-.41-.047-.81-.141-1.19-.094-.37-.187-.7-.281-.97-.094-.28-.279-.59-.555-.94s-.5-.62-.672-.82c-.172-.2-.484-.48-.937-.86-.453-.37-.792-.64-1.016-.8-.224-.15-.648-.46-1.273-.91l-1.375-.99m1.953-3.08c.021-.02.198-.15.531-.38.333-.22.573-.4.719-.53.146-.13.372-.34.679-.62.308-.28.54-.55.696-.8.156-.25.333-.55.531-.91s.344-.76.438-1.2c.093-.44.14-.89.14-1.37 0-1.39-.398-2.49-1.195-3.3-.797-.81-1.873-1.22-3.227-1.22-1.239 0-2.265.37-3.078 1.12-.812.74-1.219 1.69-1.219 2.83 0 1.12.386 2.17 1.157 3.15.77.99 2.047 2.06 3.828 3.23"/><path class="Bracket" fill-rule="evenodd" d="M183.775 445.72c0-29.206-20.116-57.595-20.116-85.576 0-14.092 5.486-27.776 22.402-40.031.228-.153.342-.408.342-.561 0-.46-1.257-.868-2.171-.868-.457 0-1.257.051-1.829.408-21.944 15.726-29.259 33.904-29.259 52.285 0 29.615 21.487 58.208 21.487 86.597 0 14.093-5.486 27.368-22.401 39.622v.817c16.915 12.255 22.401 25.53 22.401 39.622 0 28.39-21.487 56.983-21.487 86.597 0 18.382 7.315 36.559 29.259 52.285.572.358 1.372.409 1.829.409.914 0 2.171-.409 2.171-.868 0-.153-.114-.409-.342-.562-16.916-12.254-22.402-25.938-22.402-40.03 0-27.981 20.116-56.37 20.116-85.576 0-18.586-7.315-36.355-28.802-52.285 21.487-15.931 28.802-33.7 28.802-52.285"/></svg>
