<svg width="3060" height="3960" xmlns="http://www.w3.org/2000/svg" version="1.2" baseProfile="tiny"><path fill="#fff" fill-rule="evenodd" d="M0 0h3060v3960H0V0"/><path class="StaffLines" fill="none" stroke="#000" stroke-width="2" stroke-linejoin="bevel" d="M194.232 316.732H2918.27M194.232 341.732H2918.27M194.232 366.732H2918.27M194.232 391.732H2918.27M194.232 416.732H2918.27M194.232 579.233H2918.27M194.232 604.233H2918.27M194.232 629.233H2918.27M194.232 654.233H2918.27M194.232 679.233H2918.27M194.232 1054.23H2918.27M194.232 1079.23H2918.27M194.232 1104.23H2918.27M194.232 1129.23H2918.27M194.232 1154.23H2918.27M194.232 1316.73H2918.27M194.232 1341.73H2918.27M194.232 1366.73H2918.27M194.232 1391.73H2918.27M194.232 1416.73H2918.27"/><path class="MeasureNumber" d="M193.185 240.264v.625l-8.468 26.156h-2.61l7.922-23.875h-8.672c-1.093 0-1.927.2-2.5.601-.573.401-1.286 1.284-2.14 2.649l-.688-.313 2.36-5.843h14.796m16.313 18.609c0-1.427-.315-2.693-.945-3.797-.631-1.104-1.391-1.958-2.282-2.562a13.033 13.033 0 00-2.992-1.493c-1.104-.39-2.065-.645-2.883-.765a14.94 14.94 0 00-2.132-.18c-.323 0-.485-.109-.485-.328 0-.073.011-.135.031-.188l4.36-9.296h8.359c.427 0 .768-.068 1.024-.204.255-.135.528-.416.82-.843l.359.281-1.515 3.344c-.105.218-.412.328-.922.328h-7.844l-1.672 3.437c3.886.698 6.776 1.834 8.672 3.407 1.896 1.573 2.844 3.88 2.844 6.921 0 1.594-.248 3.011-.742 4.25-.495 1.24-1.123 2.237-1.883 2.993a9.747 9.747 0 01-2.641 1.859c-1 .484-1.958.815-2.875.992a14.64 14.64 0 01-2.781.266c-1.49 0-2.675-.221-3.555-.664-.88-.443-1.32-1.055-1.32-1.836 0-1 .573-1.5 1.719-1.5.75 0 1.716.414 2.898 1.242 1.182.828 2.122 1.242 2.82 1.242 1.573 0 2.894-.666 3.961-2 1.068-1.333 1.602-2.969 1.602-4.906M185.389 989.358c2.416 1.781 4.065 3.276 4.945 4.484.88 1.209 1.32 2.584 1.32 4.125 0 2.073-.719 3.733-2.156 4.973-1.438 1.24-3.365 1.86-5.781 1.86-2.292 0-4.157-.62-5.594-1.86-1.438-1.24-2.156-2.84-2.156-4.801 0-1.365.33-2.505.992-3.422.661-.916 2.091-2.182 4.289-3.797-2.136-1.833-3.508-3.203-4.117-4.109-.61-.906-.914-2.01-.914-3.313 0-1.833.724-3.354 2.172-4.562 1.447-1.208 3.276-1.813 5.484-1.813 1.989 0 3.63.54 4.922 1.618 1.291 1.078 1.937 2.45 1.937 4.117 0 1.354-.398 2.51-1.195 3.469-.797.958-2.18 1.968-4.148 3.031m-3.11 2.359c-1.167.927-1.989 1.857-2.469 2.789-.479.933-.718 2.034-.718 3.305 0 1.729.463 3.129 1.39 4.189.927 1.06 2.151 1.59 3.672 1.59 1.302 0 2.357-.4 3.164-1.22.808-.81 1.211-1.87 1.211-3.168a4.92 4.92 0 00-.14-1.188c-.094-.375-.188-.7-.282-.976-.093-.277-.278-.589-.554-.938s-.5-.622-.672-.82c-.172-.198-.485-.485-.938-.86-.453-.375-.791-.64-1.015-.797a92.22 92.22 0 01-1.274-.914c-.625-.453-1.083-.783-1.375-.992m1.953-3.078c.021-.021.198-.146.532-.375.333-.229.572-.409.718-.539.146-.13.373-.336.68-.617.307-.281.539-.547.695-.797.157-.25.334-.555.532-.914a4.39 4.39 0 00.437-1.195c.094-.438.141-.896.141-1.375 0-1.386-.399-2.485-1.196-3.297-.797-.813-1.872-1.219-3.226-1.219-1.24 0-2.266.372-3.078 1.117-.813.745-1.219 1.69-1.219 2.836 0 1.115.385 2.164 1.156 3.149.771.984 2.047 2.059 3.828 3.226m10.719-3.453a22.91 22.91 0 01.406-1.602c.136-.453.422-1.112.86-1.976.437-.865.929-1.584 1.476-2.156.547-.573 1.308-1.086 2.281-1.539.974-.454 2.076-.68 3.305-.68 2.063 0 3.805.68 5.227 2.039 1.422 1.359 2.133 3.034 2.133 5.023 0 3.032-1.704 6.344-5.11 9.938l-6.687 7.077h9.515c.907 0 1.578-.15 2.016-.46.437-.31 1.031-1.039 1.781-2.195l.516.203-2.188 5.372H194.92v-.47l7.109-7.543c3.469-3.677 5.203-7.14 5.203-10.39 0-1.688-.521-3.055-1.562-4.102-1.042-1.047-2.401-1.57-4.078-1.57-1.386 0-2.498.383-3.336 1.148-.839.766-1.659 2.128-2.461 4.086l-.844-.203"/><path class="TieSegment" stroke="#000" stroke-width="1.75" stroke-linecap="round" stroke-linejoin="round" fill-rule="evenodd" d="M2350.08 410.482c68.85 30.5 275.39 30.5 344.24 0-68.85 34.5-275.39 34.5-344.24 0"/><path class="TieSegment" stroke="#000" stroke-width="1.75" stroke-linecap="round" stroke-linejoin="round" fill-rule="evenodd" d="M2350.08 410.482c68.85 30.5 275.39 30.5 344.24 0-68.85 34.5-275.39 34.5-344.24 0M2431.32 1022.98c63.59-34.497 254.34-34.497 317.92 0-63.58-30.497-254.33-30.497-317.92 0"/><path class="TieSegment" stroke="#000" stroke-width="1.75" stroke-linecap="round" stroke-linejoin="round" fill-rule="evenodd" d="M2431.32 1022.98c63.59-34.497 254.34-34.497 317.92 0-63.58-30.497-254.33-30.497-317.92 0"/><path class="BarLine" stroke="#000" stroke-width="4" stroke-linejoin="bevel" d="M196.232 578.233v102M773.313 578.233v102M1143.67 578.233v102M1518.36 578.233v102M1904.07 578.233v102M2269.22 578.233v102M2654.26 578.233v102M2916.27 578.233v102M196.232 1315.73v102M729.086 1315.73v102M1028.24 1315.73v102M1376.62 1315.73v102M1642.88 1315.73v102M2015.87 1315.73v102M2363.84 1315.73v102M2696.61 1315.73v102M2893.77 1315.73v102"/><path class="BarLine" stroke="#000" stroke-width="12.5" stroke-linejoin="bevel" d="M2912.02 1315.73v102"/><path class="BarLine" stroke="#000" stroke-width="4" stroke-linejoin="bevel" d="M196.232 315.732v263.501M773.313 315.732v263.501M1143.67 315.732v263.501M1518.36 315.732v263.501M1904.07 315.732v263.501M2269.22 315.732v263.501M2654.26 315.732v263.501M2916.27 315.732v263.501M196.232 1053.23v263.5M729.086 1053.23v263.5M1028.24 1053.23v263.5M1376.62 1053.23v263.5M1642.88 1053.23v263.5M2015.87 1053.23v263.5M2363.84 1053.23v263.5M2696.61 1053.23v263.5M2893.77 1053.23v263.5"/><path class="BarLine" stroke="#000" stroke-width="12.5" stroke-linejoin="bevel" d="M2912.02 1053.23v263.5"/><path class="LedgerLine" stroke="#000" stroke-width="4" stroke-linecap="square" stroke-linejoin="bevel" d="M531.027 554.233h47.914M608.622 554.233h47.915M608.622 529.233h47.915M686.218 554.233h47.914M902.249 554.233h47.914M979.555 554.233h47.915M979.555 529.233h47.915M979.555 504.233h47.915M1056.86 554.233h47.92M1276.94 554.233h47.91M1354.25 554.233h47.91M1354.25 529.233h47.91M1431.55 554.233h47.92M1752.84 554.233h47.92M1752.84 529.233h47.92M2028.67 554.233h47.91M2105.68 554.233h47.92M2105.68 529.233h47.92M2182.7 554.233h47.91M564.437 1291.73h47.914M564.437 1266.73h47.914M817.478 1291.73h47.914M884.566 1291.73h47.914M884.566 1266.73h47.914M1405.62 1291.73h49.72M1848.28 1291.73h47.92M1848.28 1266.73h47.92M2135.97 1291.73h47.92M2208.76 1291.73h47.92M2208.76 1266.73h47.92M2281.55 1291.73h47.91M1056.86 441.732h47.92M1431.55 441.732h47.92M2760.34 291.732h47.91M2760.34 266.732h47.91M2848.85 291.732h47.92M2848.85 266.732h47.92M564.437 1029.23h47.914M564.437 1004.23h47.914M644.279 1029.23h47.914M644.279 1004.23h47.914M1507.35 1029.23h47.91M1507.35 1004.23h47.91M1570.37 1029.23h47.91M1570.37 1004.23h47.91M1848.28 1029.23h47.92M1848.28 1004.23h47.92M1927.33 1029.23h47.91M1927.33 1004.23h47.91"/><path class="Stem" stroke="#000" stroke-width="3.25" stroke-linecap="round" stroke-linejoin="bevel" d="M453.297 608.928v79.68M540.152 558.928v82.805M617.747 521.428v107.805M695.343 558.928v82.805M828.854 596.428v82.805M911.374 546.428v82.805M988.68 508.928v120.305M1065.99 546.428v82.805M1203.54 608.928v79.68M1286.06 558.928v82.805M1363.37 521.428v107.805M1440.68 558.928v82.805M1591.24 621.428v76.555M1691.1 571.428v82.805M1761.97 533.928v95.305M1832.83 571.428v82.805M1959.61 608.928v79.68M2037.79 558.928v82.805M2114.81 521.428v107.805M2191.83 558.928v82.805M2357.49 674.537v-82.804M2427.68 633.928v73.43M2503.09 596.428v82.805M2578.49 583.928v82.805M2683.79 570.653v83.58M422.947 1358.93v76.55M498.254 1308.93v82.8M573.562 1271.43v95.3M759.516 1346.43v79.68M826.603 1296.43v82.8M893.691 1258.93v107.8M1103.13 1374.54v-76.56M1149.16 1346.43v79.68M1224.86 1333.93v82.8M1300.55 1346.43v79.68M1414.75 1295.65v83.58M1699.32 1358.93v76.55M1778.37 1308.93v82.8M1857.41 1271.43v95.3M1936.45 1308.93v82.8M2072.31 1346.43v79.68M2145.1 1296.43v82.8M2217.89 1258.93v107.8M2290.67 1296.43v82.8M2438.73 1412.04v-82.81M2482.91 1371.43v73.43M2554.02 1333.93v82.8M2625.13 1321.43v82.8M2740.93 1308.15v83.58M483.863 387.892v-80.535M647.412 374.537v-76.555M725.007 399.537v-82.805M859.42 387.892v-80.535M1018.34 399.537v-82.805M1095.65 437.037v-82.805M1234.11 425.392v-83.66M1393.03 424.537v-82.805M1470.34 437.037v-82.805M1621.81 387.892v-80.535M1761.97 346.428v79.679M1832.83 358.928v76.554M1990.17 387.892v-80.535M2145.37 400.392v-83.66M2715.26 387.892v-80.535M2769.47 258.928v107.804M2857.98 271.428v95.304M422.045 1045.65v83.58M573.562 996.428v107.802M653.404 1008.93v95.3M758.613 1045.65v83.58M892.788 1058.15v83.58M1516.47 996.428v107.802M1579.49 1008.93v95.3M1698.42 1045.65v83.58M1857.41 996.428v107.802M1936.45 1008.93v95.3M2071.41 1045.65v83.58M2216.98 1058.15v83.58"/><path class="Note" d="M473.64 590.467c3.125 0 5.766.812 7.922 2.437 2.011 1.761 3.016 3.974 3.016 6.641 0 4.49-2.308 8.688-6.922 12.594-4.688 3.906-9.703 5.859-15.047 5.859-3.125 0-5.76-.812-7.906-2.437-2.021-1.761-3.031-3.974-3.031-6.641 0-4.49 2.343-8.687 7.031-12.594 4.562-3.906 9.541-5.859 14.937-5.859M560.496 540.467c3.125 0 5.766.812 7.922 2.437 2.01 1.761 3.016 3.974 3.016 6.641 0 4.49-2.308 8.688-6.922 12.594-4.688 3.906-9.703 5.859-15.047 5.859-3.125 0-5.761-.812-7.906-2.437-2.021-1.761-3.032-3.974-3.032-6.641 0-4.49 2.344-8.687 7.032-12.594 4.562-3.906 9.541-5.859 14.937-5.859M638.091 502.967c3.125 0 5.766.812 7.922 2.437 2.011 1.761 3.016 3.974 3.016 6.641 0 4.49-2.308 8.688-6.922 12.594-4.688 3.906-9.703 5.859-15.047 5.859-3.125 0-5.76-.812-7.906-2.437-2.021-1.761-3.032-3.974-3.032-6.641 0-4.49 2.344-8.687 7.032-12.594 4.562-3.906 9.541-5.859 14.937-5.859M715.686 540.467c3.125 0 5.766.812 7.922 2.437 2.011 1.761 3.016 3.974 3.016 6.641 0 4.49-2.307 8.688-6.922 12.594-4.688 3.906-9.703 5.859-15.047 5.859-3.125 0-5.76-.812-7.906-2.437-2.021-1.761-3.031-3.974-3.031-6.641 0-4.49 2.343-8.687 7.031-12.594 4.562-3.906 9.541-5.859 14.937-5.859M849.198 577.967c3.125 0 5.765.812 7.921 2.437 2.011 1.761 3.016 3.974 3.016 6.641 0 4.49-2.307 8.688-6.922 12.594-4.687 3.906-9.703 5.859-15.047 5.859-3.125 0-5.76-.812-7.906-2.437-2.021-1.761-3.031-3.974-3.031-6.641 0-4.49 2.344-8.687 7.031-12.594 4.563-3.906 9.542-5.859 14.938-5.859M931.718 527.967c3.125 0 5.766.812 7.922 2.437 2.01 1.761 3.015 3.974 3.015 6.641 0 4.49-2.307 8.688-6.921 12.594-4.688 3.906-9.704 5.859-15.047 5.859-3.125 0-5.761-.812-7.907-2.437-2.02-1.761-3.031-3.974-3.031-6.641 0-4.49 2.344-8.687 7.031-12.594 4.563-3.906 9.542-5.859 14.938-5.859M1009.02 490.467c3.13 0 5.77.812 7.93 2.437 2.01 1.761 3.01 3.974 3.01 6.641 0 4.49-2.31 8.688-6.92 12.594-4.69 3.906-9.7 5.859-15.047 5.859-3.125 0-5.761-.812-7.907-2.437-2.02-1.761-3.031-3.974-3.031-6.641 0-4.49 2.344-8.687 7.031-12.594 4.563-3.906 9.544-5.859 14.934-5.859M1086.33 527.967c3.12 0 5.77.812 7.92 2.437 2.01 1.761 3.02 3.974 3.02 6.641 0 4.49-2.31 8.688-6.92 12.594-4.69 3.906-9.71 5.859-15.05 5.859-3.13 0-5.76-.812-7.91-2.437-2.02-1.761-3.03-3.974-3.03-6.641 0-4.49 2.34-8.687 7.03-12.594 4.56-3.906 9.54-5.859 14.94-5.859M1223.89 590.467c3.12 0 5.76.812 7.92 2.437 2.01 1.761 3.02 3.974 3.02 6.641 0 4.49-2.31 8.688-6.93 12.594-4.68 3.906-9.7 5.859-15.04 5.859-3.13 0-5.76-.812-7.91-2.437-2.02-1.761-3.03-3.974-3.03-6.641 0-4.49 2.34-8.687 7.03-12.594 4.56-3.906 9.54-5.859 14.94-5.859M1306.41 540.467c3.12 0 5.76.812 7.92 2.437 2.01 1.761 3.02 3.974 3.02 6.641 0 4.49-2.31 8.688-6.93 12.594-4.68 3.906-9.7 5.859-15.04 5.859-3.13 0-5.76-.812-7.91-2.437-2.02-1.761-3.03-3.974-3.03-6.641 0-4.49 2.34-8.687 7.03-12.594 4.56-3.906 9.54-5.859 14.94-5.859M1383.71 502.967c3.13 0 5.77.812 7.93 2.437 2.01 1.761 3.01 3.974 3.01 6.641 0 4.49-2.31 8.688-6.92 12.594-4.69 3.906-9.7 5.859-15.05 5.859-3.12 0-5.76-.812-7.9-2.437-2.02-1.761-3.03-3.974-3.03-6.641 0-4.49 2.34-8.687 7.03-12.594 4.56-3.906 9.54-5.859 14.93-5.859M1461.02 540.467c3.13 0 5.77.812 7.92 2.437 2.01 1.761 3.02 3.974 3.02 6.641 0 4.49-2.31 8.688-6.92 12.594-4.69 3.906-9.71 5.859-15.05 5.859-3.13 0-5.76-.812-7.91-2.437-2.02-1.761-3.03-3.974-3.03-6.641 0-4.49 2.35-8.687 7.03-12.594 4.57-3.906 9.54-5.859 14.94-5.859M1611.58 602.967c3.13 0 5.77.812 7.93 2.437 2.01 1.761 3.01 3.974 3.01 6.641 0 4.49-2.31 8.688-6.92 12.594-4.69 3.906-9.7 5.859-15.05 5.859-3.12 0-5.76-.812-7.9-2.437-2.02-1.761-3.03-3.974-3.03-6.641 0-4.49 2.34-8.687 7.03-12.594 4.56-3.906 9.54-5.859 14.93-5.859M1711.45 552.967c3.12 0 5.76.812 7.92 2.437 2.01 1.761 3.02 3.974 3.02 6.641 0 4.49-2.31 8.688-6.93 12.594-4.68 3.906-9.7 5.859-15.04 5.859-3.13 0-5.76-.812-7.91-2.437-2.02-1.761-3.03-3.974-3.03-6.641 0-4.49 2.34-8.687 7.03-12.594 4.56-3.906 9.54-5.859 14.94-5.859M1782.31 515.467c3.12 0 5.77.812 7.92 2.437 2.01 1.761 3.02 3.974 3.02 6.641 0 4.49-2.31 8.688-6.92 12.594-4.69 3.906-9.71 5.859-15.05 5.859-3.13 0-5.76-.812-7.91-2.437-2.02-1.761-3.03-3.974-3.03-6.641 0-4.49 2.34-8.687 7.03-12.594 4.56-3.906 9.54-5.859 14.94-5.859M1853.17 552.967c3.13 0 5.77.812 7.92 2.437 2.01 1.761 3.02 3.974 3.02 6.641 0 4.49-2.31 8.688-6.92 12.594-4.69 3.906-9.71 5.859-15.05 5.859-3.12 0-5.76-.812-7.91-2.437-2.02-1.761-3.03-3.974-3.03-6.641 0-4.49 2.35-8.687 7.03-12.594 4.57-3.906 9.55-5.859 14.94-5.859M1979.95 590.467c3.13 0 5.77.812 7.92 2.437 2.01 1.761 3.02 3.974 3.02 6.641 0 4.49-2.31 8.688-6.92 12.594-4.69 3.906-9.71 5.859-15.05 5.859-3.13 0-5.76-.812-7.91-2.437-2.02-1.761-3.03-3.974-3.03-6.641 0-4.49 2.35-8.687 7.03-12.594 4.57-3.906 9.54-5.859 14.94-5.859M2058.14 540.467c3.12 0 5.76.812 7.92 2.437 2.01 1.761 3.01 3.974 3.01 6.641 0 4.49-2.3 8.688-6.92 12.594-4.69 3.906-9.7 5.859-15.05 5.859-3.12 0-5.76-.812-7.9-2.437-2.02-1.761-3.03-3.974-3.03-6.641 0-4.49 2.34-8.687 7.03-12.594 4.56-3.906 9.54-5.859 14.94-5.859M2135.15 502.967c3.13 0 5.77.812 7.92 2.437 2.01 1.761 3.02 3.974 3.02 6.641 0 4.49-2.31 8.688-6.92 12.594-4.69 3.906-9.71 5.859-15.05 5.859-3.12 0-5.76-.812-7.91-2.437-2.02-1.761-3.03-3.974-3.03-6.641 0-4.49 2.35-8.687 7.03-12.594 4.57-3.906 9.55-5.859 14.94-5.859M2212.17 540.467c3.12 0 5.76.812 7.92 2.437 2.01 1.761 3.02 3.974 3.02 6.641 0 4.49-2.31 8.688-6.93 12.594-4.68 3.906-9.7 5.859-15.04 5.859-3.13 0-5.76-.812-7.91-2.437-2.02-1.761-3.03-3.974-3.03-6.641 0-4.49 2.34-8.687 7.03-12.594 4.56-3.906 9.54-5.859 14.94-5.859M2348.16 665.467c3.13 0 5.77.812 7.93 2.437 2.01 1.761 3.01 3.974 3.01 6.641 0 4.49-2.3 8.688-6.92 12.594-4.69 3.906-9.7 5.859-15.05 5.859-3.12 0-5.76-.812-7.9-2.437-2.02-1.761-3.03-3.974-3.03-6.641 0-4.489 2.34-8.687 7.03-12.594 4.56-3.906 9.54-5.859 14.93-5.859M2448.03 615.467c3.12 0 5.76.812 7.92 2.437 2.01 1.761 3.02 3.974 3.02 6.641 0 4.49-2.31 8.688-6.93 12.594-4.68 3.906-9.7 5.859-15.04 5.859-3.13 0-5.76-.812-7.91-2.437-2.02-1.761-3.03-3.974-3.03-6.641 0-4.489 2.34-8.687 7.03-12.594 4.56-3.906 9.54-5.859 14.94-5.859M2523.43 577.967c3.12 0 5.77.812 7.92 2.437 2.01 1.761 3.02 3.974 3.02 6.641 0 4.49-2.31 8.688-6.92 12.594-4.69 3.906-9.71 5.859-15.05 5.859-3.13 0-5.76-.812-7.91-2.437-2.02-1.761-3.03-3.974-3.03-6.641 0-4.49 2.34-8.687 7.03-12.594 4.56-3.906 9.54-5.859 14.94-5.859M2598.83 565.467c3.13 0 5.77.812 7.92 2.437 2.01 1.761 3.02 3.974 3.02 6.641 0 4.49-2.31 8.688-6.92 12.594-4.69 3.906-9.71 5.859-15.05 5.859-3.12 0-5.76-.812-7.91-2.437-2.02-1.761-3.03-3.974-3.03-6.641 0-4.49 2.35-8.687 7.03-12.594 4.57-3.906 9.55-5.859 14.94-5.859M2713.71 560.186c0-1.104-.42-2.047-1.26-2.828-.86-.844-1.83-1.266-2.94-1.266-1.95 0-5.88 1.953-11.81 5.859-6.13 3.969-9.87 6.802-11.24 8.5-.71.907-1.07 1.849-1.07 2.828 0 1.105.42 2.047 1.28 2.829.78.843 1.75 1.265 2.92 1.265 1.88 0 5.86-1.953 11.92-5.859 5.99-3.906 9.7-6.74 11.13-8.5.71-.844 1.07-1.787 1.07-2.828m-5.17-7.219c5.6 0 8.39 2.406 8.39 7.219 0 2.343-.68 5.078-2.04 8.203-1.37 3.062-3.19 5.406-5.47 7.031-5.01 3.385-11.29 5.078-18.85 5.078-5.6 0-8.4-2.406-8.4-7.219 0-2.145.68-4.849 2.04-8.109 1.31-3.125 3.13-5.5 5.47-7.125 5.02-3.385 11.31-5.078 18.86-5.078M443.291 1340.47c3.125 0 5.766.81 7.922 2.43 2.01 1.77 3.016 3.98 3.016 6.65 0 4.49-2.308 8.68-6.922 12.59-4.688 3.91-9.703 5.86-15.047 5.86-3.125 0-5.761-.81-7.906-2.44-2.021-1.76-3.032-3.97-3.032-6.64 0-4.49 2.344-8.69 7.032-12.59 4.562-3.91 9.541-5.86 14.937-5.86M518.598 1290.47c3.125 0 5.766.81 7.922 2.43 2.01 1.77 3.016 3.98 3.016 6.65 0 4.49-2.308 8.68-6.922 12.59-4.688 3.91-9.703 5.86-15.047 5.86-3.125 0-5.76-.81-7.906-2.44-2.021-1.76-3.032-3.97-3.032-6.64 0-4.49 2.344-8.69 7.032-12.59 4.562-3.91 9.541-5.86 14.937-5.86M593.905 1252.97c3.125 0 5.766.81 7.922 2.43 2.011 1.77 3.016 3.98 3.016 6.65 0 4.49-2.307 8.68-6.922 12.59-4.688 3.91-9.703 5.86-15.047 5.86-3.125 0-5.76-.81-7.906-2.44-2.021-1.76-3.031-3.97-3.031-6.64 0-4.49 2.343-8.69 7.031-12.59 4.562-3.91 9.542-5.86 14.937-5.86M779.859 1327.97c3.125 0 5.766.81 7.922 2.43 2.011 1.77 3.016 3.98 3.016 6.65 0 4.49-2.307 8.68-6.922 12.59-4.687 3.91-9.703 5.86-15.047 5.86-3.125 0-5.76-.81-7.906-2.44-2.021-1.76-3.031-3.97-3.031-6.64 0-4.49 2.343-8.69 7.031-12.59 4.562-3.91 9.542-5.86 14.937-5.86M846.947 1277.97c3.125 0 5.766.81 7.922 2.43 2.01 1.77 3.015 3.98 3.015 6.65 0 4.49-2.307 8.68-6.921 12.59-4.688 3.91-9.704 5.86-15.047 5.86-3.125 0-5.761-.81-7.907-2.44-2.02-1.76-3.031-3.97-3.031-6.64 0-4.49 2.344-8.69 7.031-12.59 4.563-3.91 9.542-5.86 14.938-5.86M914.034 1240.47c3.125 0 5.766.81 7.922 2.43 2.011 1.77 3.016 3.98 3.016 6.65 0 4.49-2.307 8.68-6.922 12.59-4.687 3.91-9.703 5.86-15.047 5.86-3.125 0-5.76-.81-7.906-2.44-2.021-1.76-3.031-3.97-3.031-6.64 0-4.49 2.343-8.69 7.031-12.59 4.562-3.91 9.542-5.86 14.937-5.86M1093.81 1365.47c3.13 0 5.77.81 7.92 2.43 2.01 1.77 3.02 3.98 3.02 6.65 0 4.49-2.31 8.68-6.92 12.59-4.69 3.91-9.71 5.86-15.05 5.86-3.13 0-5.76-.81-7.91-2.44-2.02-1.76-3.03-3.97-3.03-6.64 0-4.49 2.35-8.69 7.03-12.59 4.57-3.91 9.55-5.86 14.94-5.86M1169.51 1327.97c3.12 0 5.76.81 7.92 2.43 2.01 1.77 3.01 3.98 3.01 6.65 0 4.49-2.3 8.68-6.92 12.59-4.69 3.91-9.7 5.86-15.05 5.86-3.12 0-5.76-.81-7.9-2.44-2.02-1.76-3.03-3.97-3.03-6.64 0-4.49 2.34-8.69 7.03-12.59 4.56-3.91 9.54-5.86 14.94-5.86M1245.2 1315.47c3.13 0 5.77.81 7.92 2.43 2.01 1.77 3.02 3.98 3.02 6.65 0 4.49-2.31 8.68-6.92 12.59-4.69 3.91-9.71 5.86-15.05 5.86-3.13 0-5.76-.81-7.91-2.44-2.02-1.76-3.03-3.97-3.03-6.64 0-4.49 2.35-8.69 7.03-12.59 4.57-3.91 9.55-5.86 14.94-5.86M1320.9 1327.97c3.12 0 5.76.81 7.92 2.43 2.01 1.77 3.01 3.98 3.01 6.65 0 4.49-2.3 8.68-6.92 12.59-4.69 3.91-9.7 5.86-15.05 5.86-3.12 0-5.76-.81-7.9-2.44-2.02-1.76-3.03-3.97-3.03-6.64 0-4.49 2.34-8.69 7.03-12.59 4.56-3.91 9.54-5.86 14.94-5.86M1444.67 1285.19c0-1.11-.42-2.05-1.27-2.83-.85-.85-1.83-1.27-2.93-1.27-1.95 0-5.89 1.96-11.82 5.86-6.12 3.97-9.87 6.8-11.23 8.5-.72.91-1.08 1.85-1.08 2.83 0 1.1.43 2.05 1.28 2.83.78.84 1.76 1.26 2.92 1.26 1.89 0 5.86-1.95 11.93-5.86 5.99-3.9 9.69-6.74 11.12-8.5.72-.84 1.08-1.78 1.08-2.82m-5.17-7.22c5.59 0 8.39 2.4 8.39 7.22 0 2.34-.68 5.07-2.05 8.2-1.36 3.06-3.19 5.41-5.47 7.03-5.01 3.39-11.29 5.08-18.84 5.08-5.61 0-8.41-2.41-8.41-7.22 0-2.15.68-4.85 2.05-8.11 1.3-3.12 3.12-5.5 5.47-7.12 5.02-3.39 11.31-5.08 18.86-5.08M1719.67 1340.47c3.12 0 5.76.81 7.92 2.43 2.01 1.77 3.02 3.98 3.02 6.65 0 4.49-2.31 8.68-6.93 12.59-4.68 3.91-9.7 5.86-15.04 5.86-3.13 0-5.76-.81-7.91-2.44-2.02-1.76-3.03-3.97-3.03-6.64 0-4.49 2.34-8.69 7.03-12.59 4.56-3.91 9.54-5.86 14.94-5.86M1798.71 1290.47c3.13 0 5.77.81 7.92 2.43 2.01 1.77 3.02 3.98 3.02 6.65 0 4.49-2.31 8.68-6.92 12.59-4.69 3.91-9.71 5.86-15.05 5.86-3.13 0-5.76-.81-7.91-2.44-2.02-1.76-3.03-3.97-3.03-6.64 0-4.49 2.35-8.69 7.03-12.59 4.57-3.91 9.54-5.86 14.94-5.86M1877.75 1252.97c3.13 0 5.77.81 7.92 2.43 2.02 1.77 3.02 3.98 3.02 6.65 0 4.49-2.31 8.68-6.92 12.59-4.69 3.91-9.7 5.86-15.05 5.86-3.12 0-5.76-.81-7.9-2.44-2.03-1.76-3.04-3.97-3.04-6.64 0-4.49 2.35-8.69 7.04-12.59 4.56-3.91 9.54-5.86 14.93-5.86M1956.8 1290.47c3.12 0 5.76.81 7.92 2.43 2.01 1.77 3.01 3.98 3.01 6.65 0 4.49-2.3 8.68-6.92 12.59-4.69 3.91-9.7 5.86-15.05 5.86-3.12 0-5.76-.81-7.9-2.44-2.02-1.76-3.03-3.97-3.03-6.64 0-4.49 2.34-8.69 7.03-12.59 4.56-3.91 9.54-5.86 14.94-5.86M2092.66 1327.97c3.12 0 5.76.81 7.92 2.43 2.01 1.77 3.01 3.98 3.01 6.65 0 4.49-2.3 8.68-6.92 12.59-4.69 3.91-9.7 5.86-15.05 5.86-3.12 0-5.76-.81-7.9-2.44-2.02-1.76-3.03-3.97-3.03-6.64 0-4.49 2.34-8.69 7.03-12.59 4.56-3.91 9.54-5.86 14.94-5.86M2165.44 1277.97c3.13 0 5.77.81 7.93 2.43 2.01 1.77 3.01 3.98 3.01 6.65 0 4.49-2.31 8.68-6.92 12.59-4.69 3.91-9.7 5.86-15.05 5.86-3.12 0-5.76-.81-7.9-2.44-2.03-1.76-3.04-3.97-3.04-6.64 0-4.49 2.35-8.69 7.04-12.59 4.56-3.91 9.54-5.86 14.93-5.86M2238.23 1240.47c3.13 0 5.77.81 7.92 2.43 2.01 1.77 3.02 3.98 3.02 6.65 0 4.49-2.31 8.68-6.92 12.59-4.69 3.91-9.71 5.86-15.05 5.86-3.13 0-5.76-.81-7.91-2.44-2.02-1.76-3.03-3.97-3.03-6.64 0-4.49 2.35-8.69 7.03-12.59 4.57-3.91 9.54-5.86 14.94-5.86M2311.02 1277.97c3.12 0 5.76.81 7.92 2.43 2.01 1.77 3.02 3.98 3.02 6.65 0 4.49-2.31 8.68-6.93 12.59-4.68 3.91-9.7 5.86-15.04 5.86-3.13 0-5.76-.81-7.91-2.44-2.02-1.76-3.03-3.97-3.03-6.64 0-4.49 2.34-8.69 7.03-12.59 4.56-3.91 9.54-5.86 14.94-5.86M2429.41 1402.97c3.12 0 5.76.81 7.92 2.43 2.01 1.77 3.01 3.98 3.01 6.65 0 4.49-2.3 8.68-6.92 12.59-4.68 3.91-9.7 5.86-15.04 5.86-3.13 0-5.76-.81-7.91-2.44-2.02-1.76-3.03-3.97-3.03-6.64 0-4.49 2.34-8.69 7.03-12.59 4.56-3.91 9.54-5.86 14.94-5.86M2503.26 1352.97c3.12 0 5.76.81 7.92 2.43 2.01 1.77 3.01 3.98 3.01 6.65 0 4.49-2.3 8.68-6.92 12.59-4.69 3.91-9.7 5.86-15.04 5.86-3.13 0-5.77-.81-7.91-2.44-2.02-1.76-3.03-3.97-3.03-6.64 0-4.49 2.34-8.69 7.03-12.59 4.56-3.91 9.54-5.86 14.94-5.86M2574.36 1315.47c3.13 0 5.77.81 7.93 2.43 2.01 1.77 3.01 3.98 3.01 6.65 0 4.49-2.31 8.68-6.92 12.59-4.69 3.91-9.7 5.86-15.05 5.86-3.12 0-5.76-.81-7.9-2.44-2.02-1.76-3.03-3.97-3.03-6.64 0-4.49 2.34-8.69 7.03-12.59 4.56-3.91 9.54-5.86 14.93-5.86M2645.47 1302.97c3.13 0 5.77.81 7.92 2.43 2.01 1.77 3.02 3.98 3.02 6.65 0 4.49-2.31 8.68-6.92 12.59-4.69 3.91-9.71 5.86-15.05 5.86-3.12 0-5.76-.81-7.91-2.44-2.02-1.76-3.03-3.97-3.03-6.64 0-4.49 2.35-8.69 7.03-12.59 4.57-3.91 9.55-5.86 14.94-5.86M2770.86 1297.69c0-1.11-.43-2.05-1.27-2.83-.85-.85-1.83-1.27-2.94-1.27-1.94 0-5.88 1.96-11.81 5.86-6.12 3.97-9.87 6.8-11.23 8.5-.72.91-1.08 1.85-1.08 2.83 0 1.1.43 2.05 1.28 2.83.78.84 1.75 1.26 2.92 1.26 1.89 0 5.86-1.95 11.92-5.86 5.99-3.9 9.7-6.74 11.13-8.5.72-.84 1.08-1.78 1.08-2.82m-5.18-7.22c5.6 0 8.4 2.4 8.4 7.22 0 2.34-.69 5.07-2.05 8.2-1.37 3.06-3.19 5.41-5.47 7.03-5.01 3.39-11.29 5.08-18.84 5.08-5.61 0-8.41-2.41-8.41-7.22 0-2.15.68-4.85 2.05-8.11 1.3-3.12 3.12-5.5 5.47-7.12 5.02-3.39 11.3-5.08 18.85-5.08M482.316 385.186c0-1.105-.422-2.047-1.266-2.829-.854-.843-1.833-1.265-2.937-1.265-1.948 0-5.885 1.953-11.813 5.859-6.125 3.969-9.869 6.802-11.234 8.5-.719.906-1.078 1.849-1.078 2.828 0 1.104.427 2.047 1.281 2.828.781.844 1.755 1.266 2.922 1.266 1.885 0 5.859-1.953 11.922-5.859 5.99-3.907 9.698-6.74 11.125-8.5.719-.844 1.078-1.787 1.078-2.828m-5.172-7.219c5.594 0 8.391 2.406 8.391 7.219 0 2.343-.682 5.078-2.047 8.203-1.365 3.062-3.188 5.406-5.469 7.031-5.01 3.385-11.291 5.078-18.844 5.078-5.604 0-8.406-2.406-8.406-7.219 0-2.146.682-4.849 2.047-8.109 1.302-3.125 3.125-5.5 5.469-7.125 5.021-3.385 11.307-5.078 18.859-5.078M638.091 365.467c3.125 0 5.766.812 7.922 2.437 2.011 1.761 3.016 3.974 3.016 6.641 0 4.49-2.308 8.687-6.922 12.594-4.688 3.906-9.703 5.859-15.047 5.859-3.125 0-5.76-.812-7.906-2.437-2.021-1.761-3.032-3.974-3.032-6.641 0-4.49 2.344-8.688 7.032-12.594 4.562-3.906 9.541-5.859 14.937-5.859M715.686 390.467c3.125 0 5.766.812 7.922 2.437 2.011 1.761 3.016 3.974 3.016 6.641 0 4.49-2.307 8.687-6.922 12.594-4.688 3.906-9.703 5.859-15.047 5.859-3.125 0-5.76-.812-7.906-2.437-2.021-1.761-3.031-3.974-3.031-6.641 0-4.49 2.343-8.688 7.031-12.594 4.562-3.906 9.541-5.859 14.937-5.859M857.873 385.186c0-1.105-.422-2.047-1.265-2.829-.854-.843-1.834-1.265-2.938-1.265-1.948 0-5.885 1.953-11.812 5.859-6.125 3.969-9.87 6.802-11.235 8.5-.718.906-1.078 1.849-1.078 2.828 0 1.104.427 2.047 1.281 2.828.782.844 1.756 1.266 2.922 1.266 1.886 0 5.86-1.953 11.922-5.859 5.99-3.907 9.698-6.74 11.125-8.5.719-.844 1.078-1.787 1.078-2.828m-5.172-7.219c5.594 0 8.391 2.406 8.391 7.219 0 2.343-.682 5.078-2.047 8.203-1.364 3.062-3.187 5.406-5.469 7.031-5.01 3.385-11.291 5.078-18.843 5.078-5.604 0-8.407-2.406-8.407-7.219 0-2.146.683-4.849 2.047-8.109 1.302-3.125 3.125-5.5 5.469-7.125 5.021-3.385 11.307-5.078 18.859-5.078M1009.02 390.467c3.13 0 5.77.812 7.93 2.437 2.01 1.761 3.01 3.974 3.01 6.641 0 4.49-2.31 8.687-6.92 12.594-4.69 3.906-9.7 5.859-15.047 5.859-3.125 0-5.761-.812-7.907-2.437-2.02-1.761-3.031-3.974-3.031-6.641 0-4.49 2.344-8.688 7.031-12.594 4.563-3.906 9.544-5.859 14.934-5.859M1086.33 427.967c3.12 0 5.77.812 7.92 2.437 2.01 1.761 3.02 3.974 3.02 6.641 0 4.49-2.31 8.687-6.92 12.594-4.69 3.906-9.71 5.859-15.05 5.859-3.13 0-5.76-.812-7.91-2.437-2.02-1.761-3.03-3.974-3.03-6.641 0-4.49 2.34-8.688 7.03-12.594 4.56-3.906 9.54-5.859 14.94-5.859M1232.56 422.686c0-1.105-.42-2.047-1.26-2.829-.86-.843-1.84-1.265-2.94-1.265-1.95 0-5.89 1.953-11.81 5.859-6.13 3.969-9.87 6.802-11.24 8.5-.72.906-1.07 1.849-1.07 2.828 0 1.105.42 2.047 1.28 2.828.78.844 1.75 1.266 2.92 1.266 1.88 0 5.86-1.953 11.92-5.859 5.99-3.907 9.7-6.74 11.13-8.5.71-.844 1.07-1.787 1.07-2.828m-5.17-7.219c5.6 0 8.39 2.406 8.39 7.219 0 2.343-.68 5.078-2.04 8.203-1.37 3.062-3.19 5.406-5.47 7.031-5.01 3.385-11.3 5.078-18.85 5.078-5.6 0-8.4-2.406-8.4-7.219 0-2.145.68-4.849 2.04-8.109 1.31-3.125 3.13-5.5 5.47-7.125 5.02-3.385 11.31-5.078 18.86-5.078M1383.71 415.467c3.13 0 5.77.812 7.93 2.437 2.01 1.761 3.01 3.974 3.01 6.641 0 4.49-2.31 8.687-6.92 12.594-4.69 3.906-9.7 5.859-15.05 5.859-3.12 0-5.76-.812-7.9-2.437-2.02-1.761-3.03-3.974-3.03-6.641 0-4.49 2.34-8.688 7.03-12.594 4.56-3.906 9.54-5.859 14.93-5.859M1461.02 427.967c3.13 0 5.77.812 7.92 2.437 2.01 1.761 3.02 3.974 3.02 6.641 0 4.49-2.31 8.687-6.92 12.594-4.69 3.906-9.71 5.859-15.05 5.859-3.13 0-5.76-.812-7.91-2.437-2.02-1.761-3.03-3.974-3.03-6.641 0-4.49 2.35-8.688 7.03-12.594 4.57-3.906 9.54-5.859 14.94-5.859M1620.26 385.186c0-1.105-.42-2.047-1.27-2.829-.85-.843-1.83-1.265-2.93-1.265-1.95 0-5.89 1.953-11.82 5.859-6.12 3.969-9.86 6.802-11.23 8.5-.72.906-1.08 1.849-1.08 2.828 0 1.104.43 2.047 1.28 2.828.78.844 1.76 1.266 2.93 1.266 1.88 0 5.85-1.953 11.92-5.859 5.99-3.907 9.7-6.74 11.12-8.5.72-.844 1.08-1.787 1.08-2.828m-5.17-7.219c5.59 0 8.39 2.406 8.39 7.219 0 2.343-.68 5.078-2.05 8.203-1.36 3.062-3.19 5.406-5.47 7.031-5.01 3.385-11.29 5.078-18.84 5.078-5.6 0-8.41-2.406-8.41-7.219 0-2.146.69-4.849 2.05-8.109 1.3-3.125 3.13-5.5 5.47-7.125 5.02-3.385 11.31-5.078 18.86-5.078M1782.31 327.967c3.12 0 5.77.812 7.92 2.437 2.01 1.761 3.02 3.974 3.02 6.641 0 4.489-2.31 8.687-6.92 12.594-4.69 3.906-9.71 5.859-15.05 5.859-3.13 0-5.76-.812-7.91-2.437-2.02-1.761-3.03-3.974-3.03-6.641 0-4.49 2.34-8.688 7.03-12.594 4.56-3.906 9.54-5.859 14.94-5.859M1853.17 340.467c3.13 0 5.77.812 7.92 2.437 2.01 1.761 3.02 3.974 3.02 6.641 0 4.49-2.31 8.687-6.92 12.594-4.69 3.906-9.71 5.859-15.05 5.859-3.12 0-5.76-.812-7.91-2.437-2.02-1.761-3.03-3.974-3.03-6.641 0-4.49 2.35-8.688 7.03-12.594 4.57-3.906 9.55-5.859 14.94-5.859M1988.63 385.186c0-1.105-.43-2.047-1.27-2.829-.85-.843-1.83-1.265-2.94-1.265-1.94 0-5.88 1.953-11.81 5.859-6.12 3.969-9.87 6.802-11.23 8.5-.72.906-1.08 1.849-1.08 2.828 0 1.104.43 2.047 1.28 2.828.78.844 1.75 1.266 2.92 1.266 1.89 0 5.86-1.953 11.92-5.859 5.99-3.907 9.7-6.74 11.13-8.5.72-.844 1.08-1.787 1.08-2.828m-5.18-7.219c5.6 0 8.39 2.406 8.39 7.219 0 2.343-.68 5.078-2.04 8.203-1.37 3.062-3.19 5.406-5.47 7.031-5.01 3.385-11.29 5.078-18.84 5.078-5.61 0-8.41-2.406-8.41-7.219 0-2.146.68-4.849 2.05-8.109 1.3-3.125 3.12-5.5 5.46-7.125 5.03-3.385 11.31-5.078 18.86-5.078M2143.83 397.686c0-1.105-.42-2.047-1.27-2.829-.85-.843-1.83-1.265-2.94-1.265-1.94 0-5.88 1.953-11.81 5.859-6.12 3.969-9.87 6.802-11.23 8.5-.72.906-1.08 1.849-1.08 2.828 0 1.104.43 2.047 1.28 2.828.78.844 1.76 1.266 2.92 1.266 1.89 0 5.86-1.953 11.92-5.859 5.99-3.907 9.7-6.74 11.13-8.5.72-.844 1.08-1.787 1.08-2.828m-5.17-7.219c5.59 0 8.39 2.406 8.39 7.219 0 2.343-.69 5.078-2.05 8.203-1.36 3.062-3.19 5.406-5.47 7.031-5.01 3.385-11.29 5.078-18.84 5.078-5.61 0-8.41-2.406-8.41-7.219 0-2.146.68-4.849 2.05-8.109 1.3-3.125 3.12-5.5 5.47-7.125 5.02-3.385 11.3-5.078 18.86-5.078M2339.38 380.498c-2.34 0-4.04.813-5.08 2.438-1.17 1.562-1.75 3.682-1.75 6.359 0 3.062.81 5.698 2.44 7.906 1.62 2.146 3.42 3.646 5.37 4.5a12.67 12.67 0 005.57 1.266c2.28 0 4-.813 5.17-2.438 1.1-1.635 1.65-3.755 1.65-6.359 0-3.063-.81-5.698-2.43-7.906-1.63-2.084-3.38-3.584-5.27-4.5-1.89-.844-3.78-1.266-5.67-1.266m3.33-2.531c7.03 0 12.89 1.364 17.58 4.094 4.75 2.739 7.12 5.963 7.12 9.671 0 3.969-2.44 7.224-7.33 9.766-4.88 2.667-10.67 4-17.37 4-6.91 0-12.77-1.365-17.58-4.094-4.82-2.739-7.23-5.963-7.23-9.672 0-3.968 2.47-7.224 7.42-9.765 4.88-2.667 10.68-4 17.39-4M2713.71 385.186c0-1.105-.42-2.047-1.26-2.829-.86-.843-1.83-1.265-2.94-1.265-1.95 0-5.88 1.953-11.81 5.859-6.13 3.969-9.87 6.802-11.24 8.5-.71.906-1.07 1.849-1.07 2.828 0 1.104.42 2.047 1.28 2.828.78.844 1.75 1.266 2.92 1.266 1.88 0 5.86-1.953 11.92-5.859 5.99-3.907 9.7-6.74 11.13-8.5.71-.844 1.07-1.787 1.07-2.828m-5.17-7.219c5.6 0 8.39 2.406 8.39 7.219 0 2.343-.68 5.078-2.04 8.203-1.37 3.062-3.19 5.406-5.47 7.031-5.01 3.385-11.29 5.078-18.85 5.078-5.6 0-8.4-2.406-8.4-7.219 0-2.146.68-4.849 2.04-8.109 1.31-3.125 3.13-5.5 5.47-7.125 5.02-3.385 11.31-5.078 18.86-5.078M2789.81 240.467c3.12 0 5.77.812 7.92 2.437 2.01 1.761 3.02 3.974 3.02 6.641 0 4.489-2.31 8.687-6.92 12.594-4.69 3.906-9.71 5.859-15.05 5.859-3.13 0-5.76-.813-7.91-2.438-2.02-1.76-3.03-3.973-3.03-6.64 0-4.49 2.34-8.688 7.03-12.594 4.56-3.906 9.54-5.859 14.94-5.859M2878.32 252.967c3.13 0 5.77.812 7.92 2.437 2.02 1.761 3.02 3.974 3.02 6.641 0 4.489-2.31 8.687-6.92 12.594-4.69 3.906-9.7 5.859-15.05 5.859-3.12 0-5.76-.813-7.9-2.438-2.03-1.76-3.04-3.973-3.04-6.64 0-4.49 2.35-8.688 7.04-12.594 4.56-3.906 9.54-5.859 14.93-5.859M451.967 1035.19c0-1.11-.422-2.05-1.266-2.83-.854-.85-1.833-1.27-2.937-1.27-1.948 0-5.886 1.96-11.813 5.86-6.125 3.97-9.87 6.8-11.234 8.5-.719.91-1.078 1.85-1.078 2.83 0 1.1.427 2.05 1.281 2.83.781.84 1.755 1.26 2.922 1.26 1.885 0 5.859-1.95 11.922-5.86 5.989-3.9 9.698-6.74 11.125-8.5.718-.84 1.078-1.78 1.078-2.82m-5.172-7.22c5.594 0 8.391 2.4 8.391 7.22 0 2.34-.683 5.07-2.047 8.2-1.365 3.06-3.188 5.41-5.469 7.03-5.01 3.39-11.292 5.08-18.844 5.08-5.604 0-8.406-2.41-8.406-7.22 0-2.15.682-4.85 2.047-8.11 1.302-3.12 3.125-5.5 5.469-7.12 5.02-3.39 11.307-5.08 18.859-5.08M593.905 977.967c3.125 0 5.766.813 7.922 2.438 2.011 1.76 3.016 3.974 3.016 6.64 0 4.49-2.307 8.688-6.922 12.594-4.688 3.911-9.703 5.861-15.047 5.861-3.125 0-5.76-.81-7.906-2.44-2.021-1.76-3.031-3.973-3.031-6.64 0-4.489 2.343-8.687 7.031-12.593 4.562-3.907 9.542-5.86 14.937-5.86M673.748 990.467c3.125 0 5.765.813 7.921 2.438 2.011 1.76 3.016 3.974 3.016 6.64 0 4.485-2.307 8.685-6.922 12.595-4.687 3.91-9.703 5.86-15.047 5.86-3.125 0-5.76-.81-7.906-2.44-2.021-1.76-3.031-3.97-3.031-6.64 0-4.49 2.344-8.69 7.031-12.593 4.563-3.907 9.542-5.86 14.938-5.86M788.535 1035.19c0-1.11-.422-2.05-1.265-2.83-.855-.85-1.834-1.27-2.938-1.27-1.948 0-5.885 1.96-11.812 5.86-6.125 3.97-9.87 6.8-11.235 8.5-.719.91-1.078 1.85-1.078 2.83 0 1.1.427 2.05 1.281 2.83.782.84 1.756 1.26 2.922 1.26 1.886 0 5.86-1.95 11.922-5.86 5.99-3.9 9.698-6.74 11.125-8.5.719-.84 1.078-1.78 1.078-2.82m-5.172-7.22c5.594 0 8.391 2.4 8.391 7.22 0 2.34-.682 5.07-2.047 8.2-1.364 3.06-3.187 5.41-5.469 7.03-5.01 3.39-11.291 5.08-18.843 5.08-5.605 0-8.407-2.41-8.407-7.22 0-2.15.683-4.85 2.047-8.11 1.302-3.12 3.125-5.5 5.469-7.12 5.021-3.39 11.307-5.08 18.859-5.08M922.71 1047.69c0-1.11-.422-2.05-1.265-2.83-.855-.85-1.834-1.27-2.938-1.27-1.948 0-5.885 1.96-11.812 5.86-6.125 3.97-9.87 6.8-11.235 8.5-.719.91-1.078 1.85-1.078 2.83 0 1.1.427 2.05 1.281 2.83.782.84 1.756 1.26 2.922 1.26 1.886 0 5.86-1.95 11.922-5.86 5.99-3.9 9.698-6.74 11.125-8.5.719-.84 1.078-1.78 1.078-2.82m-5.172-7.22c5.594 0 8.391 2.4 8.391 7.22 0 2.34-.682 5.07-2.047 8.2-1.365 3.06-3.187 5.41-5.469 7.03-5.01 3.39-11.291 5.08-18.843 5.08-5.605 0-8.407-2.41-8.407-7.22 0-2.15.683-4.85 2.047-8.11 1.302-3.12 3.125-5.5 5.469-7.12 5.021-3.39 11.307-5.08 18.859-5.08M1085.03 1030.5c-2.35 0-4.04.81-5.08 2.44-1.17 1.56-1.75 3.68-1.75 6.36 0 3.06.81 5.69 2.44 7.9 1.62 2.15 3.41 3.65 5.37 4.5 1.75.85 3.6 1.27 5.56 1.27 2.28 0 4.01-.82 5.17-2.44 1.11-1.64 1.66-3.76 1.66-6.36 0-3.06-.81-5.7-2.44-7.91-1.62-2.08-3.38-3.58-5.26-4.5-1.9-.84-3.79-1.26-5.67-1.26m3.32-2.53c7.04 0 12.89 1.36 17.58 4.09 4.75 2.74 7.13 5.96 7.13 9.67 0 3.97-2.45 7.23-7.33 9.77-4.89 2.67-10.68 4-17.38 4-6.9 0-12.76-1.37-17.57-4.1-4.83-2.73-7.24-5.96-7.24-9.67 0-3.97 2.48-7.22 7.42-9.76 4.89-2.67 10.69-4 17.39-4M1536.82 977.967c3.12 0 5.76.813 7.92 2.438 2.01 1.76 3.02 3.974 3.02 6.64 0 4.49-2.31 8.688-6.93 12.594-4.68 3.911-9.7 5.861-15.04 5.861-3.13 0-5.76-.81-7.91-2.44-2.02-1.76-3.03-3.973-3.03-6.64 0-4.489 2.34-8.687 7.03-12.593 4.56-3.907 9.54-5.86 14.94-5.86M1599.83 990.467c3.13 0 5.77.813 7.93 2.438 2.01 1.76 3.01 3.974 3.01 6.64 0 4.485-2.31 8.685-6.92 12.595-4.69 3.91-9.7 5.86-15.05 5.86-3.12 0-5.76-.81-7.9-2.44-2.02-1.76-3.03-3.97-3.03-6.64 0-4.49 2.34-8.69 7.03-12.593 4.56-3.907 9.54-5.86 14.93-5.86M1728.34 1035.19c0-1.11-.42-2.05-1.26-2.83-.86-.85-1.83-1.27-2.94-1.27-1.95 0-5.88 1.96-11.81 5.86-6.13 3.97-9.87 6.8-11.24 8.5-.71.91-1.07 1.85-1.07 2.83 0 1.1.42 2.05 1.28 2.83.78.84 1.75 1.26 2.92 1.26 1.88 0 5.86-1.95 11.92-5.86 5.99-3.9 9.7-6.74 11.13-8.5.71-.84 1.07-1.78 1.07-2.82m-5.17-7.22c5.6 0 8.39 2.4 8.39 7.22 0 2.34-.68 5.07-2.04 8.2-1.37 3.06-3.19 5.41-5.47 7.03-5.01 3.39-11.29 5.08-18.85 5.08-5.6 0-8.4-2.41-8.4-7.22 0-2.15.68-4.85 2.04-8.11 1.31-3.12 3.13-5.5 5.47-7.12 5.02-3.39 11.31-5.08 18.86-5.08M1877.75 977.967c3.13 0 5.77.813 7.92 2.438 2.02 1.76 3.02 3.974 3.02 6.64 0 4.49-2.31 8.688-6.92 12.594-4.69 3.911-9.7 5.861-15.05 5.861-3.12 0-5.76-.81-7.9-2.44-2.03-1.76-3.04-3.973-3.04-6.64 0-4.489 2.35-8.687 7.04-12.593 4.56-3.907 9.54-5.86 14.93-5.86M1956.8 990.467c3.12 0 5.76.813 7.92 2.438 2.01 1.76 3.01 3.974 3.01 6.64 0 4.485-2.3 8.685-6.92 12.595-4.69 3.91-9.7 5.86-15.05 5.86-3.12 0-5.76-.81-7.9-2.44-2.02-1.76-3.03-3.97-3.03-6.64 0-4.49 2.34-8.69 7.03-12.593 4.56-3.907 9.54-5.86 14.94-5.86M2101.33 1035.19c0-1.11-.42-2.05-1.26-2.83-.86-.85-1.84-1.27-2.94-1.27-1.95 0-5.89 1.96-11.81 5.86-6.13 3.97-9.87 6.8-11.24 8.5-.72.91-1.08 1.85-1.08 2.83 0 1.1.43 2.05 1.28 2.83.79.84 1.76 1.26 2.93 1.26 1.88 0 5.86-1.95 11.92-5.86 5.99-3.9 9.7-6.74 11.12-8.5.72-.84 1.08-1.78 1.08-2.82m-5.17-7.22c5.59 0 8.39 2.4 8.39 7.22 0 2.34-.68 5.07-2.05 8.2-1.36 3.06-3.18 5.41-5.47 7.03-5.01 3.39-11.29 5.08-18.84 5.08-5.6 0-8.41-2.41-8.41-7.22 0-2.15.69-4.85 2.05-8.11 1.3-3.12 3.13-5.5 5.47-7.12 5.02-3.39 11.31-5.08 18.86-5.08M2246.91 1047.69c0-1.11-.43-2.05-1.27-2.83-.85-.85-1.83-1.27-2.94-1.27-1.94 0-5.88 1.96-11.81 5.86-6.12 3.97-9.87 6.8-11.23 8.5-.72.91-1.08 1.85-1.08 2.83 0 1.1.43 2.05 1.28 2.83.78.84 1.75 1.26 2.92 1.26 1.89 0 5.86-1.95 11.92-5.86 5.99-3.9 9.7-6.74 11.13-8.5.72-.84 1.08-1.78 1.08-2.82m-5.18-7.22c5.6 0 8.4 2.4 8.4 7.22 0 2.34-.69 5.07-2.05 8.2-1.37 3.06-3.19 5.41-5.47 7.03-5.01 3.39-11.29 5.08-18.84 5.08-5.61 0-8.41-2.41-8.41-7.22 0-2.15.68-4.85 2.05-8.11 1.3-3.12 3.12-5.5 5.47-7.12 5.02-3.39 11.3-5.08 18.85-5.08M2420.62 1030.5c-2.34 0-4.03.81-5.08 2.44-1.16 1.56-1.75 3.68-1.75 6.36 0 3.06.82 5.69 2.44 7.9 1.63 2.15 3.42 3.65 5.38 4.5 1.75.85 3.6 1.27 5.56 1.27 2.28 0 4-.82 5.17-2.44 1.11-1.64 1.66-3.76 1.66-6.36 0-3.06-.82-5.7-2.44-7.91-1.63-2.08-3.38-3.58-5.27-4.5-1.89-.84-3.78-1.26-5.67-1.26m3.33-2.53c7.03 0 12.89 1.36 17.58 4.09 4.75 2.74 7.12 5.96 7.12 9.67 0 3.97-2.44 7.23-7.32 9.77-4.89 2.67-10.68 4-17.38 4-6.91 0-12.77-1.37-17.58-4.1-4.82-2.73-7.23-5.96-7.23-9.67 0-3.97 2.47-7.22 7.42-9.76 4.89-2.67 10.68-4 17.39-4M2753.4 1030.5c-2.35 0-4.04.81-5.08 2.44-1.17 1.56-1.75 3.68-1.75 6.36 0 3.06.81 5.69 2.44 7.9 1.62 2.15 3.41 3.65 5.37 4.5 1.75.85 3.6 1.27 5.56 1.27 2.28 0 4.01-.82 5.17-2.44 1.11-1.64 1.66-3.76 1.66-6.36 0-3.06-.81-5.7-2.44-7.91-1.62-2.08-3.38-3.58-5.26-4.5-1.9-.84-3.79-1.26-5.67-1.26m3.32-2.53c7.04 0 12.89 1.36 17.58 4.09 4.75 2.74 7.13 5.96 7.13 9.67 0 3.97-2.45 7.23-7.33 9.77-4.89 2.67-10.68 4-17.38 4-6.9 0-12.76-1.37-17.57-4.1-4.83-2.73-7.24-5.96-7.24-9.67 0-3.97 2.48-7.22 7.42-9.76 4.89-2.67 10.69-4 17.39-4"/><path class="Clef" d="M276.639 595.342c-.974-.979-1.461-2.185-1.461-3.617 0-1.433.487-2.636 1.461-3.61.974-.974 2.177-1.461 3.609-1.461s2.638.487 3.617 1.461c.979.974 1.469 2.177 1.469 3.61 0 1.432-.49 2.638-1.469 3.617-.979.979-2.185 1.469-3.617 1.469s-2.635-.49-3.609-1.469m0 25.008c-.974-.974-1.461-2.177-1.461-3.61 0-1.432.487-2.638 1.461-3.617.974-.979 2.177-1.469 3.609-1.469s2.638.49 3.617 1.469c.979.979 1.469 2.185 1.469 3.617 0 1.433-.49 2.636-1.469 3.61-.979.974-2.185 1.461-3.617 1.461s-2.635-.487-3.609-1.461m-33.883-42.383c8.656 0 15.75 2.177 21.281 6.531 5.344 4.563 8.016 10.75 8.016 18.563 0 5.271-1.042 10.088-3.125 14.453-1.959 4.562-4.532 8.599-7.719 12.109-3.261 3.584-7.198 6.969-11.813 10.156a128.753 128.753 0 01-13.875 8.407c-9.698 4.875-15.036 7.312-16.015 7.312-.844 0-1.266-.422-1.266-1.265 0-.323.13-.615.391-.875 3.323-1.959 7.39-4.464 12.203-7.516 3.125-2.021 6.771-4.823 10.937-8.406 4.042-3.386 7.167-6.573 9.375-9.563 2.282-2.937 4.365-6.583 6.25-10.937 1.625-4.365 2.438-8.667 2.438-12.907 0-6.312-1.563-11.812-4.688-16.5-3.125-4.687-7.255-7.031-12.39-7.031-3.646 0-6.771 1.172-9.375 3.516-2.802 2.406-4.823 5.432-6.063 9.078 1.24-.521 2.38-.781 3.422-.781 2.729 0 5.073.979 7.031 2.937 1.948 2.084 2.922 4.459 2.922 7.125 0 2.802-.942 5.313-2.828 7.531-2.021 2.011-4.396 3.016-7.125 3.016-2.927 0-5.562-1.005-7.906-3.016-2.219-2.218-3.328-4.729-3.328-7.531 0-6.708 2.281-12.437 6.843-17.187 4.49-4.813 9.959-7.219 16.407-7.219M276.639 1332.84c-.974-.98-1.461-2.18-1.461-3.61 0-1.44.487-2.64 1.461-3.61.974-.98 2.177-1.47 3.609-1.47s2.638.49 3.617 1.47c.979.97 1.469 2.17 1.469 3.61 0 1.43-.49 2.63-1.469 3.61-.979.98-2.185 1.47-3.617 1.47s-2.635-.49-3.609-1.47m0 25.01c-.974-.97-1.461-2.18-1.461-3.61 0-1.43.487-2.64 1.461-3.62.974-.98 2.177-1.47 3.609-1.47s2.638.49 3.617 1.47c.979.98 1.469 2.19 1.469 3.62 0 1.43-.49 2.64-1.469 3.61-.979.97-2.185 1.46-3.617 1.46s-2.635-.49-3.609-1.46m-33.883-42.38c8.656 0 15.75 2.17 21.281 6.53 5.344 4.56 8.016 10.75 8.016 18.56 0 5.27-1.042 10.09-3.125 14.45-1.959 4.57-4.532 8.6-7.719 12.11-3.261 3.59-7.198 6.97-11.813 10.16-4.5 3.12-9.125 5.93-13.875 8.41-9.698 4.87-15.036 7.31-16.015 7.31-.844 0-1.266-.42-1.266-1.27 0-.32.13-.61.391-.87 3.323-1.96 7.39-4.47 12.203-7.52 3.125-2.02 6.771-4.82 10.937-8.4 4.042-3.39 7.167-6.58 9.375-9.57 2.282-2.93 4.365-6.58 6.25-10.93 1.625-4.37 2.438-8.67 2.438-12.91 0-6.31-1.563-11.81-4.688-16.5-3.125-4.69-7.255-7.03-12.39-7.03-3.646 0-6.771 1.17-9.375 3.51-2.802 2.41-4.823 5.44-6.063 9.08 1.24-.52 2.38-.78 3.422-.78 2.729 0 5.073.98 7.031 2.94 1.948 2.08 2.922 4.46 2.922 7.12 0 2.81-.942 5.32-2.828 7.53-2.021 2.02-4.396 3.02-7.125 3.02-2.927 0-5.562-1-7.906-3.02-2.219-2.21-3.328-4.72-3.328-7.53 0-6.7 2.281-12.43 6.843-17.18 4.49-4.82 9.959-7.22 16.407-7.22M256.224 366.139h.594a2.93 2.93 0 01.672-.094c7.292 0 13.281 2.573 17.969 7.719 4.687 5.073 7.031 10.994 7.031 17.765 0 8.407-3.479 15.245-10.437 20.516-1.823 1.437-4.204 2.609-7.141 3.516.333 4.229.5 7.645.5 10.25 0 .52-.068 2.411-.203 5.671-.261 6.053-2.344 11.292-6.25 15.719-3.771 4.365-8.458 6.547-14.063 6.547-5.27 0-9.76-1.854-13.468-5.562-3.719-3.782-5.579-8.339-5.579-13.672 0-2.802 1.079-5.183 3.235-7.141 2.208-1.948 4.776-2.922 7.703-2.922 2.604 0 4.786 1.011 6.547 3.031 1.823 1.886 2.734 4.23 2.734 7.032 0 2.531-.911 4.708-2.734 6.531-1.823 1.823-4.005 2.734-6.547 2.734a8.075 8.075 0 01-3.016-.578c2.865 4.229 6.672 6.344 11.422 6.344 4.49 0 8.167-1.823 11.031-5.469 3-3.771 4.631-8.166 4.891-13.187.125-3.125.188-4.912.188-5.36 0-3.646-.131-6.64-.391-8.984-3.25.521-6.146.781-8.688.781-9.052 0-16.765-3.583-23.14-10.75-6.25-7.229-9.375-15.823-9.375-25.781 0-2.083.193-4.198.578-6.344.396-1.76.885-3.682 1.469-5.765.323-1.178 1.203-3.068 2.64-5.672a43.319 43.319 0 001.758-2.93c.651-1.172 1.107-1.951 1.367-2.336.646-1.302 1.912-3.062 3.797-5.281a38.885 38.885 0 001.617-1.945c.558-.714 1.032-1.3 1.422-1.758.391-.459.683-.818.875-1.078.193-.261 1.659-1.985 4.399-5.172a34.167 34.167 0 001.898-2.102 51.62 51.62 0 011.516-1.758c.39-.427.685-.734.883-.922-2.344-7.75-3.813-13.937-4.407-18.562-.448-3.708-.672-8.787-.672-15.234 0-5.667 1.303-10.974 3.907-15.922 2.531-5.136 6.078-9.334 10.64-12.594.261-.198.584-.297.969-.297.458 0 .787.099.984.297 3.511 4.229 6.537 9.729 9.079 16.5 2.604 6.771 3.906 12.927 3.906 18.469 0 6.25-1.495 12.109-4.485 17.578-3.385 5.791-7.75 11.781-13.093 17.969 1.364 4.291 3.187 11.026 5.468 20.203m8.297 45.422c3.386-1.24 6.026-3.355 7.922-6.344 2.084-2.865 3.125-6.089 3.125-9.672 0-4.625-1.562-8.729-4.687-12.313-3.198-3.708-7.271-5.791-12.219-6.25 2.802 13.74 4.755 25.266 5.859 34.579m-37.781-22.563c0 6.448 2.604 12.115 7.813 17 5.333 4.75 11.323 7.125 17.968 7.125 2.73 0 5.396-.198 8-.594-1.041-9.896-3.093-21.744-6.156-35.547-3.708.396-6.667 1.698-8.875 3.907-2.156 2.281-3.234 4.854-3.234 7.718 0 4.948 2.64 8.954 7.922 12.016.448.458.671.948.671 1.469 0 .521-.223 1.005-.671 1.453-.396.458-.886.687-1.469.687-.063 0-.354-.062-.875-.187-3.719-2.021-6.583-4.625-8.594-7.813-1.896-3.395-2.844-6.817-2.844-10.265 0-4.49 1.401-8.557 4.203-12.203 2.928-3.646 6.735-5.99 11.422-7.032-1.823-7.291-3.317-12.989-4.484-17.093a5844.243 5844.243 0 00-3.758 4.25c-1.463 1.656-2.325 2.651-2.586 2.984-2.344 3.052-4.135 5.427-5.375 7.125-2.219 3.063-3.849 5.698-4.89 7.906-1.105 2.479-2.079 5.183-2.922 8.11-.844 2.802-1.266 5.797-1.266 8.984m32.609-99.312c-4.885 2.406-8.723 5.854-11.515 10.343-2.865 4.625-4.297 9.604-4.297 14.938 0 4.687 1.172 11.005 3.516 18.953 4.687-5.667 8.203-10.906 10.546-15.719 2.469-5.083 3.704-10.39 3.704-15.922 0-4.166-.651-8.364-1.954-12.593M256.224 1103.64h.594c.261-.06.485-.09.672-.09 7.292 0 13.281 2.57 17.969 7.71 4.687 5.08 7.031 11 7.031 17.77 0 8.41-3.479 15.24-10.437 20.52-1.823 1.43-4.204 2.6-7.141 3.51.333 4.23.5 7.65.5 10.25 0 .52-.068 2.41-.203 5.67-.261 6.05-2.344 11.29-6.25 15.72-3.771 4.37-8.458 6.55-14.063 6.55-5.27 0-9.76-1.86-13.468-5.56-3.719-3.79-5.579-8.34-5.579-13.68 0-2.8 1.079-5.18 3.235-7.14 2.208-1.94 4.776-2.92 7.703-2.92 2.604 0 4.786 1.01 6.547 3.03 1.823 1.89 2.734 4.23 2.734 7.03 0 2.54-.911 4.71-2.734 6.54-1.823 1.82-4.005 2.73-6.547 2.73a7.999 7.999 0 01-3.016-.58c2.865 4.23 6.672 6.35 11.422 6.35 4.49 0 8.167-1.83 11.031-5.47 3-3.77 4.631-8.17 4.891-13.19.125-3.13.188-4.91.188-5.36 0-3.65-.131-6.64-.391-8.98-3.25.52-6.146.78-8.688.78-9.052 0-16.765-3.59-23.14-10.75-6.25-7.23-9.375-15.83-9.375-25.78 0-2.09.193-4.2.578-6.35.396-1.76.885-3.68 1.469-5.76.323-1.18 1.203-3.07 2.64-5.68.521-.78 1.107-1.75 1.758-2.93.651-1.17 1.107-1.95 1.367-2.33.646-1.3 1.912-3.06 3.797-5.28.521-.59 1.06-1.23 1.617-1.95.558-.71 1.032-1.3 1.422-1.76.391-.45.683-.81.875-1.07.193-.26 1.659-1.99 4.399-5.18.646-.65 1.278-1.35 1.898-2.1.62-.74 1.125-1.33 1.516-1.76.39-.42.685-.73.883-.92-2.344-7.75-3.813-13.93-4.407-18.56-.448-3.71-.672-8.79-.672-15.23 0-5.67 1.303-10.98 3.907-15.93 2.531-5.13 6.078-9.33 10.64-12.59.261-.2.584-.3.969-.3.458 0 .787.1.984.3 3.511 4.23 6.537 9.73 9.079 16.5 2.604 6.77 3.906 12.93 3.906 18.47 0 6.25-1.495 12.11-4.485 17.58-3.385 5.79-7.75 11.78-13.093 17.97 1.364 4.29 3.187 11.02 5.468 20.2m8.297 45.42c3.386-1.24 6.026-3.35 7.922-6.34 2.084-2.87 3.125-6.09 3.125-9.67 0-4.63-1.562-8.73-4.687-12.32-3.198-3.71-7.271-5.79-12.219-6.25 2.802 13.74 4.755 25.27 5.859 34.58m-37.781-22.56c0 6.45 2.604 12.11 7.813 17 5.333 4.75 11.323 7.12 17.968 7.12 2.73 0 5.396-.19 8-.59-1.041-9.9-3.093-21.75-6.156-35.55-3.708.4-6.667 1.7-8.875 3.91-2.156 2.28-3.234 4.85-3.234 7.72 0 4.95 2.64 8.95 7.922 12.01.448.46.671.95.671 1.47s-.223 1.01-.671 1.46c-.396.45-.886.68-1.469.68-.063 0-.354-.06-.875-.18-3.719-2.03-6.583-4.63-8.594-7.82-1.896-3.39-2.844-6.81-2.844-10.26 0-4.49 1.401-8.56 4.203-12.21 2.928-3.64 6.735-5.99 11.422-7.03-1.823-7.29-3.317-12.99-4.484-17.09-1.042 1.18-2.294 2.59-3.758 4.25-1.463 1.66-2.325 2.65-2.586 2.98-2.344 3.06-4.135 5.43-5.375 7.13-2.219 3.06-3.849 5.7-4.89 7.9-1.105 2.48-2.079 5.19-2.922 8.11-.844 2.81-1.266 5.8-1.266 8.99m32.609-99.31c-4.885 2.4-8.723 5.85-11.515 10.34-2.865 4.62-4.297 9.6-4.297 14.94 0 4.68 1.172 11 3.516 18.95 4.687-5.67 8.203-10.91 10.546-15.72 2.469-5.08 3.704-10.39 3.704-15.92 0-4.17-.651-8.36-1.954-12.59"/><path class="KeySig" d="M340.342 612.623v7.719c0 2.74.13 4.922.39 6.547 2.146-1.823 3.677-3.188 4.594-4.094 1.042-1.042 2.083-2.476 3.125-4.305 1.042-1.828 1.563-3.653 1.563-5.476s-.391-3.386-1.172-4.688c-.782-1.302-1.823-1.953-3.125-1.953-1.563 0-2.865.589-3.907 1.766-.979 1.302-1.468 2.797-1.468 4.484m-4.11 17.875l-1.265-59.469c.916-.52 1.83-.781 2.742-.781.911 0 1.82.261 2.726.781l-.781 34.469c2.667-2.281 5.729-3.422 9.188-3.422 2.531 0 4.643 1.042 6.336 3.125 1.692 2.084 2.539 4.464 2.539 7.141 0 1.687-.552 3.479-1.657 5.375-1.041 1.75-2.145 3.115-3.312 4.094-.656.521-2.318 1.823-4.984 3.906-.782.583-1.709 1.266-2.782 2.047a172.54 172.54 0 00-2 1.469c-.458.26-.885.781-1.281 1.562a7.004 7.004 0 01-1.562 1.656c-.448.396-.998.594-1.649.594s-1.174-.229-1.57-.687c-.458-.459-.688-1.079-.688-1.86M315.342 650.123v7.719c0 2.74.13 4.922.39 6.547 2.146-1.823 3.677-3.188 4.594-4.094 1.042-1.042 2.083-2.476 3.125-4.305 1.042-1.828 1.563-3.653 1.563-5.476s-.391-3.386-1.172-4.688c-.782-1.302-1.823-1.953-3.125-1.953-1.563 0-2.865.589-3.907 1.766-.979 1.302-1.468 2.797-1.468 4.484m-4.11 17.875l-1.265-59.469c.916-.52 1.83-.781 2.742-.781.911 0 1.82.261 2.726.781l-.781 34.469c2.667-2.281 5.729-3.422 9.188-3.422 2.531 0 4.643 1.042 6.336 3.125 1.692 2.084 2.539 4.464 2.539 7.141 0 1.687-.552 3.479-1.657 5.375-1.041 1.75-2.145 3.115-3.312 4.094-.656.521-2.318 1.823-4.984 3.906-.782.583-1.709 1.266-2.782 2.047a172.54 172.54 0 00-2 1.469c-.458.26-.885.781-1.281 1.562a7.004 7.004 0 01-1.562 1.656c-.448.396-.998.594-1.649.594s-1.174-.229-1.57-.687c-.458-.459-.688-1.079-.688-1.86M340.342 1350.12v7.72c0 2.74.13 4.92.39 6.55 2.146-1.82 3.677-3.19 4.594-4.09 1.042-1.05 2.083-2.48 3.125-4.31 1.042-1.83 1.563-3.65 1.563-5.48 0-1.82-.391-3.38-1.172-4.68-.782-1.31-1.823-1.96-3.125-1.96-1.563 0-2.865.59-3.907 1.77-.979 1.3-1.468 2.8-1.468 4.48m-4.11 17.88l-1.265-59.47c.916-.52 1.83-.78 2.742-.78.911 0 1.82.26 2.726.78l-.781 34.47c2.667-2.28 5.729-3.42 9.188-3.42 2.531 0 4.643 1.04 6.336 3.12 1.692 2.09 2.539 4.47 2.539 7.14 0 1.69-.552 3.48-1.657 5.38-1.041 1.75-2.145 3.11-3.312 4.09-.656.52-2.318 1.82-4.984 3.91-.782.58-1.709 1.26-2.782 2.04-1.073.79-1.739 1.28-2 1.47-.458.26-.885.78-1.281 1.57-.448.65-.969 1.2-1.562 1.65-.448.4-.998.6-1.649.6s-1.174-.23-1.57-.69c-.458-.46-.688-1.08-.688-1.86M315.342 1387.62v7.72c0 2.74.13 4.92.39 6.55 2.146-1.82 3.677-3.19 4.594-4.09 1.042-1.05 2.083-2.48 3.125-4.31 1.042-1.83 1.563-3.65 1.563-5.48 0-1.82-.391-3.38-1.172-4.68-.782-1.31-1.823-1.96-3.125-1.96-1.563 0-2.865.59-3.907 1.77-.979 1.3-1.468 2.8-1.468 4.48m-4.11 17.88l-1.265-59.47c.916-.52 1.83-.78 2.742-.78.911 0 1.82.26 2.726.78l-.781 34.47c2.667-2.28 5.729-3.42 9.188-3.42 2.531 0 4.643 1.04 6.336 3.12 1.692 2.09 2.539 4.47 2.539 7.14 0 1.69-.552 3.48-1.657 5.38-1.041 1.75-2.145 3.11-3.312 4.09-.656.52-2.318 1.82-4.984 3.91-.782.58-1.709 1.26-2.782 2.04-1.073.79-1.739 1.28-2 1.47-.458.26-.885.78-1.281 1.57-.448.65-.969 1.2-1.562 1.65-.448.4-.998.6-1.649.6s-1.174-.23-1.57-.69c-.458-.46-.688-1.08-.688-1.86M340.342 325.123v7.719c0 2.739.13 4.922.39 6.547 2.146-1.823 3.677-3.188 4.594-4.094 1.042-1.042 2.083-2.477 3.125-4.305 1.042-1.828 1.563-3.653 1.563-5.476s-.391-3.386-1.172-4.688c-.782-1.302-1.823-1.953-3.125-1.953-1.563 0-2.865.589-3.907 1.766-.979 1.302-1.468 2.797-1.468 4.484m-4.11 17.875l-1.265-59.469c.916-.521 1.83-.781 2.742-.781.911 0 1.82.26 2.726.781l-.781 34.469c2.667-2.281 5.729-3.422 9.188-3.422 2.531 0 4.643 1.042 6.336 3.125 1.692 2.083 2.539 4.464 2.539 7.141 0 1.687-.552 3.479-1.657 5.375-1.041 1.75-2.145 3.114-3.312 4.094-.656.52-2.318 1.822-4.984 3.906-.782.583-1.709 1.265-2.782 2.047a177.79 177.79 0 00-2 1.468c-.458.261-.885.782-1.281 1.563a7.004 7.004 0 01-1.562 1.656c-.448.396-.998.594-1.649.594s-1.174-.229-1.57-.688c-.458-.458-.688-1.078-.688-1.859M315.342 362.623v7.719c0 2.739.13 4.922.39 6.547 2.146-1.823 3.677-3.188 4.594-4.094 1.042-1.042 2.083-2.477 3.125-4.305 1.042-1.828 1.563-3.653 1.563-5.476s-.391-3.386-1.172-4.688c-.782-1.302-1.823-1.953-3.125-1.953-1.563 0-2.865.589-3.907 1.766-.979 1.302-1.468 2.797-1.468 4.484m-4.11 17.875l-1.265-59.469c.916-.521 1.83-.781 2.742-.781.911 0 1.82.26 2.726.781l-.781 34.469c2.667-2.281 5.729-3.422 9.188-3.422 2.531 0 4.643 1.042 6.336 3.125 1.692 2.084 2.539 4.464 2.539 7.141 0 1.687-.552 3.479-1.657 5.375-1.041 1.75-2.145 3.114-3.312 4.094-.656.52-2.318 1.822-4.984 3.906-.782.583-1.709 1.265-2.782 2.047a192.572 192.572 0 00-2 1.468c-.458.261-.885.782-1.281 1.563a7.004 7.004 0 01-1.562 1.656c-.448.396-.998.594-1.649.594s-1.174-.229-1.57-.688c-.458-.458-.688-1.078-.688-1.859M340.342 1062.62v7.72c0 2.74.13 4.92.39 6.55 2.146-1.82 3.677-3.19 4.594-4.09 1.042-1.05 2.083-2.48 3.125-4.31 1.042-1.83 1.563-3.65 1.563-5.48 0-1.82-.391-3.38-1.172-4.68-.782-1.31-1.823-1.96-3.125-1.96-1.563 0-2.865.59-3.907 1.77-.979 1.3-1.468 2.8-1.468 4.48m-4.11 17.88l-1.265-59.47c.916-.52 1.83-.78 2.742-.78.911 0 1.82.26 2.726.78l-.781 34.47c2.667-2.28 5.729-3.42 9.188-3.42 2.531 0 4.643 1.04 6.336 3.12 1.692 2.08 2.539 4.47 2.539 7.14 0 1.69-.552 3.48-1.657 5.38-1.041 1.75-2.145 3.11-3.312 4.09-.656.52-2.318 1.82-4.984 3.91-.782.58-1.709 1.26-2.782 2.04-1.073.79-1.739 1.27-2 1.47-.458.26-.885.78-1.281 1.57-.448.65-.969 1.2-1.562 1.65-.448.4-.998.6-1.649.6s-1.174-.23-1.57-.69c-.458-.46-.688-1.08-.688-1.86M315.342 1100.12v7.72c0 2.74.13 4.92.39 6.55 2.146-1.82 3.677-3.19 4.594-4.09 1.042-1.05 2.083-2.48 3.125-4.31 1.042-1.83 1.563-3.65 1.563-5.48 0-1.82-.391-3.38-1.172-4.68-.782-1.31-1.823-1.96-3.125-1.96-1.563 0-2.865.59-3.907 1.77-.979 1.3-1.468 2.8-1.468 4.48m-4.11 17.88l-1.265-59.47c.916-.52 1.83-.78 2.742-.78.911 0 1.82.26 2.726.78l-.781 34.47c2.667-2.28 5.729-3.42 9.188-3.42 2.531 0 4.643 1.04 6.336 3.12 1.692 2.08 2.539 4.47 2.539 7.14 0 1.69-.552 3.48-1.657 5.38-1.041 1.75-2.145 3.11-3.312 4.09-.656.52-2.318 1.82-4.984 3.91-.782.58-1.709 1.26-2.782 2.04-1.073.79-1.739 1.27-2 1.47-.458.26-.885.78-1.281 1.57-.448.65-.969 1.2-1.562 1.65-.448.4-.998.6-1.649.6s-1.174-.23-1.57-.69c-.458-.46-.688-1.08-.688-1.86"/><path class="Rest" d="M2855.76 621.42c0-1.177.66-2.479 1.97-3.906.97-1.042 2.4-2.281 4.3-3.719 1.42-.969 2.82-2.432 4.18-4.391 1.31-1.885 1.96-3.937 1.96-6.156 0-2.604-.85-4.911-2.53-6.922l-3.52-4.203c-.26-.26-.39-.586-.39-.976 0-.391.19-.748.58-1.071.46-.333.85-.5 1.17-.5.46 0 .82.198 1.08.594l15.14 17.969c.64.844.97 1.687.97 2.531 0 1.177-.65 2.479-1.96 3.906-.84.917-2.24 2.157-4.18 3.719-1.5.906-2.94 2.37-4.3 4.391-1.3 1.885-1.95 3.937-1.95 6.156 0 2.74.78 5.052 2.34 6.937l8.39 9.86c.2.198.36.526.48.984 0 .448-.16.839-.48 1.172-.46.323-.85.484-1.17.484-.13 0-.65-.359-1.56-1.078-.98-.781-2.29-1.531-3.91-2.25-1.82-.708-3.61-1.062-5.38-1.062-1.62 0-2.95.453-4 1.359-.9.917-1.35 2.677-1.35 5.281 0 3.969.94 7.094 2.82 9.375.2.261.23.584.1.969-.13.261-.36.391-.69.391-.45 0-1.45-1.172-3.02-3.516-1.63-2.469-3.16-5.302-4.59-8.5-1.5-3.385-2.25-6.182-2.25-8.39 0-2.802 1.33-4.204 4-4.204 3.06 0 7.04 1.042 11.92 3.125l-13.19-15.828c-.65-.843-.98-1.687-.98-2.531M651.185 1358.92c0-1.18.656-2.48 1.969-3.91.969-1.04 2.401-2.28 4.297-3.71 1.427-.97 2.823-2.44 4.187-4.4 1.302-1.88 1.953-3.93 1.953-6.15 0-2.61-.843-4.91-2.531-6.92l-3.516-4.21c-.26-.26-.39-.58-.39-.97s.193-.75.578-1.07c.458-.34.849-.5 1.172-.5.458 0 .818.19 1.078.59l15.141 17.97c.645.84.968 1.69.968 2.53 0 1.18-.651 2.48-1.953 3.91-.844.91-2.239 2.15-4.187 3.72-1.5.9-2.933 2.37-4.297 4.39-1.302 1.88-1.953 3.93-1.953 6.15 0 2.74.781 5.05 2.343 6.94l8.391 9.86c.198.2.359.53.484.98 0 .45-.161.84-.484 1.18-.458.32-.849.48-1.172.48-.125 0-.646-.36-1.562-1.08-.979-.78-2.282-1.53-3.907-2.25-1.822-.71-3.614-1.06-5.375-1.06-1.625 0-2.958.45-4 1.36-.906.92-1.359 2.68-1.359 5.28 0 3.97.943 7.09 2.828 9.37.198.27.229.59.094.97-.125.26-.354.39-.688.39-.447 0-1.453-1.17-3.015-3.51-1.636-2.47-3.167-5.3-4.594-8.5-1.5-3.39-2.25-6.18-2.25-8.39 0-2.8 1.333-4.21 4-4.21 3.063 0 7.037 1.05 11.922 3.13l-13.188-15.83c-.656-.84-.984-1.69-.984-2.53M958.559 1358.92c0-1.18.657-2.48 1.969-3.91.969-1.04 2.401-2.28 4.297-3.71 1.427-.97 2.823-2.44 4.188-4.4 1.302-1.88 1.953-3.93 1.953-6.15 0-2.61-.844-4.91-2.532-6.92l-3.515-4.21a1.308 1.308 0 01-.391-.97c0-.39.193-.75.578-1.07.459-.34.849-.5 1.172-.5.458 0 .818.19 1.078.59l15.141 17.97c.646.84.969 1.69.969 2.53 0 1.18-.651 2.48-1.953 3.91-.844.91-2.24 2.15-4.188 3.72-1.5.9-2.932 2.37-4.297 4.39-1.302 1.88-1.953 3.93-1.953 6.15 0 2.74.781 5.05 2.344 6.94l8.39 9.86c.198.2.36.53.485.98 0 .45-.162.84-.485 1.18-.458.32-.849.48-1.171.48-.125 0-.646-.36-1.563-1.08-.979-.78-2.281-1.53-3.906-2.25-1.823-.71-3.615-1.06-5.375-1.06-1.625 0-2.959.45-4 1.36-.906.92-1.36 2.68-1.36 5.28 0 3.97.943 7.09 2.829 9.37.197.27.229.59.093.97-.125.26-.354.39-.687.39-.448 0-1.453-1.17-3.016-3.51-1.635-2.47-3.167-5.3-4.594-8.5-1.5-3.39-2.25-6.18-2.25-8.39 0-2.8 1.334-4.21 4-4.21 3.063 0 7.037 1.05 11.922 3.13l-13.187-15.83c-.656-.84-.985-1.69-.985-2.53M1551.38 1366.73h-35.55c-.65 0-.98-.33-.98-.98v-13.67c0-.65.33-.97.98-.97h35.55c.65 0 .97.32.97.97v13.67c0 .65-.32.98-.97.98M2833.26 1358.92c0-1.18.66-2.48 1.97-3.91.97-1.04 2.4-2.28 4.3-3.71 1.42-.97 2.82-2.44 4.18-4.4 1.31-1.88 1.96-3.93 1.96-6.15 0-2.61-.85-4.91-2.53-6.92l-3.52-4.21c-.26-.26-.39-.58-.39-.97s.19-.75.58-1.07c.46-.34.85-.5 1.17-.5.46 0 .82.19 1.08.59l15.14 17.97c.64.84.97 1.69.97 2.53 0 1.18-.65 2.48-1.96 3.91-.84.91-2.24 2.15-4.18 3.72-1.5.9-2.94 2.37-4.3 4.39-1.3 1.88-1.95 3.93-1.95 6.15 0 2.74.78 5.05 2.34 6.94l8.39 9.86c.2.2.36.53.48.98 0 .45-.16.84-.48 1.18-.46.32-.85.48-1.17.48-.13 0-.65-.36-1.56-1.08-.98-.78-2.29-1.53-3.91-2.25-1.82-.71-3.61-1.06-5.38-1.06-1.62 0-2.95.45-4 1.36-.9.92-1.35 2.68-1.35 5.28 0 3.97.94 7.09 2.82 9.37.2.27.23.59.1.97-.13.26-.36.39-.69.39-.45 0-1.45-1.17-3.02-3.51-1.63-2.47-3.16-5.3-4.59-8.5-1.5-3.39-2.25-6.18-2.25-8.39 0-2.8 1.33-4.21 4-4.21 3.06 0 7.04 1.05 11.92 3.13l-13.19-15.83c-.65-.84-.98-1.69-.98-2.53M1450.56 1104.23h-35.55c-.66 0-.99-.33-.99-.98v-13.67c0-.65.33-.97.99-.97h35.55c.64 0 .96.32.96.97v13.67c0 .65-.32.98-.96.98"/><path class="OttavaSegment" d="M1721.64 1220.37c2.15 1.44 3.67 2.72 4.56 3.85 1.48 2 2.22 4.2 2.22 6.59 0 4.21-1.62 7.69-4.86 10.45-3.24 2.75-7.36 4.13-12.36 4.13-4.16 0-7.45-.92-9.87-2.76-2.42-1.84-3.63-4.31-3.63-7.43 0-6.08 3.92-10.62 11.77-13.62-1.73-1.24-2.98-2.56-3.73-3.96-.76-1.41-1.13-3.11-1.13-5.11 0-3.91 1.43-7.21 4.28-9.89 2.86-2.69 6.39-4.03 10.59-4.03 3.48 0 6.35.96 8.61 2.89 2.26 1.92 3.39 4.34 3.39 7.25 0 3.45-1.44 6.27-4.33 8.47-1.07.88-2.91 1.93-5.51 3.17m-2.82-1.5c.4-.19.76-.35 1.08-.47 2-.92 3.61-2.32 4.83-4.17 1.22-1.86 1.83-3.81 1.83-5.86 0-2.04-.71-3.71-2.13-5-1.43-1.3-3.26-1.95-5.5-1.95-2.52 0-4.68.78-6.47 2.34-1.8 1.55-2.7 3.44-2.7 5.64 0 1.88.69 3.53 2.07 4.95 1.38 1.42 3.71 2.93 6.99 4.52m-6.9 4.44s-.4.18-1.2.55c-2.4 1.04-4.29 2.51-5.67 4.41-1.38 1.9-2.07 3.95-2.07 6.15 0 2.52.8 4.51 2.4 5.97 1.6 1.46 3.78 2.19 6.54 2.19 3.04 0 5.6-.85 7.68-2.55 2.08-1.7 3.12-3.79 3.12-6.27 0-3-1.66-5.5-4.97-7.5-1.13-.64-3.07-1.63-5.83-2.95"/><path class="OttavaSegment" fill="none" stroke="#000" stroke-dasharray="10,5" stroke-width="2.5" stroke-linecap="square" stroke-linejoin="bevel" d="M1744.2 1221.94h1138.97M2883.17 1221.94v47.5"/><path class="OttavaSegment" d="M382.443 240.17c2.157 1.437 3.677 2.719 4.563 3.844 1.479 2 2.219 4.198 2.219 6.593 0 4.209-1.62 7.69-4.86 10.446-3.239 2.755-7.359 4.132-12.359 4.132-4.156 0-7.445-.919-9.867-2.757-2.422-1.839-3.633-4.315-3.633-7.43 0-6.083 3.922-10.625 11.765-13.625-1.729-1.24-2.971-2.56-3.726-3.961-.755-1.401-1.133-3.102-1.133-5.102 0-3.916 1.43-7.216 4.289-9.898 2.86-2.682 6.388-4.023 10.586-4.023 3.479 0 6.349.961 8.609 2.882 2.261 1.922 3.391 4.342 3.391 7.258 0 3.448-1.443 6.271-4.328 8.469-1.073.875-2.912 1.932-5.516 3.172m-2.812-1.5a9.774 9.774 0 011.078-.469c2-.927 3.609-2.32 4.828-4.18 1.219-1.859 1.828-3.809 1.828-5.851s-.711-3.711-2.133-5.008c-1.421-1.297-3.252-1.945-5.492-1.945-2.521 0-4.679.778-6.476 2.336-1.797 1.557-2.696 3.44-2.696 5.648 0 1.875.69 3.524 2.071 4.945 1.38 1.422 3.711 2.93 6.992 4.524m-6.906 4.437l-1.204.547c-2.395 1.042-4.283 2.513-5.664 4.414-1.38 1.901-2.07 3.951-2.07 6.149 0 2.521.8 4.51 2.399 5.968 1.598 1.459 3.778 2.188 6.539 2.188 3.041 0 5.601-.849 7.679-2.547 2.078-1.698 3.117-3.786 3.117-6.266 0-3-1.656-5.5-4.968-7.5-1.125-.645-3.068-1.63-5.828-2.953"/><path class="OttavaSegment" fill="none" stroke="#000" stroke-dasharray="10,5" stroke-width="2.5" stroke-linecap="square" stroke-linejoin="bevel" d="M405.006 241.732H1496.97M1496.97 241.732v47.5"/><path class="OttavaSegment" d="M1437.96 957.873c2.16 1.438 3.68 2.719 4.56 3.844 1.48 2 2.22 4.198 2.22 6.594 0 4.208-1.62 7.69-4.86 10.445s-7.36 4.133-12.36 4.133c-4.15 0-7.44-.919-9.86-2.758-2.42-1.838-3.64-4.315-3.64-7.429 0-6.084 3.93-10.625 11.77-13.625-1.73-1.24-2.97-2.56-3.73-3.961-.75-1.401-1.13-3.102-1.13-5.102 0-3.917 1.43-7.216 4.29-9.898 2.86-2.683 6.39-4.024 10.59-4.024 3.48 0 6.35.961 8.61 2.883 2.26 1.922 3.39 4.341 3.39 7.258 0 3.448-1.45 6.271-4.33 8.469-1.07.875-2.91 1.932-5.52 3.171m-2.81-1.5c.4-.197.76-.354 1.08-.468 2-.927 3.61-2.321 4.83-4.18 1.21-1.859 1.82-3.81 1.82-5.852 0-2.041-.71-3.711-2.13-5.007-1.42-1.297-3.25-1.946-5.49-1.946-2.52 0-4.68.779-6.48 2.336-1.79 1.558-2.69 3.44-2.69 5.649 0 1.875.69 3.523 2.07 4.945 1.38 1.422 3.71 2.93 6.99 4.523m-6.91 4.438l-1.2.547c-2.4 1.041-4.28 2.513-5.66 4.414-1.38 1.901-2.07 3.95-2.07 6.148 0 2.521.8 4.511 2.39 5.969 1.6 1.458 3.78 2.188 6.54 2.188 3.05 0 5.61-.849 7.68-2.547 2.08-1.698 3.12-3.787 3.12-6.266 0-3-1.66-5.5-4.97-7.5-1.12-.646-3.07-1.63-5.83-2.953"/><path class="OttavaSegment" fill="none" stroke="#000" stroke-dasharray="10,5" stroke-width="2.5" stroke-linecap="square" stroke-linejoin="bevel" d="M1460.52 959.436h1345.91M2806.43 959.436v47.504"/><path class="NoteDot" d="M2727.3 570.74c-1.11-1.109-1.66-2.445-1.66-4.007 0-1.563.55-2.899 1.66-4.008 1.11-1.11 2.45-1.664 4.01-1.664 1.56 0 2.89.554 4 1.664 1.1 1.109 1.65 2.445 1.65 4.008 0 1.562-.55 2.898-1.65 4.007-1.11 1.11-2.44 1.664-4 1.664s-2.9-.554-4.01-1.664M2784.44 1308.24c-1.11-1.11-1.66-2.44-1.66-4.01 0-1.56.55-2.9 1.66-4 1.11-1.11 2.45-1.67 4.01-1.67 1.56 0 2.9.56 4 1.67 1.1 1.1 1.66 2.44 1.66 4 0 1.57-.56 2.9-1.66 4.01-1.1 1.11-2.44 1.66-4 1.66s-2.9-.55-4.01-1.66"/><path class="Page" d="M2903.5 3743.2c.61 0 1.53.37 2.74 1.12 1.22.75 2.28 1.13 3.18 1.13 1.47 0 2.71-.57 3.72-1.71 1.01-1.14 1.52-2.55 1.52-4.21 0-1.05-.15-1.96-.45-2.75-.3-.8-.71-1.41-1.23-1.85-.53-.43-1.18-.79-1.96-1.07-.77-.27-1.5-.45-2.18-.54-.67-.08-1.4-.12-2.17-.12v-.52c.91-.32 1.69-.64 2.34-.94.65-.31 1.33-.72 2.05-1.24.72-.51 1.27-1.15 1.66-1.9.38-.75.58-1.6.58-2.56 0-1.25-.41-2.27-1.22-3.08-.81-.8-1.87-1.2-3.17-1.2-1.25 0-2.35.34-3.3 1.02-.95.69-1.84 1.76-2.67 3.23l-.6-.17c.7-1.89 1.64-3.44 2.82-4.65 1.19-1.21 2.87-1.82 5.06-1.82 1.84 0 3.34.51 4.48 1.52 1.15 1.01 1.72 2.32 1.72 3.95 0 1.09-.28 2.05-.83 2.88-.56.83-1.54 1.71-2.93 2.65 1.6.69 2.86 1.57 3.76 2.64.91 1.07 1.36 2.61 1.36 4.61 0 2.83-1.08 5.1-3.26 6.8-2.17 1.7-4.84 2.54-8.02 2.54-1.39 0-2.48-.21-3.3-.63-.81-.42-1.22-.99-1.22-1.69 0-.44.15-.79.43-1.05s.64-.39 1.09-.39"/><path class="Bracket" fill-rule="evenodd" d="M183.775 445.701c0-29.204-20.114-57.592-20.114-85.571 0-14.091 5.486-27.774 22.4-40.028.228-.153.343-.408.343-.562 0-.459-1.257-.867-2.172-.867-.457 0-1.257.051-1.828.408-21.943 15.725-29.257 33.901-29.257 52.282 0 29.612 21.485 58.204 21.485 86.591 0 14.092-5.485 27.367-22.4 39.62v.817c16.915 12.253 22.4 25.528 22.4 39.62 0 28.387-21.485 56.979-21.485 86.591 0 18.381 7.314 36.557 29.257 52.282.571.357 1.371.408 1.828.408.915 0 2.172-.408 2.172-.867 0-.154-.115-.409-.343-.562-16.914-12.254-22.4-25.937-22.4-40.028 0-27.979 20.114-56.367 20.114-85.571 0-18.584-7.314-36.352-28.8-52.281 21.486-15.93 28.8-33.698 28.8-52.282M183.775 1183.2c0-29.2-20.114-57.59-20.114-85.57 0-14.09 5.486-27.77 22.4-40.03.228-.15.343-.41.343-.56 0-.46-1.257-.87-2.172-.87-.457 0-1.257.05-1.828.41-21.943 15.73-29.257 33.9-29.257 52.28 0 29.62 21.485 58.21 21.485 86.59 0 14.1-5.485 27.37-22.4 39.62v.82c16.915 12.25 22.4 25.53 22.4 39.62 0 28.39-21.485 56.98-21.485 86.59 0 18.38 7.314 36.56 29.257 52.28.571.36 1.371.41 1.828.41.915 0 2.172-.41 2.172-.87 0-.15-.115-.4-.343-.56-16.914-12.25-22.4-25.93-22.4-40.02 0-27.98 20.114-56.37 20.114-85.58 0-18.58-7.314-36.35-28.8-52.28 21.486-15.93 28.8-33.69 28.8-52.28"/></svg>
